<svg width="169" height="157" viewBox="0 0 169 157" fill="none" xmlns="http://www.w3.org/2000/svg">
<g filter="url(#filter0_d_394_740)">
<path d="M10.8635 109.627C10.8248 109.679 10.7932 109.744 10.7873 109.82C10.7813 109.897 10.8026 109.965 10.8365 110.02C10.8983 110.119 11.0026 110.18 11.0816 110.217C11.2475 110.294 11.4903 110.353 11.7692 110.4C12.0562 110.448 12.4107 110.489 12.8182 110.523C16.0624 110.793 23.0456 110.643 27.9476 109.811C32.9713 108.958 36.8414 109.965 41.312 110.832C45.7815 111.698 50.7867 112.404 57.9741 110.865C67.7654 108.769 79.7662 104.973 90.6309 100.791C101.489 96.6119 111.247 92.0335 116.536 88.3635C126.215 81.648 133.434 77.7962 139.233 70.6265C139.324 70.5132 139.316 70.3629 139.214 70.2669C139.111 70.1709 138.942 70.1553 138.809 70.2297C137.119 71.172 133.184 73.3463 128.268 74.3104C126.555 74.6464 124.924 74.8932 123.546 74.8815C122.45 74.8721 121.552 74.6978 120.897 74.3064C123.085 73.856 127.038 72.7259 131.684 70.4328C134.828 68.8812 137.55 67.7124 139.765 66.515C141.998 65.3081 143.787 64.0393 145.106 62.2437C147.711 58.6972 148.106 55.5191 148.628 52.0417C149.144 48.5958 149.378 45.9505 149.256 44.0488C149.196 43.0979 149.045 42.3177 148.787 41.7107C148.528 41.102 148.153 40.6505 147.633 40.3874C146.591 39.8609 145.145 40.1697 143.369 41.0101C141.566 41.8629 139.296 43.3242 136.506 45.3053C125.355 53.2257 113.467 62.1843 87.4998 77.294C80.6609 81.2734 76.1522 83.3877 69.1366 86.9379C64.8947 89.0846 61.5064 90.7151 58.2998 91.9978C59.1021 91.4074 60.025 90.7099 60.8079 90.0873C61.2738 89.7168 61.7399 89.3795 62.1938 89.0541C62.6456 88.7302 63.0894 88.4154 63.5021 88.0993C64.3281 87.4666 65.0596 86.8036 65.5393 85.9662C65.6069 85.8483 65.5782 85.7089 65.4699 85.627C65.3616 85.5453 65.2002 85.5409 65.0764 85.6162C61.9553 87.515 57.5916 89.9795 54.9662 91.5429C53.9086 92.1727 52.272 92.8655 50.3475 93.6475C48.6924 94.3201 46.8353 95.0537 44.9973 95.8592C45.8856 95.0355 46.8964 94.0331 47.723 93.0608C47.9643 92.7769 48.1349 92.5621 48.2463 92.407C48.3014 92.3301 48.347 92.2619 48.3789 92.203C48.3949 92.1736 48.4109 92.1406 48.4228 92.1067C48.4331 92.0773 48.448 92.0242 48.4423 91.9625C48.4358 91.8917 48.3962 91.7852 48.2683 91.7276C48.1625 91.68 48.06 91.6967 48.0192 91.7056C47.9339 91.7243 47.8577 91.7667 47.8138 91.7925C47.7097 91.8537 47.5791 91.9501 47.4439 92.0565C46.9011 92.4838 46.0562 93.263 45.8151 93.5369C45.7763 93.5809 45.6695 93.6797 45.493 93.8321C45.3229 93.9792 45.1025 94.1641 44.8483 94.3724C44.3398 94.7891 43.7018 95.298 43.0773 95.7921C42.7779 96.029 42.4801 96.2609 42.2028 96.4787C42.2312 96.4357 42.2613 96.3928 42.2901 96.3491C42.596 95.8836 42.9165 95.3771 43.1852 94.9081C43.4511 94.4439 43.6774 93.9988 43.7842 93.6626C43.8249 93.5343 43.8582 93.4192 43.8666 93.344C43.8686 93.3255 43.8723 93.2852 43.8629 93.24C43.8578 93.2157 43.8183 93.0448 43.6051 93.0148C43.5159 93.0023 43.443 93.0249 43.4044 93.041C43.3654 93.0574 43.3366 93.0773 43.3205 93.0893C43.2885 93.1133 43.2634 93.1388 43.2497 93.1539C43.197 93.2123 43.1295 93.3102 43.0585 93.416C42.9829 93.5286 42.8855 93.6785 42.7704 93.8522C42.3064 94.5529 41.5084 95.7268 40.3389 97.0936C38.4788 99.2674 36.134 101.06 35.3483 101.757C31.2714 104.811 27.5686 107.543 20.2355 108.157C17.7132 108.368 15.7848 108.569 14.3611 108.757C12.9453 108.944 12.0074 109.121 11.4793 109.287C11.3456 109.329 11.2275 109.373 11.1306 109.422C11.0409 109.467 10.9346 109.531 10.8635 109.627Z" fill="url(#paint0_linear_394_740)"/>
<path d="M10.8635 109.627C10.8248 109.679 10.7932 109.744 10.7873 109.82C10.7813 109.897 10.8026 109.965 10.8365 110.02C10.8983 110.119 11.0026 110.18 11.0816 110.217C11.2475 110.294 11.4903 110.353 11.7692 110.4C12.0562 110.448 12.4107 110.489 12.8182 110.523C16.0624 110.793 23.0456 110.643 27.9476 109.811C32.9713 108.958 36.8414 109.965 41.312 110.832C45.7815 111.698 50.7867 112.404 57.9741 110.865C67.7654 108.769 79.7662 104.973 90.6309 100.791C101.489 96.6119 111.247 92.0335 116.536 88.3635C126.215 81.648 133.434 77.7962 139.233 70.6265C139.324 70.5132 139.316 70.3629 139.214 70.2669C139.111 70.1709 138.942 70.1553 138.809 70.2297C137.119 71.172 133.184 73.3463 128.268 74.3104C126.555 74.6464 124.924 74.8932 123.546 74.8815C122.45 74.8721 121.552 74.6978 120.897 74.3064C123.085 73.856 127.038 72.7259 131.684 70.4328C134.828 68.8812 137.55 67.7124 139.765 66.515C141.998 65.3081 143.787 64.0393 145.106 62.2437C147.711 58.6972 148.106 55.5191 148.628 52.0417C149.144 48.5958 149.378 45.9505 149.256 44.0488C149.196 43.0979 149.045 42.3177 148.787 41.7107C148.528 41.102 148.153 40.6505 147.633 40.3874C146.591 39.8609 145.145 40.1697 143.369 41.0101C141.566 41.8629 139.296 43.3242 136.506 45.3053C125.355 53.2257 113.467 62.1843 87.4998 77.294C80.6609 81.2734 76.1522 83.3877 69.1366 86.9379C64.8947 89.0846 61.5064 90.7151 58.2998 91.9978C59.1021 91.4074 60.025 90.7099 60.8079 90.0873C61.2738 89.7168 61.7399 89.3795 62.1938 89.0541C62.6456 88.7302 63.0894 88.4154 63.5021 88.0993C64.3281 87.4666 65.0596 86.8036 65.5393 85.9662C65.6069 85.8483 65.5782 85.7089 65.4699 85.627C65.3616 85.5453 65.2002 85.5409 65.0764 85.6162C61.9553 87.515 57.5916 89.9795 54.9662 91.5429C53.9086 92.1727 52.272 92.8655 50.3475 93.6475C48.6924 94.3201 46.8353 95.0537 44.9973 95.8592C45.8856 95.0355 46.8964 94.0331 47.723 93.0608C47.9643 92.7769 48.1349 92.5621 48.2463 92.407C48.3014 92.3301 48.347 92.2619 48.3789 92.203C48.3949 92.1736 48.4109 92.1406 48.4228 92.1067C48.4331 92.0773 48.448 92.0242 48.4423 91.9625C48.4358 91.8917 48.3962 91.7852 48.2683 91.7276C48.1625 91.68 48.06 91.6967 48.0192 91.7056C47.9339 91.7243 47.8577 91.7667 47.8138 91.7925C47.7097 91.8537 47.5791 91.9501 47.4439 92.0565C46.9011 92.4838 46.0562 93.263 45.8151 93.5369C45.7763 93.5809 45.6695 93.6797 45.493 93.8321C45.3229 93.9792 45.1025 94.1641 44.8483 94.3724C44.3398 94.7891 43.7018 95.298 43.0773 95.7921C42.7779 96.029 42.4801 96.2609 42.2028 96.4787C42.2312 96.4357 42.2613 96.3928 42.2901 96.3491C42.596 95.8836 42.9165 95.3771 43.1852 94.9081C43.4511 94.4439 43.6774 93.9988 43.7842 93.6626C43.8249 93.5343 43.8582 93.4192 43.8666 93.344C43.8686 93.3255 43.8723 93.2852 43.8629 93.24C43.8578 93.2157 43.8183 93.0448 43.6051 93.0148C43.5159 93.0023 43.443 93.0249 43.4044 93.041C43.3654 93.0574 43.3366 93.0773 43.3205 93.0893C43.2885 93.1133 43.2634 93.1388 43.2497 93.1539C43.197 93.2123 43.1295 93.3102 43.0585 93.416C42.9829 93.5286 42.8855 93.6785 42.7704 93.8522C42.3064 94.5529 41.5084 95.7268 40.3389 97.0936C38.4788 99.2674 36.134 101.06 35.3483 101.757C31.2714 104.811 27.5686 107.543 20.2355 108.157C17.7132 108.368 15.7848 108.569 14.3611 108.757C12.9453 108.944 12.0074 109.121 11.4793 109.287C11.3456 109.329 11.2275 109.373 11.1306 109.422C11.0409 109.467 10.9346 109.531 10.8635 109.627Z" stroke="#FB8501" stroke-width="0.612081" stroke-linejoin="round"/>
<path d="M10.8635 109.627C10.8248 109.679 10.7932 109.744 10.7873 109.82C10.7813 109.897 10.8026 109.965 10.8365 110.02C10.8983 110.119 11.0026 110.18 11.0816 110.217C11.2475 110.294 11.4903 110.353 11.7692 110.4C12.0562 110.448 12.4107 110.489 12.8182 110.523C16.0624 110.793 23.0456 110.643 27.9476 109.811C32.9713 108.958 36.8414 109.965 41.312 110.832C45.7815 111.698 50.7867 112.404 57.9741 110.865C67.7654 108.769 79.7662 104.973 90.6309 100.791C101.489 96.6119 111.247 92.0335 116.536 88.3635C126.215 81.648 133.434 77.7962 139.233 70.6265C139.324 70.5132 139.316 70.3629 139.214 70.2669C139.111 70.1709 138.942 70.1553 138.809 70.2297C137.119 71.172 133.184 73.3463 128.268 74.3104C126.555 74.6464 124.924 74.8932 123.546 74.8815C122.45 74.8721 121.552 74.6978 120.897 74.3064C123.085 73.856 127.038 72.7259 131.684 70.4328C134.828 68.8812 137.55 67.7124 139.765 66.515C141.998 65.3081 143.787 64.0393 145.106 62.2437C147.711 58.6972 148.106 55.5191 148.628 52.0417C149.144 48.5958 149.378 45.9505 149.256 44.0488C149.196 43.0979 149.045 42.3177 148.787 41.7107C148.528 41.102 148.153 40.6505 147.633 40.3874C146.591 39.8609 145.145 40.1697 143.369 41.0101C141.566 41.8629 139.296 43.3242 136.506 45.3053C125.355 53.2257 113.467 62.1843 87.4998 77.294C80.6609 81.2734 76.1522 83.3877 69.1366 86.9379C64.8947 89.0846 61.5064 90.7151 58.2998 91.9978C59.1021 91.4074 60.025 90.7099 60.8079 90.0873C61.2738 89.7168 61.7399 89.3795 62.1938 89.0541C62.6456 88.7302 63.0894 88.4154 63.5021 88.0993C64.3281 87.4666 65.0596 86.8036 65.5393 85.9662C65.6069 85.8483 65.5782 85.7089 65.4699 85.627C65.3616 85.5453 65.2002 85.5409 65.0764 85.6162C61.9553 87.515 57.5916 89.9795 54.9662 91.5429C53.9086 92.1727 52.272 92.8655 50.3475 93.6475C48.6924 94.3201 46.8353 95.0537 44.9973 95.8592C45.8856 95.0355 46.8964 94.0331 47.723 93.0608C47.9643 92.7769 48.1349 92.5621 48.2463 92.407C48.3014 92.3301 48.347 92.2619 48.3789 92.203C48.3949 92.1736 48.4109 92.1406 48.4228 92.1067C48.4331 92.0773 48.448 92.0242 48.4423 91.9625C48.4358 91.8917 48.3962 91.7852 48.2683 91.7276C48.1625 91.68 48.06 91.6967 48.0192 91.7056C47.9339 91.7243 47.8577 91.7667 47.8138 91.7925C47.7097 91.8537 47.5791 91.9501 47.4439 92.0565C46.9011 92.4838 46.0562 93.263 45.8151 93.5369C45.7763 93.5809 45.6695 93.6797 45.493 93.8321C45.3229 93.9792 45.1025 94.1641 44.8483 94.3724C44.3398 94.7891 43.7018 95.298 43.0773 95.7921C42.7779 96.029 42.4801 96.2609 42.2028 96.4787C42.2312 96.4357 42.2613 96.3928 42.2901 96.3491C42.596 95.8836 42.9165 95.3771 43.1852 94.9081C43.4511 94.4439 43.6774 93.9988 43.7842 93.6626C43.8249 93.5343 43.8582 93.4192 43.8666 93.344C43.8686 93.3255 43.8723 93.2852 43.8629 93.24C43.8578 93.2157 43.8183 93.0448 43.6051 93.0148C43.5159 93.0023 43.443 93.0249 43.4044 93.041C43.3654 93.0574 43.3366 93.0773 43.3205 93.0893C43.2885 93.1133 43.2634 93.1388 43.2497 93.1539C43.197 93.2123 43.1295 93.3102 43.0585 93.416C42.9829 93.5286 42.8855 93.6785 42.7704 93.8522C42.3064 94.5529 41.5084 95.7268 40.3389 97.0936C38.4788 99.2674 36.134 101.06 35.3483 101.757C31.2714 104.811 27.5686 107.543 20.2355 108.157C17.7132 108.368 15.7848 108.569 14.3611 108.757C12.9453 108.944 12.0074 109.121 11.4793 109.287C11.3456 109.329 11.2275 109.373 11.1306 109.422C11.0409 109.467 10.9346 109.531 10.8635 109.627Z" stroke="#E89130" stroke-width="0.612081" stroke-linejoin="round"/>
<g filter="url(#filter1_ii_394_740)">
<path d="M136.702 45.5234C125.55 53.4434 113.651 62.4107 87.6678 77.5297C80.817 81.5159 76.2949 83.6367 69.2867 87.1832C64.0903 89.8128 60.1593 91.678 56.2679 93.0754C56.7313 92.7988 58.9608 91.1818 60.5979 89.8799C62.4904 88.3748 64.3526 87.416 65.2508 85.8482C62.1336 87.7447 57.7455 90.2236 55.1375 91.7766C52.9663 93.0695 48.4824 94.5879 44.2761 96.4939C43.8641 96.6806 43.3246 97.0629 42.9376 97.2573C43.7614 96.6193 45.933 94.701 47.4663 92.8972C49.3828 90.6426 46.5141 93.196 46.0671 93.7036C45.62 94.2113 40.8429 97.9145 40.8429 97.9145C40.8429 97.9145 43.0823 94.8237 43.4713 93.5994C43.8167 92.5123 42.958 94.4953 40.5944 97.2576C38.7035 99.4674 36.3014 101.302 35.5582 101.965C31.4678 105.029 27.6952 107.818 20.2488 108.441C0.0941744 110.127 18.1651 111.183 27.9037 109.53C38.1128 107.797 43.6768 113.635 57.9143 110.586C77.4477 106.405 105.839 95.4307 116.344 88.1418C126.062 81.3989 133.211 77.5905 138.972 70.4684C137.278 71.4129 133.3 73.6128 128.322 74.589C124.886 75.2629 121.677 75.602 120.185 74.1532C122.127 73.8213 126.402 72.7193 131.538 70.185C137.882 67.054 142.278 65.5793 144.836 62.0978C147.393 58.6163 147.784 55.5035 148.306 52.0192C150.37 38.247 147.853 37.6035 136.702 45.5234Z" stroke="url(#paint1_linear_394_740)" stroke-width="0.524641" stroke-linejoin="round"/>
</g>
</g>
<defs>
<filter id="filter0_d_394_740" x="10.4609" y="39.8413" width="148.152" height="80.2153" filterUnits="userSpaceOnUse" color-interpolation-filters="sRGB">
<feFlood flood-opacity="0" result="BackgroundImageFix"/>
<feColorMatrix in="SourceAlpha" type="matrix" values="0 0 0 0 0 0 0 0 0 0 0 0 0 0 0 0 0 0 127 0" result="hardAlpha"/>
<feOffset dx="5" dy="4"/>
<feGaussianBlur stdDeviation="2"/>
<feComposite in2="hardAlpha" operator="out"/>
<feColorMatrix type="matrix" values="0 0 0 0 0 0 0 0 0 0 0 0 0 0 0 0 0 0 0.25 0"/>
<feBlend mode="normal" in2="BackgroundImageFix" result="effect1_dropShadow_394_740"/>
<feBlend mode="normal" in="SourceGraphic" in2="effect1_dropShadow_394_740" result="shape"/>
</filter>
<filter id="filter1_ii_394_740" x="10.832" y="40.1685" width="138.41" height="71.5605" filterUnits="userSpaceOnUse" color-interpolation-filters="sRGB">
<feFlood flood-opacity="0" result="BackgroundImageFix"/>
<feBlend mode="normal" in="SourceGraphic" in2="BackgroundImageFix" result="shape"/>
<feColorMatrix in="SourceAlpha" type="matrix" values="0 0 0 0 0 0 0 0 0 0 0 0 0 0 0 0 0 0 127 0" result="hardAlpha"/>
<feOffset dx="-0.201369" dy="-0.100684"/>
<feComposite in2="hardAlpha" operator="arithmetic" k2="-1" k3="1"/>
<feColorMatrix type="matrix" values="0 0 0 0 0 0 0 0 0 0 0 0 0 0 0 0 0 0 0.25 0"/>
<feBlend mode="overlay" in2="shape" result="effect1_innerShadow_394_740"/>
<feColorMatrix in="SourceAlpha" type="matrix" values="0 0 0 0 0 0 0 0 0 0 0 0 0 0 0 0 0 0 127 0" result="hardAlpha"/>
<feOffset dx="0.100684" dy="0.201369"/>
<feComposite in2="hardAlpha" operator="arithmetic" k2="-1" k3="1"/>
<feColorMatrix type="matrix" values="0 0 0 0 1 0 0 0 0 1 0 0 0 0 1 0 0 0 0.25 0"/>
<feBlend mode="overlay" in2="effect1_innerShadow_394_740" result="effect2_innerShadow_394_740"/>
</filter>
<linearGradient id="paint0_linear_394_740" x1="226.975" y1="-2.41135" x2="128.626" y2="-72.6236" gradientUnits="userSpaceOnUse">
<stop stop-color="#FB8501"/>
<stop offset="1" stop-color="#FFC65B"/>
</linearGradient>
<linearGradient id="paint1_linear_394_740" x1="226.975" y1="-2.41183" x2="128.626" y2="-72.6241" gradientUnits="userSpaceOnUse">
<stop stop-color="#FB8501"/>
<stop offset="1" stop-color="#FFC65B"/>
</linearGradient>
</defs>
</svg>
