<svg width="323" height="577" viewBox="0 0 323 577" fill="none" xmlns="http://www.w3.org/2000/svg">
<g filter="url(#filter0_d_408_32)">
<path d="M163.168 167.817C157.912 162.028 145.71 152.182 138.954 159.108C130.511 167.766 130.237 166.883 128.809 165.391C127.38 163.898 131.652 158.95 131.463 157.558C131.274 156.165 129.267 154.368 127.691 156.307C126.114 158.245 125.751 164.886 123.97 166.162C122.189 167.439 121.484 172.976 116.982 171.71C113.38 170.696 114.091 165.753 114.897 163.408C115.038 163.606 115.012 163.469 113.773 161.338C112.533 159.207 112.731 157.711 112.985 157.23C112.09 156.942 110.714 155.514 112.366 152.102C113.932 148.868 114.944 148.338 115.311 148.484C114.243 147.881 112.415 145.734 113.25 141.673C114.312 136.509 118.389 137.182 118.468 133.53C118.547 129.879 120.754 129.196 121.636 128.923C122.519 128.65 127.607 113.052 142.045 104.232C153.596 97.1767 160.323 95.8371 162.242 96.0492C162.047 83.6975 169.605 60.4523 201.392 66.2856C233.179 72.1189 224.71 96.0652 216.502 107.309C220.412 110.049 228.045 116.795 227.292 121.864C226.539 126.932 227.328 130.315 227.816 131.373C231.606 130.962 237.634 128.848 244.508 129.836C249.178 130.507 254.339 134.56 259.123 136.436C262.945 137.935 267.206 138.613 270.492 141.14C272.745 142.872 274.173 146.185 276.753 148.874C278.87 151.08 282.779 152.073 285.101 154.754C297.042 166.776 295.165 172.122 302.157 180.184C307.028 185.801 312.52 185.74 319.073 191.876C323.618 196.133 323.943 201.095 328.009 204.345C332.38 207.838 338.895 205.757 343.486 208.26C347.452 210.424 351.084 217.116 354.796 219.027C358.811 221.094 365.181 221.1 368.813 222.911C374.471 225.732 377.148 230.654 381.599 232.979C386.047 235.302 390.707 235.446 393.615 237.427C397.628 240.162 400.015 242.644 400.333 245.075C401.399 253.208 406.62 258.363 384.26 261.896C380.689 262.46 373.74 265.462 368.997 264.926C365.329 264.512 362.32 259.824 358.17 258.846C353.834 257.824 345.086 259.35 340.438 257.804C334.216 255.734 333.195 249.581 326.869 246.769C321.832 244.53 313.617 246.475 308.812 243.893C304.208 241.419 303.657 234.469 299.503 231.782C294.904 228.807 288.347 228.137 284.599 225.029C258.905 203.722 227.764 174.186 201.275 165.94C190.106 162.463 182.461 160.881 170.582 156.093C168.172 145.958 159.335 142.33 157.707 143.393C154.89 145.231 156.883 144.373 158.285 150.468C159.406 155.344 162.008 164.065 163.168 167.817Z" fill="url(#paint0_linear_408_32)"/>
<path d="M419.577 270.554C422.801 264.721 418.148 247.33 408.095 247.51C403.541 247.591 399.733 248.307 397.539 252.468C394.796 257.669 397.228 260.06 390.713 264.01C384.198 267.96 386.997 277.007 381.937 277.847C376.878 278.687 369.99 282.995 365.257 275.513C360.524 268.031 352.68 269.249 346.418 261.514C340.157 253.78 335.318 254.552 329.906 258.161C324.494 261.769 325.713 259.458 319.976 261.233C314.238 263.008 318.861 265.446 306.074 265.534C293.286 265.622 282.667 273.501 278.232 282.611C277.341 284.439 281.513 292.342 277.623 295.615C275.563 297.347 272.37 298.207 271.038 297.652C269.372 296.958 268.307 288.825 267.892 284.359C267.478 279.894 267.136 278.79 263.926 278.574C260.716 278.359 260.648 278.138 262.004 276.268C263.359 274.398 263.643 271.408 260.397 269.511C257.15 267.614 255.789 266.343 256.94 263.81C258.091 261.278 255.948 259.04 253.295 256.717C250.642 254.395 252.171 254.647 254.204 251.842C256.238 249.036 255.246 244.266 247.985 238.775C240.725 233.284 231.316 232.568 228.993 235.221C226.671 237.874 226.744 241.236 228.992 245.377C231.24 249.517 232.276 248.955 232.838 249.99C233.4 251.025 231.891 253.184 232.884 257.955C233.678 261.771 237.795 263.931 239.755 264.533C239.212 264.863 238.107 266.397 238.031 269.903C237.936 274.284 241.472 276.334 245.023 277.653C248.574 278.972 246.877 279.739 246.73 283.17C246.582 286.6 251.983 286.864 254.399 289.985C256.816 293.106 256.374 293.242 259.894 296.022C262.71 298.246 271.753 306.489 276.363 314.864C283.453 327.744 293.538 388.355 306.207 427.736C325.167 486.67 336.07 475.801 360.253 475.814C384.436 475.828 382.113 488.636 417.966 479.478C453.819 470.319 454.023 481.137 489.777 463.063C525.531 444.988 519.874 432.956 512.408 436.959C504.942 440.961 497.76 441.975 476.677 437.133C455.594 432.292 454.911 430.085 439.964 428.665C425.017 427.245 418.105 415.843 402.548 415.579C386.991 415.314 369.373 388.849 360.354 376.89C351.334 364.931 355.69 359.473 359.405 356.631C363.12 353.789 364.654 357.183 370.817 356.002C376.979 354.821 375.898 347.418 381.52 347.613C387.141 347.808 387.909 339.349 391.183 336.644C394.456 333.939 392.171 328.117 396.002 323.305C399.833 318.493 394.852 315.682 396.155 312.861C397.459 310.039 397.911 306.031 405.172 301.366C412.434 296.702 413.486 285.254 413.786 281.534C414.086 277.814 415.546 277.846 419.577 270.554Z" fill="url(#paint1_linear_408_32)"/>
<path d="M116.368 193.176C115.735 179.251 116.285 172.327 116.639 170.606C117.996 169.783 121.206 167.548 123.186 165.195C125.661 162.253 125.326 154.136 130.49 155.198C135.654 156.26 126.732 163.372 129.979 165.269C133.226 167.166 134.84 156.753 144.092 154.616C151.494 152.906 159.756 162.262 162.962 167.154C159.322 159.817 152.968 144.229 156.671 140.569C159.049 138.219 167.262 147.447 171.538 155.796C184.226 156.948 206.719 157.995 226.724 161.45C267.85 168.553 275.022 161.256 301.082 155.612C327.141 149.967 341.433 134.422 346.544 144.689C351.655 154.955 334.763 158.973 309.087 170.544C283.41 182.115 282.831 191.966 278.505 206.119C274.18 220.273 275.561 223.956 280.645 238.825C285.729 253.693 336.016 320.102 348.249 345.574C360.483 371.046 393.527 434.086 399.708 455.627C405.89 477.168 415.278 475.473 419.943 482.734C424.607 489.995 417.273 491.297 412.398 490.388C407.522 489.478 399.426 492.225 394.114 494.594C389.864 496.489 387.622 495.233 387.032 494.367C384.438 497.185 378.509 502.614 375.546 501.79C371.842 500.759 368.665 488.927 369.879 483.474C371.093 478.021 375.275 480.596 382.205 481.111C389.135 481.627 390.663 481.879 392.576 477.902C394.489 473.926 396.459 474.041 387.183 460.47C377.906 446.898 327.657 372.015 324.451 374.941C321.246 377.867 348.806 484.916 353.65 487.287C358.493 489.657 365.801 492.957 365.958 495.81C366.116 498.662 366.698 502.109 359.48 501.441C352.261 500.773 342.331 503.845 329.91 510.59C317.489 517.334 317.043 514.329 312.447 507.288C307.851 500.248 312.018 493.397 316.599 491.012C321.181 488.628 333.448 492.328 335.434 491.713C337.42 491.099 338.13 488.703 335.162 480.675C332.195 472.647 304.166 424.256 285.717 355.25C267.269 286.244 285.825 282.92 266.888 260.006C247.951 237.092 233.15 242.397 218.109 235.203C206.076 229.447 206.678 212.062 208.483 204.088C206.134 204.573 200.615 205.7 197.328 206.33C193.22 207.118 181.156 214.236 177.711 204.663C174.265 195.09 186.712 193.899 196.658 190.096C204.615 187.054 212.779 182.287 215.867 180.284C207.659 176.94 188.877 170.887 179.411 173.429C167.579 176.606 163.47 187.549 154.348 197.142C147.051 204.816 142.397 200.195 140.982 196.925C140.446 198.058 138.834 200.297 136.674 200.192C134.513 200.087 134.513 197.637 134.783 196.425C133.959 197.368 133.612 199.372 130.67 200.803C127.619 202.287 125.637 200.426 124.723 198.775L124.719 198.855C124.575 202.083 124.254 209.281 120.618 212.86C115.243 218.15 117.159 210.582 116.368 193.176Z" fill="#FFC446"/>
<path d="M225.987 227.55C214.731 231.807 210.324 227.722 208.913 223.161C208.261 222.879 207.946 223.944 211.896 230.459C216.531 238.104 222.204 239.462 227.21 240.661C227.537 240.739 227.861 240.816 228.182 240.895C230.05 241.169 235.595 242.173 242.833 243.996C250.07 245.819 254.104 249.363 255.217 250.907C255.67 251.331 257.094 252.599 259.162 254.28C260.586 255.438 262.026 256.885 263.536 258.402L263.536 258.402C264.766 259.638 266.042 260.92 267.394 262.13C269.331 263.865 269.227 264.829 269.107 265.943C269.041 266.56 268.969 267.223 269.237 268.089C269.502 268.943 269.859 269.709 270.195 270.432C270.815 271.763 271.367 272.947 271.149 274.267C270.91 275.713 272.074 278.547 273.337 281.623L273.337 281.623C273.855 282.886 274.39 284.189 274.851 285.453C276.438 289.798 276.238 292.278 275.465 297.595C275.169 299.628 275.255 300.836 275.312 301.643C275.404 302.947 274.023 303.047 273.24 303.983C272.134 305.304 270.843 306.804 270.543 307.477C270.244 308.15 270.984 309.585 271.392 310.219C272.737 312.221 271.675 317.385 268.301 321.331C264.928 325.276 266.23 332.61 272.944 336.336C277.278 338.741 277.391 339.228 277.848 341.198C278.099 342.279 278.454 343.807 279.668 346.345C281.322 349.805 285.453 365.648 289.83 382.431C294.513 400.388 299.476 419.421 301.987 425.518C306.846 437.313 320.42 470.246 323.929 476.898C329.85 488.123 343.051 488.149 350.181 485.943C360.028 482.896 352.991 472.362 349.897 470.176C346.803 467.99 344.948 465.904 351.841 464.738C358.735 463.573 353.597 457.908 348.837 455.029C344.078 452.149 347.708 449.817 350.798 448.861C353.887 447.905 354.762 438.228 347.316 437.607C339.87 436.986 348.609 428.502 349.906 432.695C351.204 436.888 354.792 439.888 361.107 438.418C365.797 437.326 365.547 433.629 365.456 432.284C365.425 431.818 365.412 431.635 365.631 431.94C365.673 431.998 365.731 432.081 365.804 432.184C367.212 434.186 374.17 444.076 376.359 439.26C377.249 437.3 379.494 435.972 382.137 434.407C386.325 431.928 391.515 428.855 393.909 421.741C396.667 413.543 388.817 405.371 381.899 398.169C379.023 395.175 376.308 392.349 374.583 389.758C372.067 385.979 369.344 378.802 366.142 370.366C361.869 359.109 356.745 345.61 350.128 334.942C342.926 323.332 337.595 319.284 334.925 317.256C333.303 316.024 332.663 315.538 333.182 314.555C333.712 313.55 333.235 311.626 332.743 309.639L332.743 309.639C331.961 306.487 331.14 303.175 334.234 303.107C339.277 302.998 339.336 296.935 338.564 292.096C338.173 289.646 339.687 288.342 341.582 286.711C343.429 285.12 345.638 283.217 346.798 279.635C347.876 276.305 347.037 274.842 346.259 273.488C345.343 271.891 344.513 270.445 347.015 266.269C351.639 258.552 340.712 253.712 335.3 257.321C333.015 258.845 330.752 259.327 328.71 259.762C325.917 260.357 323.538 260.863 322.081 263.828C319.558 268.961 304.632 269.952 305.184 264.704C305.737 259.455 299.601 256.034 294.862 255.566C290.123 255.098 286.015 245.73 282.145 235.563C279.852 229.543 281.197 225.958 282.415 222.711C283.254 220.474 282.114 214.051 281.604 211.448C280.355 205.064 277.959 204.355 277.086 210.912C276.61 214.488 270.499 216.68 261.552 218.239C252.604 219.799 240.058 222.23 225.987 227.55Z" fill="url(#paint2_linear_408_32)"/>
<path d="M221.959 189.038C217.336 186.599 215.473 182.662 215.12 180.999L216.664 180.521C217.408 182.144 220.134 186.266 225.085 189.763C231.273 194.135 228.662 196.636 224.438 199.394C220.213 202.151 219.473 204.947 222.514 207.242C227.284 210.844 228.791 209.556 230.121 206.823C231.452 204.09 238.675 203.209 238.623 202.258C238.581 201.498 240.683 198.236 241.739 196.7C242.266 197.101 244.122 197.994 247.329 198.356C251.337 198.808 254.952 197.206 257.789 197.779C260.626 198.352 259.534 194.822 263.742 192.794C267.951 190.767 266.112 187.95 264.294 187.546C262.477 187.141 257.097 189.289 252.999 186.204C248.901 183.12 257.418 177.825 258.553 176.023C259.461 174.582 257.255 167.398 256.038 163.986L258.739 164.118C259.456 166.959 260.849 173.282 260.676 175.85C260.46 179.06 252.873 181.891 254.712 184.707C256.55 187.524 257.412 184.839 264.852 185.439C272.291 186.039 267.536 186.301 268.854 192.905C270.172 199.509 267.577 201.279 259.096 208.255C250.616 215.232 240.496 216.912 232.821 217.11C225.145 217.309 220.601 211.219 218.589 206.281C216.578 201.342 221.942 199.924 225.147 196.998C228.352 194.072 227.738 192.086 221.959 189.038Z" fill="url(#paint3_linear_408_32)"/>
<path d="M201.204 241.831C177.203 206.46 176.832 204.882 177.772 200.481C179.154 194.008 186.622 194.696 189.863 198.916C193.913 204.191 195.67 210.659 214.313 240.435C232.955 270.211 258.04 302.829 259.731 309.076C261.422 315.323 256.147 319.373 249.469 317.328C242.792 315.284 242.934 308.711 236.941 298.718C230.947 288.724 229.678 283.793 201.204 241.831Z" fill="#FFC446"/>
<path d="M81.2099 304.259C89.8334 308.498 91.9 316.721 91.8553 320.302C90.7648 321.997 88.0654 325.08 88.4926 327.143C89.2638 330.868 92.2376 331.043 94.6303 333.506C97.0229 335.969 109.088 348.077 119.601 344.494C130.114 340.911 215.343 326.182 237.841 322.827C260.338 319.473 256.919 318.049 258.557 315.766C260.194 313.482 259.952 308.215 256.323 306.173C252.693 304.132 248.877 305.088 245.687 306.865C242.497 308.643 233.421 310.874 207.431 317.144C181.441 323.415 134.819 333.957 114.067 335.854C108.801 336.335 109.528 321.525 105.857 313.286C102.186 305.046 87.4364 293.163 77.9496 295.706C68.4628 298.25 70.4304 298.96 81.2099 304.259Z" fill="#FFC446"/>
<path d="M120.672 334.983L116.543 335.528C116.74 334.08 117.914 330.539 120.63 328.785C124.024 326.593 128.469 326.976 131.634 336.768C134.799 346.561 127.691 349.501 123.767 349.631C120.627 349.735 118.579 346.395 117.948 344.712L123.106 343.644C123.145 344.264 123.946 345.601 126.008 345.071C128.509 344.427 128.658 339.681 125.527 335.054C123.18 331.583 121.625 333.393 120.672 334.983Z" fill="url(#paint4_linear_408_32)"/>
<path d="M135.119 332.818L131.096 333.672C130.566 331.609 130.676 327.196 135.098 325.509C138.873 324.068 142.937 323.699 146.102 333.492C149.267 343.284 142.159 346.225 138.235 346.355C135.095 346.459 133.047 343.118 132.416 341.435L137.574 340.368C137.613 340.987 138.414 342.325 140.476 341.794C142.978 341.151 143.126 336.404 139.995 331.777C137.648 328.307 135.204 330.028 135.119 332.818Z" fill="url(#paint5_linear_408_32)"/>
<path d="M226.834 259.972L223.343 255.036C222.786 253.261 221.328 250.018 219.952 251.251C218.231 252.793 221.622 256.578 224.823 260.843C228.025 265.108 225.759 264.657 228.806 268.75C231.853 272.843 233.567 274.409 231.857 278.732C230.148 283.055 230.037 279.123 230.47 277.183C230.904 275.244 230.205 273.079 227.014 271.596C223.824 270.112 223.505 266.987 222.243 263.155C220.981 259.323 219.397 261.363 215.615 255.757C211.833 250.152 220.109 242.427 225.83 248.466C230.407 253.297 228.406 258.149 226.834 259.972Z" fill="url(#paint6_linear_408_32)"/>
<path d="M210.381 246.801C212.612 244.306 207.079 242.845 204.362 243.199C203.762 243.277 202.868 243.608 202.868 243.608C203.046 243.345 203.485 242.496 203.817 241.206C204.233 239.593 204.15 238.116 198.512 233.554C192.873 228.992 192.386 231.909 189.354 236.487C186.929 240.149 189.35 243.52 190.864 244.749C190.852 244.966 190.216 245.825 187.767 247.523C184.706 249.645 182.197 250.653 184.972 253.749C187.192 256.227 189.304 256.277 190.083 255.993C190.281 257.367 191.311 261.654 193.852 267.814C196.34 273.845 199.594 273.916 200.998 273.166C200.663 273.429 200.547 274.519 202.329 277.275C204.26 280.26 206.565 279.58 207.477 278.867C208.356 279.733 210.949 281.772 214.284 283.002C218.452 284.54 222.729 284.12 225.664 284.281C228.6 284.442 224.04 281.084 222.273 280.496C220.506 279.908 221.456 277.507 219.108 275.579C216.76 273.65 214.416 277.611 215.247 274.385C215.912 271.805 214.367 268.557 213.512 267.256C215.572 267.478 219.675 267.627 219.609 266.446C219.526 264.969 213.881 263.514 213.206 257.915C212.687 253.606 208.923 250.289 206.898 249.026C207.401 249.18 208.525 248.876 210.381 246.801Z" fill="url(#paint7_linear_408_32)"/>
</g>
<defs>
<filter id="filter0_d_408_32" x="69.9238" y="59.4331" width="459.975" height="462.868" filterUnits="userSpaceOnUse" color-interpolation-filters="sRGB">
<feFlood flood-opacity="0" result="BackgroundImageFix"/>
<feColorMatrix in="SourceAlpha" type="matrix" values="0 0 0 0 0 0 0 0 0 0 0 0 0 0 0 0 0 0 127 0" result="hardAlpha"/>
<feOffset dx="5" dy="1"/>
<feGaussianBlur stdDeviation="3.46484"/>
<feComposite in2="hardAlpha" operator="out"/>
<feColorMatrix type="matrix" values="0 0 0 0 0 0 0 0 0 0 0 0 0 0 0 0 0 0 0.46 0"/>
<feBlend mode="normal" in2="BackgroundImageFix" result="effect1_dropShadow_408_32"/>
<feBlend mode="normal" in="SourceGraphic" in2="effect1_dropShadow_408_32" result="shape"/>
</filter>
<linearGradient id="paint0_linear_408_32" x1="140.473" y1="135.656" x2="331.91" y2="450.915" gradientUnits="userSpaceOnUse">
<stop stop-color="#0C1A35"/>
<stop offset="1" stop-color="#035A7A"/>
</linearGradient>
<linearGradient id="paint1_linear_408_32" x1="273.746" y1="288.415" x2="529.433" y2="637.465" gradientUnits="userSpaceOnUse">
<stop stop-color="#0C1A35"/>
<stop offset="1" stop-color="#035A7A"/>
</linearGradient>
<linearGradient id="paint2_linear_408_32" x1="243.297" y1="278.936" x2="531.796" y2="533.46" gradientUnits="userSpaceOnUse">
<stop stop-color="#0C1A35"/>
<stop offset="1" stop-color="#035A7A"/>
</linearGradient>
<linearGradient id="paint3_linear_408_32" x1="219.999" y1="185.558" x2="253.836" y2="245.717" gradientUnits="userSpaceOnUse">
<stop stop-color="#0C1A35"/>
<stop offset="1" stop-color="#035A7A"/>
</linearGradient>
<linearGradient id="paint4_linear_408_32" x1="121.162" y1="330.81" x2="115.851" y2="361.011" gradientUnits="userSpaceOnUse">
<stop stop-color="#0C1A35"/>
<stop offset="1" stop-color="#035A7A"/>
</linearGradient>
<linearGradient id="paint5_linear_408_32" x1="135.065" y1="327.425" x2="129.438" y2="357.379" gradientUnits="userSpaceOnUse">
<stop stop-color="#0C1A35"/>
<stop offset="1" stop-color="#035A7A"/>
</linearGradient>
<linearGradient id="paint6_linear_408_32" x1="207.848" y1="236.194" x2="236.663" y2="319.105" gradientUnits="userSpaceOnUse">
<stop stop-color="#0C1A35"/>
<stop offset="1" stop-color="#035A7A"/>
</linearGradient>
<linearGradient id="paint7_linear_408_32" x1="207.848" y1="236.194" x2="236.663" y2="319.105" gradientUnits="userSpaceOnUse">
<stop stop-color="#0C1A35"/>
<stop offset="1" stop-color="#035A7A"/>
</linearGradient>
</defs>
</svg>
