<svg width="473" height="718" viewBox="0 0 473 718" fill="none" xmlns="http://www.w3.org/2000/svg">
<g filter="url(#filter0_d_426_3)">
<path fill-rule="evenodd" clip-rule="evenodd" d="M341.514 579.538H269.377V527.186V470.844H323.345H341.832L341.514 579.538Z" fill="url(#paint0_linear_426_3)"/>
<path fill-rule="evenodd" clip-rule="evenodd" d="M269.369 470.843V527.186L210.382 476.842L212.389 389.868L273.874 446.357H323.336V470.843H269.369Z" fill="url(#paint1_linear_426_3)"/>
<path fill-rule="evenodd" clip-rule="evenodd" d="M210.386 477.699V583.626H170.914L171.012 469.325H210.41L210.386 477.699Z" fill="url(#paint2_linear_426_3)"/>
<path fill-rule="evenodd" clip-rule="evenodd" d="M79.1197 381.347L80.8828 469.326L53.9726 517.319V572.682V585.292L48.3406 585.268L48.0713 464.477L48.0223 443.689L79.1197 381.347Z" fill="url(#paint3_linear_426_3)"/>
<path fill-rule="evenodd" clip-rule="evenodd" d="M79.1133 381.347L48.0159 443.689L25.6845 442.562L57.7124 381.225L79.1133 381.347Z" fill="url(#paint4_linear_426_3)"/>
<path fill-rule="evenodd" clip-rule="evenodd" d="M15.5491 462.298L16.0387 462.323L20.8626 462.665L21.4012 442.342L48.0176 443.689L21.4012 442.342L48.0176 443.689L48.0666 464.477L48.3359 585.267L16.6999 585.194L15.5491 462.298Z" fill="url(#paint5_linear_426_3)"/>
<path fill-rule="evenodd" clip-rule="evenodd" d="M15.5484 462.297L16.6992 585.193L-13.8594 585.095L-13.5166 461.955L2.98704 461.465L15.5484 462.297Z" fill="url(#paint6_linear_426_3)"/>
<path fill-rule="evenodd" clip-rule="evenodd" d="M80.8764 469.325L82.7617 607.868L53.9661 605.419V517.318L80.8764 469.325Z" fill="url(#paint7_linear_426_3)"/>
<path fill-rule="evenodd" clip-rule="evenodd" d="M69.9821 193.072L97.2597 176.911L105.242 184.061L105.193 195.276L104.899 253.7L104.238 392.463L105.193 468.835L80.8785 469.325L86.1185 469.202L84.6493 324.048L91.3584 306.516V181.196H90.0362L69.9821 193.072Z" fill="url(#paint8_linear_426_3)"/>
<path fill-rule="evenodd" clip-rule="evenodd" d="M54.214 387.909L54.6302 323.755L84.6502 324.049L86.1195 469.203L80.8794 469.301L79.1163 381.322L57.6909 381.2L54.214 387.909ZM62.5148 306.517L62.2943 206.246L62.2698 198.215L69.983 193.073L90.0372 181.197H91.3594V306.517H62.5148Z" fill="url(#paint9_linear_426_3)"/>
<path fill-rule="evenodd" clip-rule="evenodd" d="M132.25 209.527L104.972 237.466L105.193 195.276L113.518 189.718L132.25 209.527Z" fill="url(#paint10_linear_426_3)"/>
<path fill-rule="evenodd" clip-rule="evenodd" d="M203.962 206.662L186.43 177.94L224.922 147.455L241.793 177.23L203.962 206.662Z" fill="url(#paint11_linear_426_3)"/>
<path fill-rule="evenodd" clip-rule="evenodd" d="M224.93 147.455L186.438 177.94L165.453 155.192L173.068 149.536L181.149 143.537L193.514 159.551L207.887 149.536L195.571 132.812L202.525 127.646L224.93 147.455Z" fill="url(#paint12_linear_426_3)"/>
<path fill-rule="evenodd" clip-rule="evenodd" d="M207.887 149.537L193.489 160.384L171.745 125.345L186.168 114.595L207.887 149.537Z" fill="url(#paint13_linear_426_3)"/>
<path fill-rule="evenodd" clip-rule="evenodd" d="M175.859 138.125L153.038 154.017L139.791 131.685L129.458 126.396L145.521 114.325L165.698 129.849L169.077 127.327L175.859 138.125Z" fill="url(#paint14_linear_426_3)"/>
<path fill-rule="evenodd" clip-rule="evenodd" d="M171.746 125.343L165.698 129.849L146.574 97.6004L184.307 69.123L201.938 102.84L186.168 114.594L171.746 125.343Z" fill="url(#paint15_linear_426_3)"/>
<path fill-rule="evenodd" clip-rule="evenodd" d="M184.309 69.1224L146.575 97.5997L124.636 76.0519L132.814 70.1998L147.286 59.8666L162.32 49.1172L184.309 69.1224Z" fill="url(#paint16_linear_426_3)"/>
<path fill-rule="evenodd" clip-rule="evenodd" d="M124.636 76.0522L146.575 97.6L165.699 129.848L145.523 114.324L149.832 111.092L144.078 101.591L134.088 95.1025L131.59 96.9144L124.636 76.0522Z" fill="url(#paint17_linear_426_3)"/>
<path fill-rule="evenodd" clip-rule="evenodd" d="M131.586 96.9145L134.084 95.1025L144.074 101.591L149.828 111.092L144.441 115.157L125.538 129.31L99.0929 149.168L91.0125 136.851L86.3601 129.75L131.586 96.9145Z" fill="url(#paint18_linear_426_3)"/>
<path fill-rule="evenodd" clip-rule="evenodd" d="M71.3042 114.447L91.0156 136.852L51.1766 165.917L32.6896 142.435L43.6349 134.501L56.7594 124.976L71.3042 114.447Z" fill="url(#paint19_linear_426_3)"/>
<path fill-rule="evenodd" clip-rule="evenodd" d="M91.0178 136.853L99.0982 149.169L110.852 167.068L71.8697 195.325L51.1789 165.918L91.0178 136.853Z" fill="url(#paint20_linear_426_3)"/>
<path fill-rule="evenodd" clip-rule="evenodd" d="M46.3525 114.252L32.9342 123.826L41.9205 132.788L26.2005 143.807L5.70559 114.448L42.2634 87.7578L51.1764 100.295L62.9297 118.072L54.7269 124.095L46.3525 114.252Z" fill="url(#paint21_linear_426_3)"/>
<path fill-rule="evenodd" clip-rule="evenodd" d="M32.9352 123.826L46.3535 114.252L55.9766 125.565L42.4113 135.408L32.9352 123.826Z" fill="url(#paint22_linear_426_3)"/>
<path fill-rule="evenodd" clip-rule="evenodd" d="M157.417 136.166L168.02 128.379L181.145 143.536L170.15 151.69L157.417 136.166Z" fill="url(#paint23_linear_426_3)"/>
<path fill-rule="evenodd" clip-rule="evenodd" d="M42.2617 87.7575L5.70393 114.447L-11.2894 92.4589L24.1909 65.9648L39.0786 83.301L42.2617 87.7575Z" fill="url(#paint24_linear_426_3)"/>
<path fill-rule="evenodd" clip-rule="evenodd" d="M51.175 100.293L39.0789 83.3L85.529 50.3417L87.4635 49.0439L95.5684 54.8717L99.9023 63.4663L96.352 66.0863L51.175 100.293Z" fill="url(#paint25_linear_426_3)"/>
<path fill-rule="evenodd" clip-rule="evenodd" d="M96.3497 66.0877L99.1901 63.9819L99.9001 63.4677L95.5662 54.873L87.4613 49.0453L85.5267 50.3431L76.6628 29.9951L96.4966 50.8818L113.906 80.9753L96.3497 66.0877Z" fill="url(#paint26_linear_426_3)"/>
<path fill-rule="evenodd" clip-rule="evenodd" d="M133.645 23.9959L96.4991 50.8817L76.6652 29.995L114.643 3.99072L133.645 23.9959Z" fill="url(#paint27_linear_426_3)"/>
<path fill-rule="evenodd" clip-rule="evenodd" d="M96.4982 50.8819L133.644 23.9961L151.543 54.7017L145.348 59.6235L137.855 51.0043L124.78 59.8438L124.29 63.9575L129.285 70.5197L113.908 80.9754L96.4982 50.8819Z" fill="url(#paint28_linear_426_3)"/>
<path fill-rule="evenodd" clip-rule="evenodd" d="M146.23 60.627L132.812 70.2011L131.514 69.0257L124.291 63.9571L124.781 59.8434L137.856 51.0039L146.23 60.627Z" fill="url(#paint29_linear_426_3)"/>
<path fill-rule="evenodd" clip-rule="evenodd" d="M59.3818 180.535L69.9844 193.072L62.2712 198.214V205.34L50.2486 188.248L59.3818 180.535Z" fill="url(#paint30_linear_426_3)"/>
<path fill-rule="evenodd" clip-rule="evenodd" d="M59.3789 180.536L50.2456 188.249L31.2689 167.999L42.2631 160.262L59.3789 180.536Z" fill="url(#paint31_linear_426_3)"/>
<path fill-rule="evenodd" clip-rule="evenodd" d="M31.2662 167.999L50.243 188.249L62.2656 205.34V206.246L42.2605 185.996L31.2662 167.999Z" fill="url(#paint32_linear_426_3)"/>
<path fill-rule="evenodd" clip-rule="evenodd" d="M59.3792 180.536L42.2634 160.261L32.6894 142.436L51.1764 165.918L71.8672 195.326L69.9817 193.073L59.3792 180.536Z" fill="url(#paint33_linear_426_3)"/>
<path fill-rule="evenodd" clip-rule="evenodd" d="M174.389 174.365L176.348 173.018L183.473 181.221L189.203 191.187L187.807 192.093L182.641 187.979L185.824 193.244L171.059 203.038L141.308 222.651L134.868 213.371L128.771 205.829L174.389 174.365Z" fill="url(#paint34_linear_426_3)"/>
<path fill-rule="evenodd" clip-rule="evenodd" d="M174.394 174.364L165.456 155.191L186.441 177.939L203.973 206.661L187.812 192.092L189.208 191.186L183.478 181.22L176.352 173.017L174.394 174.364Z" fill="url(#paint35_linear_426_3)"/>
<path fill-rule="evenodd" clip-rule="evenodd" d="M134.868 213.371L183.473 181.221L189.203 191.187L172.871 201.862L141.235 222.725L134.868 213.371Z" fill="url(#paint36_linear_426_3)"/>
<path fill-rule="evenodd" clip-rule="evenodd" d="M153.723 241.139L116.234 269.861L104.897 252.794L105.02 231.736L132.248 209.527L153.723 241.139Z" fill="url(#paint37_linear_426_3)"/>
<path fill-rule="evenodd" clip-rule="evenodd" d="M144.074 101.592L92.7267 139.423L91.0128 136.852L85.3564 130.412L134.623 92.8013L144.074 101.592Z" fill="url(#paint38_linear_426_3)"/>
<path fill-rule="evenodd" clip-rule="evenodd" d="M92.7264 139.423L144.074 101.592L149.828 111.092L144.441 115.157L129.456 126.396L99.0929 149.168L92.7264 139.423Z" fill="url(#paint39_linear_426_3)"/>
<path fill-rule="evenodd" clip-rule="evenodd" d="M89.7181 59.0843L44.6392 91.1122L39.0808 83.3011L85.5309 50.3428L88.2 48.188L95.5703 54.8727L89.7181 59.0843Z" fill="url(#paint40_linear_426_3)"/>
<path fill-rule="evenodd" clip-rule="evenodd" d="M269.372 579.537H341.508L341.336 639.259H269.372V579.537Z" fill="url(#paint41_linear_426_3)"/>
<path fill-rule="evenodd" clip-rule="evenodd" d="M16.6991 585.194L43.2422 585.292V658.481L17.2134 663.06L16.6991 585.194Z" fill="url(#paint42_linear_426_3)"/>
<path fill-rule="evenodd" clip-rule="evenodd" d="M43.2438 639.699V585.291H53.9688V640.507L43.2438 639.699Z" fill="url(#paint43_linear_426_3)"/>
<path fill-rule="evenodd" clip-rule="evenodd" d="M16.6967 585.218L17.2109 663.06L-14.0089 656.987L-13.862 585.096L16.6967 585.218Z" fill="url(#paint44_linear_426_3)"/>
<path fill-rule="evenodd" clip-rule="evenodd" d="M2.98106 461.465V443.542L21.3945 442.342L20.8559 462.665L2.98106 461.465Z" fill="url(#paint45_linear_426_3)"/>
<path fill-rule="evenodd" clip-rule="evenodd" d="M62.5148 306.517H91.3594L84.6502 324.049L54.6302 323.755L62.5148 306.517Z" fill="url(#paint46_linear_426_3)"/>
<path fill-rule="evenodd" clip-rule="evenodd" d="M94.5928 576.328L192.488 575.006V557.939H94.5928V576.328Z" fill="url(#paint47_linear_426_3)"/>
<path fill-rule="evenodd" clip-rule="evenodd" d="M94.5891 602.31L256.418 598.171V578.436L94.5891 581.374V602.31Z" fill="url(#paint48_linear_426_3)"/>
<path fill-rule="evenodd" clip-rule="evenodd" d="M94.589 631.252L295.914 625.375V603.166L94.589 608.528V631.252Z" fill="url(#paint49_linear_426_3)"/>
<path fill-rule="evenodd" clip-rule="evenodd" d="M94.5866 631.252L53.9642 626.355V605.419L94.6602 609.778L94.5866 631.252Z" fill="url(#paint50_linear_426_3)"/>
<path fill-rule="evenodd" clip-rule="evenodd" d="M84.0633 666.488L374.738 657.452V633.946L84.0633 637.251V666.488Z" fill="url(#paint51_linear_426_3)"/>
<path fill-rule="evenodd" clip-rule="evenodd" d="M84.0625 666.488L43.2442 655.69V636.076L84.0625 637.643V666.488Z" fill="url(#paint52_linear_426_3)"/>
<path fill-rule="evenodd" clip-rule="evenodd" d="M73.1625 713.99L453.555 690.851V666.218L73.1625 679.391V713.99Z" fill="url(#paint53_linear_426_3)"/>
<path fill-rule="evenodd" clip-rule="evenodd" d="M73.1641 713.991L14.4218 688.133L-14.0556 680.885L-13.982 663.035L17.2133 663.06L73.1641 679.882V713.991Z" fill="url(#paint54_linear_426_3)"/>
<path fill-rule="evenodd" clip-rule="evenodd" d="M94.5927 564.06L197.141 562.542V557.939H94.5927V564.06Z" fill="url(#paint55_linear_426_3)"/>
<path fill-rule="evenodd" clip-rule="evenodd" d="M94.5874 586.173L262.293 583.896V578.436L94.5874 581.374V586.173Z" fill="url(#paint56_linear_426_3)"/>
<path fill-rule="evenodd" clip-rule="evenodd" d="M90.7926 615.556L303.234 609.973V603.166L90.9151 608.553L90.7926 615.556Z" fill="url(#paint57_linear_426_3)"/>
<path fill-rule="evenodd" clip-rule="evenodd" d="M90.7917 615.555L53.9646 611.491V605.418L90.9141 608.552L90.7917 615.555Z" fill="url(#paint58_linear_426_3)"/>
<path fill-rule="evenodd" clip-rule="evenodd" d="M81.8089 649.715L381.984 640.753V633.946L81.9313 642.296L81.8089 649.715Z" fill="url(#paint59_linear_426_3)"/>
<path fill-rule="evenodd" clip-rule="evenodd" d="M81.8073 649.715L42.0173 642.736V636.125L81.9297 642.296L81.8073 649.715Z" fill="url(#paint60_linear_426_3)"/>
<path fill-rule="evenodd" clip-rule="evenodd" d="M69.5185 688.55L461.027 672.928V666.146L69.7389 679.637L69.5185 688.55Z" fill="url(#paint61_linear_426_3)"/>
<path fill-rule="evenodd" clip-rule="evenodd" d="M69.5139 688.549L16.5259 669.891L-13.9837 663.035L-14.0082 656.987L17.2116 663.059L69.7344 679.636L69.5139 688.549Z" fill="url(#paint62_linear_426_3)"/>
<path fill-rule="evenodd" clip-rule="evenodd" d="M461.027 666.145L69.739 679.636L84.0633 666.487L374.738 657.452V655.199L461.027 666.145Z" fill="url(#paint63_linear_426_3)"/>
<path fill-rule="evenodd" clip-rule="evenodd" d="M17.2154 663.059L69.7382 679.636L84.0625 666.487L43.2442 655.689L17.2154 663.059Z" fill="url(#paint64_linear_426_3)"/>
<path fill-rule="evenodd" clip-rule="evenodd" d="M81.9313 642.295L94.5906 631.252L295.916 625.375V624.518L381.984 633.945L81.9313 642.295Z" fill="url(#paint65_linear_426_3)"/>
<path fill-rule="evenodd" clip-rule="evenodd" d="M81.9266 642.294L94.5859 631.251L61.6032 627.284L53.9635 626.354V632.744L42.0143 636.123L81.9266 642.294Z" fill="url(#paint66_linear_426_3)"/>
<path fill-rule="evenodd" clip-rule="evenodd" d="M94.6855 581.373L262.293 578.435L192.483 575.007L94.5874 576.329L94.6855 581.373Z" fill="url(#paint67_linear_426_3)"/>
<path fill-rule="evenodd" clip-rule="evenodd" d="M82.7677 607.868L80.8824 469.473L105.197 468.836L106.25 581.399V603.093L82.7677 607.868Z" fill="url(#paint68_linear_426_3)"/>
<path fill-rule="evenodd" clip-rule="evenodd" d="M303.234 603.167L90.915 608.554L82.7611 607.868L106.243 603.093V602.016L256.417 598.172V597.266L303.234 603.167Z" fill="url(#paint69_linear_426_3)"/>
<path fill-rule="evenodd" clip-rule="evenodd" d="M133.102 69.9805L130.408 71.9884L124.287 63.9569L124.776 59.8433L133.102 69.9805Z" fill="url(#paint70_linear_426_3)"/>
<path fill-rule="evenodd" clip-rule="evenodd" d="M42.4102 135.408L40.3778 136.853L35.4072 130.805L32.934 123.826L42.4102 135.408Z" fill="url(#paint71_linear_426_3)"/>
<path fill-rule="evenodd" clip-rule="evenodd" d="M170.156 151.692L168.418 152.99L160.435 143.415L157.424 136.167L170.156 151.692Z" fill="url(#paint72_linear_426_3)"/>
<path fill-rule="evenodd" clip-rule="evenodd" d="M194.125 160.481L185.604 153.649L169.076 127.327L171.745 125.343L194.125 160.481Z" fill="url(#paint73_linear_426_3)"/>
<path fill-rule="evenodd" clip-rule="evenodd" d="M5.70433 114.447L26.1992 143.806L3.67194 115.892L-11.2891 92.459L5.70433 114.447Z" fill="url(#paint74_linear_426_3)"/>
<path fill-rule="evenodd" clip-rule="evenodd" d="M104.905 252.794L116.242 269.861L104.905 254.875V252.794Z" fill="url(#paint75_linear_426_3)"/>
<path fill-rule="evenodd" clip-rule="evenodd" d="M210.411 469.325H171.013L171.405 189.497L183.476 181.221L195.622 194.713L195.426 306.149L211.929 320.277L212.395 389.867L210.387 476.842L210.411 469.325Z" fill="url(#paint76_linear_426_3)"/>
<path fill-rule="evenodd" clip-rule="evenodd" d="M105.091 217.141L105.164 198.777L112.828 210.138L105.091 217.141Z" fill="url(#paint77_linear_426_3)"/>
<path fill-rule="evenodd" clip-rule="evenodd" d="M131.271 125.024L139.792 131.685L153.039 154.016L137.197 138.443L129.459 126.396L131.271 125.024Z" fill="url(#paint78_linear_426_3)"/>
<path fill-rule="evenodd" clip-rule="evenodd" d="M131.27 125.025L145.521 114.325L154.066 120.887L139.791 131.685L131.27 125.025Z" fill="url(#paint79_linear_426_3)"/>
<path fill-rule="evenodd" clip-rule="evenodd" d="M139.008 134.013L105.437 158.817L101.152 152.941L132.666 128.969L139.008 134.013Z" fill="url(#paint80_linear_426_3)"/>
<path fill-rule="evenodd" clip-rule="evenodd" d="M105.438 158.816L139.008 134.011L142.559 139.912L139.204 142.434L129.924 149.413L109.282 164.668L105.438 158.816Z" fill="url(#paint81_linear_426_3)"/>
</g>
<defs>
<filter id="filter0_d_426_3" x="-112.98" y="-0.00927734" width="585.008" height="718" filterUnits="userSpaceOnUse" color-interpolation-filters="sRGB">
<feFlood flood-opacity="0" result="BackgroundImageFix"/>
<feColorMatrix in="SourceAlpha" type="matrix" values="0 0 0 0 0 0 0 0 0 0 0 0 0 0 0 0 0 0 127 0" result="hardAlpha"/>
<feOffset dx="7"/>
<feGaussianBlur stdDeviation="2"/>
<feComposite in2="hardAlpha" operator="out"/>
<feColorMatrix type="matrix" values="0 0 0 0 0 0 0 0 0 0 0 0 0 0 0 0 0 0 0.25 0"/>
<feBlend mode="normal" in2="BackgroundImageFix" result="effect1_dropShadow_426_3"/>
<feBlend mode="normal" in="SourceGraphic" in2="effect1_dropShadow_426_3" result="shape"/>
</filter>
<linearGradient id="paint0_linear_426_3" x1="267.895" y1="630.669" x2="250.902" y2="472.092" gradientUnits="userSpaceOnUse">
<stop offset="0.00971538" stop-color="#A01326"/>
<stop offset="1" stop-color="#D17341"/>
</linearGradient>
<linearGradient id="paint1_linear_426_3" x1="208.07" y1="591.782" x2="190.605" y2="390.661" gradientUnits="userSpaceOnUse">
<stop offset="0.00971538" stop-color="#A01326"/>
<stop offset="1" stop-color="#D17341"/>
</linearGradient>
<linearGradient id="paint2_linear_426_3" x1="170.106" y1="637.395" x2="136.667" y2="475.636" gradientUnits="userSpaceOnUse">
<stop offset="0.00971538" stop-color="#A01326"/>
<stop offset="1" stop-color="#D17341"/>
</linearGradient>
<linearGradient id="paint3_linear_426_3" x1="47.3499" y1="681.23" x2="-64.1568" y2="429.707" gradientUnits="userSpaceOnUse">
<stop offset="0.00971538" stop-color="#A01326"/>
<stop offset="1" stop-color="#D17341"/>
</linearGradient>
<linearGradient id="paint4_linear_426_3" x1="24.5912" y1="473.073" x2="16.9468" y2="381.534" gradientUnits="userSpaceOnUse">
<stop offset="0.00971538" stop-color="#A01326"/>
<stop offset="1" stop-color="#D17341"/>
</linearGradient>
<linearGradient id="paint5_linear_426_3" x1="14.8782" y1="652.501" x2="-44.9912" y2="460.231" gradientUnits="userSpaceOnUse">
<stop offset="0.00971538" stop-color="#A01326"/>
<stop offset="1" stop-color="#D17341"/>
</linearGradient>
<linearGradient id="paint6_linear_426_3" x1="-14.4847" y1="643.397" x2="-63.2144" y2="474.906" gradientUnits="userSpaceOnUse">
<stop offset="0.00971538" stop-color="#A01326"/>
<stop offset="1" stop-color="#D17341"/>
</linearGradient>
<linearGradient id="paint7_linear_426_3" x1="53.3769" y1="673.04" x2="-9.46238" y2="490.191" gradientUnits="userSpaceOnUse">
<stop offset="0.00971538" stop-color="#A01326"/>
<stop offset="1" stop-color="#D17341"/>
</linearGradient>
<linearGradient id="paint8_linear_426_3" x1="69.2606" y1="606.879" x2="-119.957" y2="287.458" gradientUnits="userSpaceOnUse">
<stop offset="0.00971538" stop-color="#A01326"/>
<stop offset="1" stop-color="#D17341"/>
</linearGradient>
<linearGradient id="paint9_linear_426_3" x1="53.4539" y1="604.828" x2="-126.77" y2="279.527" gradientUnits="userSpaceOnUse">
<stop offset="0.00971538" stop-color="#A01326"/>
<stop offset="1" stop-color="#D17341"/>
</linearGradient>
<linearGradient id="paint10_linear_426_3" x1="104.414" y1="259.927" x2="95.7398" y2="190.551" gradientUnits="userSpaceOnUse">
<stop offset="0.00971538" stop-color="#A01326"/>
<stop offset="1" stop-color="#D17341"/>
</linearGradient>
<linearGradient id="paint11_linear_426_3" x1="185.297" y1="234.514" x2="178.661" y2="147.65" gradientUnits="userSpaceOnUse">
<stop offset="0.00971538" stop-color="#A01326"/>
<stop offset="1" stop-color="#D17341"/>
</linearGradient>
<linearGradient id="paint12_linear_426_3" x1="164.236" y1="201.599" x2="159.769" y2="127.65" gradientUnits="userSpaceOnUse">
<stop offset="0.00971538" stop-color="#A01326"/>
<stop offset="1" stop-color="#D17341"/>
</linearGradient>
<linearGradient id="paint13_linear_426_3" x1="171.006" y1="181.924" x2="164.94" y2="114.903" gradientUnits="userSpaceOnUse">
<stop offset="0.00971538" stop-color="#A01326"/>
<stop offset="1" stop-color="#D17341"/>
</linearGradient>
<linearGradient id="paint14_linear_426_3" x1="128.509" y1="172.688" x2="124.943" y2="114.334" gradientUnits="userSpaceOnUse">
<stop offset="0.00971538" stop-color="#A01326"/>
<stop offset="1" stop-color="#D17341"/>
</linearGradient>
<linearGradient id="paint15_linear_426_3" x1="145.441" y1="158.415" x2="138.463" y2="69.3499" gradientUnits="userSpaceOnUse">
<stop offset="0.00971538" stop-color="#A01326"/>
<stop offset="1" stop-color="#D17341"/>
</linearGradient>
<linearGradient id="paint16_linear_426_3" x1="123.415" y1="120.406" x2="119.277" y2="49.102" gradientUnits="userSpaceOnUse">
<stop offset="0.00971538" stop-color="#A01326"/>
<stop offset="1" stop-color="#D17341"/>
</linearGradient>
<linearGradient id="paint17_linear_426_3" x1="123.796" y1="155.155" x2="116.431" y2="76.458" gradientUnits="userSpaceOnUse">
<stop offset="0.00971538" stop-color="#A01326"/>
<stop offset="1" stop-color="#D17341"/>
</linearGradient>
<linearGradient id="paint18_linear_426_3" x1="85.0614" y1="174.601" x2="80.2246" y2="95.1121" gradientUnits="userSpaceOnUse">
<stop offset="0.00971538" stop-color="#A01326"/>
<stop offset="1" stop-color="#D17341"/>
</linearGradient>
<linearGradient id="paint19_linear_426_3" x1="31.4961" y1="190.129" x2="26.7274" y2="114.477" gradientUnits="userSpaceOnUse">
<stop offset="0.00971538" stop-color="#A01326"/>
<stop offset="1" stop-color="#D17341"/>
</linearGradient>
<linearGradient id="paint20_linear_426_3" x1="49.9578" y1="222.832" x2="43.9476" y2="136.965" gradientUnits="userSpaceOnUse">
<stop offset="0.00971538" stop-color="#A01326"/>
<stop offset="1" stop-color="#D17341"/>
</linearGradient>
<linearGradient id="paint21_linear_426_3" x1="4.53463" y1="170.173" x2="-1.22386" y2="87.8655" gradientUnits="userSpaceOnUse">
<stop offset="0.00971538" stop-color="#A01326"/>
<stop offset="1" stop-color="#D17341"/>
</linearGradient>
<linearGradient id="paint22_linear_426_3" x1="32.4637" y1="145.36" x2="30.4249" y2="114.274" gradientUnits="userSpaceOnUse">
<stop offset="0.00971538" stop-color="#A01326"/>
<stop offset="1" stop-color="#D17341"/>
</linearGradient>
<linearGradient id="paint23_linear_426_3" x1="156.932" y1="162.656" x2="154.53" y2="128.425" gradientUnits="userSpaceOnUse">
<stop offset="0.00971538" stop-color="#A01326"/>
<stop offset="1" stop-color="#D17341"/>
</linearGradient>
<linearGradient id="paint24_linear_426_3" x1="-12.3853" y1="137.254" x2="-16.9927" y2="66.0074" gradientUnits="userSpaceOnUse">
<stop offset="0.00971538" stop-color="#A01326"/>
<stop offset="1" stop-color="#D17341"/>
</linearGradient>
<linearGradient id="paint25_linear_426_3" x1="37.8342" y1="124.402" x2="33.2989" y2="49.047" gradientUnits="userSpaceOnUse">
<stop offset="0.00971538" stop-color="#A01326"/>
<stop offset="1" stop-color="#D17341"/>
</linearGradient>
<linearGradient id="paint26_linear_426_3" x1="75.9007" y1="104.957" x2="68.6146" y2="30.439" gradientUnits="userSpaceOnUse">
<stop offset="0.00971538" stop-color="#A01326"/>
<stop offset="1" stop-color="#D17341"/>
</linearGradient>
<linearGradient id="paint27_linear_426_3" x1="75.4993" y1="72.9397" x2="71.4457" y2="3.98202" gradientUnits="userSpaceOnUse">
<stop offset="0.00971538" stop-color="#A01326"/>
<stop offset="1" stop-color="#D17341"/>
</linearGradient>
<linearGradient id="paint28_linear_426_3" x1="95.3718" y1="107.779" x2="89.1884" y2="24.1532" gradientUnits="userSpaceOnUse">
<stop offset="0.00971538" stop-color="#A01326"/>
<stop offset="1" stop-color="#D17341"/>
</linearGradient>
<linearGradient id="paint29_linear_426_3" x1="123.842" y1="79.2317" x2="122.078" y2="51.013" gradientUnits="userSpaceOnUse">
<stop offset="0.00971538" stop-color="#A01326"/>
<stop offset="1" stop-color="#D17341"/>
</linearGradient>
<linearGradient id="paint30_linear_426_3" x1="49.8447" y1="217.008" x2="46.5849" y2="180.697" gradientUnits="userSpaceOnUse">
<stop offset="0.00971538" stop-color="#A01326"/>
<stop offset="1" stop-color="#D17341"/>
</linearGradient>
<linearGradient id="paint31_linear_426_3" x1="30.6937" y1="201.415" x2="27.7712" y2="160.322" gradientUnits="userSpaceOnUse">
<stop offset="0.00971538" stop-color="#A01326"/>
<stop offset="1" stop-color="#D17341"/>
</linearGradient>
<linearGradient id="paint32_linear_426_3" x1="30.6319" y1="224.238" x2="25.696" y2="168.233" gradientUnits="userSpaceOnUse">
<stop offset="0.00971538" stop-color="#A01326"/>
<stop offset="1" stop-color="#D17341"/>
</linearGradient>
<linearGradient id="paint33_linear_426_3" x1="31.8877" y1="220.206" x2="24.4307" y2="142.876" gradientUnits="userSpaceOnUse">
<stop offset="0.00971538" stop-color="#A01326"/>
<stop offset="1" stop-color="#D17341"/>
</linearGradient>
<linearGradient id="paint34_linear_426_3" x1="127.535" y1="246" x2="123.253" y2="173.008" gradientUnits="userSpaceOnUse">
<stop offset="0.00971538" stop-color="#A01326"/>
<stop offset="1" stop-color="#D17341"/>
</linearGradient>
<linearGradient id="paint35_linear_426_3" x1="164.668" y1="230.873" x2="157.483" y2="155.606" gradientUnits="userSpaceOnUse">
<stop offset="0.00971538" stop-color="#A01326"/>
<stop offset="1" stop-color="#D17341"/>
</linearGradient>
<linearGradient id="paint36_linear_426_3" x1="133.757" y1="242.249" x2="130.425" y2="181.184" gradientUnits="userSpaceOnUse">
<stop offset="0.00971538" stop-color="#A01326"/>
<stop offset="1" stop-color="#D17341"/>
</linearGradient>
<linearGradient id="paint37_linear_426_3" x1="103.898" y1="298.243" x2="96.1002" y2="209.898" gradientUnits="userSpaceOnUse">
<stop offset="0.00971538" stop-color="#A01326"/>
<stop offset="1" stop-color="#D17341"/>
</linearGradient>
<linearGradient id="paint38_linear_426_3" x1="84.1548" y1="161.354" x2="80.2654" y2="92.7763" gradientUnits="userSpaceOnUse">
<stop offset="0.00971538" stop-color="#A01326"/>
<stop offset="1" stop-color="#D17341"/>
</linearGradient>
<linearGradient id="paint39_linear_426_3" x1="91.558" y1="171.549" x2="87.3943" y2="101.589" gradientUnits="userSpaceOnUse">
<stop offset="0.00971538" stop-color="#A01326"/>
<stop offset="1" stop-color="#D17341"/>
</linearGradient>
<linearGradient id="paint40_linear_426_3" x1="37.9248" y1="111.304" x2="34.4969" y2="48.148" gradientUnits="userSpaceOnUse">
<stop offset="0.00971538" stop-color="#A01326"/>
<stop offset="1" stop-color="#D17341"/>
</linearGradient>
<linearGradient id="paint41_linear_426_3" x1="267.895" y1="667.352" x2="262.702" y2="579.53" gradientUnits="userSpaceOnUse">
<stop offset="0.00971538" stop-color="#A01326"/>
<stop offset="1" stop-color="#D17341"/>
</linearGradient>
<linearGradient id="paint42_linear_426_3" x1="16.156" y1="699.689" x2="-6.90913" y2="589.617" gradientUnits="userSpaceOnUse">
<stop offset="0.00971538" stop-color="#A01326"/>
<stop offset="1" stop-color="#D17341"/>
</linearGradient>
<linearGradient id="paint43_linear_426_3" x1="43.0243" y1="666.482" x2="16.6291" y2="594.707" gradientUnits="userSpaceOnUse">
<stop offset="0.00971538" stop-color="#A01326"/>
<stop offset="1" stop-color="#D17341"/>
</linearGradient>
<linearGradient id="paint44_linear_426_3" x1="-14.6477" y1="699.735" x2="-34.5374" y2="588.233" gradientUnits="userSpaceOnUse">
<stop offset="0.00971538" stop-color="#A01326"/>
<stop offset="1" stop-color="#D17341"/>
</linearGradient>
<linearGradient id="paint45_linear_426_3" x1="2.60427" y1="472.226" x2="0.254399" y2="442.42" gradientUnits="userSpaceOnUse">
<stop offset="0.00971538" stop-color="#A01326"/>
<stop offset="1" stop-color="#D17341"/>
</linearGradient>
<linearGradient id="paint46_linear_426_3" x1="53.8786" y1="332.296" x2="52.9975" y2="306.455" gradientUnits="userSpaceOnUse">
<stop offset="0.00971538" stop-color="#A01326"/>
<stop offset="1" stop-color="#D17341"/>
</linearGradient>
<linearGradient id="paint47_linear_426_3" x1="92.5895" y1="584.979" x2="92.2255" y2="557.847" gradientUnits="userSpaceOnUse">
<stop offset="0.00971538" stop-color="#A01326"/>
<stop offset="1" stop-color="#D17341"/>
</linearGradient>
<linearGradient id="paint48_linear_426_3" x1="91.2776" y1="613.54" x2="90.9064" y2="578.314" gradientUnits="userSpaceOnUse">
<stop offset="0.00971538" stop-color="#A01326"/>
<stop offset="1" stop-color="#D17341"/>
</linearGradient>
<linearGradient id="paint49_linear_426_3" x1="90.4693" y1="644.464" x2="90.0563" y2="603.022" gradientUnits="userSpaceOnUse">
<stop offset="0.00971538" stop-color="#A01326"/>
<stop offset="1" stop-color="#D17341"/>
</linearGradient>
<linearGradient id="paint50_linear_426_3" x1="53.1315" y1="643.405" x2="51.4065" y2="605.362" gradientUnits="userSpaceOnUse">
<stop offset="0.00971538" stop-color="#A01326"/>
<stop offset="1" stop-color="#D17341"/>
</linearGradient>
<linearGradient id="paint51_linear_426_3" x1="78.1152" y1="681.796" x2="77.7312" y2="633.777" gradientUnits="userSpaceOnUse">
<stop offset="0.00971538" stop-color="#A01326"/>
<stop offset="1" stop-color="#D17341"/>
</linearGradient>
<linearGradient id="paint52_linear_426_3" x1="42.4089" y1="680.794" x2="40.0273" y2="636.043" gradientUnits="userSpaceOnUse">
<stop offset="0.00971538" stop-color="#A01326"/>
<stop offset="1" stop-color="#D17341"/>
</linearGradient>
<linearGradient id="paint53_linear_426_3" x1="65.3786" y1="736.463" x2="64.7462" y2="665.972" gradientUnits="userSpaceOnUse">
<stop offset="0.00971538" stop-color="#A01326"/>
<stop offset="1" stop-color="#D17341"/>
</linearGradient>
<linearGradient id="paint54_linear_426_3" x1="-15.8403" y1="737.961" x2="-18.9728" y2="662.897" gradientUnits="userSpaceOnUse">
<stop offset="0.00971538" stop-color="#A01326"/>
<stop offset="1" stop-color="#D17341"/>
</linearGradient>
<linearGradient id="paint55_linear_426_3" x1="92.4943" y1="566.94" x2="92.4557" y2="557.907" gradientUnits="userSpaceOnUse">
<stop offset="0.00971538" stop-color="#A01326"/>
<stop offset="1" stop-color="#D17341"/>
</linearGradient>
<linearGradient id="paint56_linear_426_3" x1="91.1557" y1="589.813" x2="91.1181" y2="578.395" gradientUnits="userSpaceOnUse">
<stop offset="0.00971538" stop-color="#A01326"/>
<stop offset="1" stop-color="#D17341"/>
</linearGradient>
<linearGradient id="paint57_linear_426_3" x1="86.4455" y1="621.384" x2="86.3693" y2="603.101" gradientUnits="userSpaceOnUse">
<stop offset="0.00971538" stop-color="#A01326"/>
<stop offset="1" stop-color="#D17341"/>
</linearGradient>
<linearGradient id="paint58_linear_426_3" x1="53.2085" y1="620.324" x2="52.9154" y2="605.37" gradientUnits="userSpaceOnUse">
<stop offset="0.00971538" stop-color="#A01326"/>
<stop offset="1" stop-color="#D17341"/>
</linearGradient>
<linearGradient id="paint59_linear_426_3" x1="75.6665" y1="657.133" x2="75.5791" y2="633.863" gradientUnits="userSpaceOnUse">
<stop offset="0.00971538" stop-color="#A01326"/>
<stop offset="1" stop-color="#D17341"/>
</linearGradient>
<linearGradient id="paint60_linear_426_3" x1="41.2006" y1="656.108" x2="40.7131" y2="636.065" gradientUnits="userSpaceOnUse">
<stop offset="0.00971538" stop-color="#A01326"/>
<stop offset="1" stop-color="#D17341"/>
</linearGradient>
<linearGradient id="paint61_linear_426_3" x1="61.5071" y1="699.09" x2="61.3719" y2="666.028" gradientUnits="userSpaceOnUse">
<stop offset="0.00971538" stop-color="#A01326"/>
<stop offset="1" stop-color="#D17341"/>
</linearGradient>
<linearGradient id="paint62_linear_426_3" x1="-15.7218" y1="703.397" x2="-16.9749" y2="656.854" gradientUnits="userSpaceOnUse">
<stop offset="0.00971538" stop-color="#A01326"/>
<stop offset="1" stop-color="#D17341"/>
</linearGradient>
<linearGradient id="paint63_linear_426_3" x1="61.7321" y1="691.132" x2="61.5712" y2="655.071" gradientUnits="userSpaceOnUse">
<stop offset="0.00971538" stop-color="#A01326"/>
<stop offset="1" stop-color="#D17341"/>
</linearGradient>
<linearGradient id="paint64_linear_426_3" x1="15.8475" y1="690.902" x2="14.9438" y2="655.586" gradientUnits="userSpaceOnUse">
<stop offset="0.00971538" stop-color="#A01326"/>
<stop offset="1" stop-color="#D17341"/>
</linearGradient>
<linearGradient id="paint65_linear_426_3" x1="75.7914" y1="650.658" x2="75.6804" y2="624.425" gradientUnits="userSpaceOnUse">
<stop offset="0.00971538" stop-color="#A01326"/>
<stop offset="1" stop-color="#D17341"/>
</linearGradient>
<linearGradient id="paint66_linear_426_3" x1="40.9385" y1="649.793" x2="40.4293" y2="626.281" gradientUnits="userSpaceOnUse">
<stop offset="0.00971538" stop-color="#A01326"/>
<stop offset="1" stop-color="#D17341"/>
</linearGradient>
<linearGradient id="paint67_linear_426_3" x1="91.1557" y1="584.368" x2="91.1302" y2="574.973" gradientUnits="userSpaceOnUse">
<stop offset="0.00971538" stop-color="#A01326"/>
<stop offset="1" stop-color="#D17341"/>
</linearGradient>
<linearGradient id="paint68_linear_426_3" x1="80.3633" y1="673.271" x2="10.717" y2="495.369" gradientUnits="userSpaceOnUse">
<stop offset="0.00971538" stop-color="#A01326"/>
<stop offset="1" stop-color="#D17341"/>
</linearGradient>
<linearGradient id="paint69_linear_426_3" x1="78.2496" y1="613.864" x2="78.1886" y2="597.206" gradientUnits="userSpaceOnUse">
<stop offset="0.00971538" stop-color="#A01326"/>
<stop offset="1" stop-color="#D17341"/>
</linearGradient>
<linearGradient id="paint70_linear_426_3" x1="124.106" y1="77.7016" x2="122.359" y2="59.9512" gradientUnits="userSpaceOnUse">
<stop offset="0.00971538" stop-color="#A01326"/>
<stop offset="1" stop-color="#D17341"/>
</linearGradient>
<linearGradient id="paint71_linear_426_3" x1="32.7401" y1="142.981" x2="30.8706" y2="123.941" gradientUnits="userSpaceOnUse">
<stop offset="0.00971538" stop-color="#A01326"/>
<stop offset="1" stop-color="#D17341"/>
</linearGradient>
<linearGradient id="paint72_linear_426_3" x1="157.163" y1="160.903" x2="154.841" y2="136.298" gradientUnits="userSpaceOnUse">
<stop offset="0.00971538" stop-color="#A01326"/>
<stop offset="1" stop-color="#D17341"/>
</linearGradient>
<linearGradient id="paint73_linear_426_3" x1="168.563" y1="177.01" x2="163.419" y2="125.674" gradientUnits="userSpaceOnUse">
<stop offset="0.00971538" stop-color="#A01326"/>
<stop offset="1" stop-color="#D17341"/>
</linearGradient>
<linearGradient id="paint74_linear_426_3" x1="-12.0562" y1="167.961" x2="-19.3993" y2="92.907" gradientUnits="userSpaceOnUse">
<stop offset="0.00971538" stop-color="#A01326"/>
<stop offset="1" stop-color="#D17341"/>
</linearGradient>
<linearGradient id="paint75_linear_426_3" x1="104.673" y1="277.889" x2="101.996" y2="252.992" gradientUnits="userSpaceOnUse">
<stop offset="0.00971538" stop-color="#A01326"/>
<stop offset="1" stop-color="#D17341"/>
</linearGradient>
<linearGradient id="paint76_linear_426_3" x1="170.166" y1="615.906" x2="-6.45167" y2="269.789" gradientUnits="userSpaceOnUse">
<stop offset="0.00971538" stop-color="#A01326"/>
<stop offset="1" stop-color="#D17341"/>
</linearGradient>
<linearGradient id="paint77_linear_426_3" x1="104.932" y1="225.78" x2="100.466" y2="199.437" gradientUnits="userSpaceOnUse">
<stop offset="0.00971538" stop-color="#A01326"/>
<stop offset="1" stop-color="#D17341"/>
</linearGradient>
<linearGradient id="paint78_linear_426_3" x1="128.976" y1="167.654" x2="125.248" y2="125.199" gradientUnits="userSpaceOnUse">
<stop offset="0.00971538" stop-color="#A01326"/>
<stop offset="1" stop-color="#D17341"/>
</linearGradient>
<linearGradient id="paint79_linear_426_3" x1="130.803" y1="139.852" x2="129.414" y2="114.309" gradientUnits="userSpaceOnUse">
<stop offset="0.00971538" stop-color="#A01326"/>
<stop offset="1" stop-color="#D17341"/>
</linearGradient>
<linearGradient id="paint80_linear_426_3" x1="100.378" y1="172.858" x2="97.9046" y2="128.951" gradientUnits="userSpaceOnUse">
<stop offset="0.00971538" stop-color="#A01326"/>
<stop offset="1" stop-color="#D17341"/>
</linearGradient>
<linearGradient id="paint81_linear_426_3" x1="104.678" y1="179.089" x2="102.018" y2="134.007" gradientUnits="userSpaceOnUse">
<stop offset="0.00971538" stop-color="#A01326"/>
<stop offset="1" stop-color="#D17341"/>
</linearGradient>
</defs>
</svg>
