<svg width="186" height="174" viewBox="0 0 186 174" fill="none" xmlns="http://www.w3.org/2000/svg">
<g filter="url(#filter0_d_394_737)">
<path d="M173.955 122.02C173.998 122.078 174.032 122.15 174.039 122.234C174.046 122.319 174.021 122.394 173.984 122.454C173.916 122.564 173.801 122.631 173.714 122.672C173.531 122.757 173.263 122.822 172.955 122.874C172.638 122.927 172.247 122.972 171.797 123.01C168.216 123.309 160.506 123.143 155.095 122.225C149.549 121.283 145.277 122.394 140.342 123.351C135.408 124.307 129.882 125.086 121.948 123.387C111.139 121.073 97.8911 116.883 85.8973 112.266C73.9114 107.653 63.1392 102.599 57.3003 98.5474C46.6159 91.1338 38.6462 86.8815 32.2445 78.9665C32.1436 78.8415 32.152 78.6764 32.2649 78.5704C32.3779 78.4646 32.5644 78.447 32.7115 78.5288C34.5762 79.569 38.9207 81.9694 44.3475 83.0338C46.2392 83.4048 48.0396 83.6774 49.5618 83.6644C50.7717 83.654 51.7634 83.4622 52.4874 83.0299C50.0724 82.5328 45.7076 81.2858 40.577 78.7539C37.1061 77.041 34.1025 75.7498 31.6567 74.4281C29.1913 73.0957 27.2171 71.6959 25.761 69.7138C22.8849 65.7984 22.4484 62.2896 21.8731 58.4507C21.3029 54.6466 21.0449 51.7265 21.1793 49.6273C21.2466 48.5776 21.4122 47.7163 21.697 47.0462C21.9826 46.3743 22.3965 45.8753 22.9708 45.5849C24.1206 45.0036 25.7175 45.3451 27.6787 46.2728C29.6687 47.2142 32.1743 48.8269 35.2535 51.0138C47.5644 59.7573 60.6878 69.6473 89.3544 86.3275C96.9039 90.7203 101.88 93.0543 109.625 96.9734C114.308 99.3431 118.048 101.144 121.588 102.56C120.702 101.908 119.684 101.138 118.82 100.451C118.305 100.041 117.791 99.6685 117.29 99.3093C116.791 98.9517 116.3 98.6048 115.845 98.2558C114.933 97.5574 114.126 96.8248 113.597 95.9005C113.522 95.7703 113.553 95.6169 113.673 95.5266C113.792 95.4362 113.971 95.4315 114.108 95.5147C117.553 97.6108 122.37 100.331 125.268 102.057C126.436 102.752 128.242 103.517 130.367 104.38C132.194 105.123 134.244 105.933 136.273 106.823C135.292 105.913 134.177 104.807 133.265 103.733C132.998 103.42 132.81 103.183 132.687 103.012C132.625 102.927 132.576 102.85 132.54 102.785C132.523 102.753 132.505 102.717 132.492 102.68C132.481 102.648 132.463 102.588 132.469 102.52C132.477 102.442 132.522 102.325 132.663 102.261C132.779 102.209 132.892 102.227 132.937 102.237C133.031 102.258 133.116 102.305 133.164 102.333C133.279 102.401 133.423 102.507 133.573 102.624C134.172 103.096 135.105 103.956 135.371 104.258C135.414 104.307 135.53 104.416 135.725 104.584C135.913 104.747 136.157 104.95 136.438 105.181C136.999 105.641 137.703 106.202 138.392 106.748C138.723 107.01 139.053 107.266 139.359 107.507C139.328 107.459 139.294 107.412 139.262 107.363C138.925 106.849 138.571 106.29 138.274 105.772C137.981 105.26 137.731 104.769 137.613 104.398C137.568 104.256 137.53 104.129 137.521 104.046C137.518 104.025 137.514 103.98 137.524 103.93C137.53 103.903 137.575 103.715 137.811 103.682C137.909 103.668 137.99 103.694 138.032 103.712C138.076 103.73 138.107 103.752 138.125 103.765C138.16 103.791 138.187 103.819 138.202 103.836C138.26 103.901 138.335 104.008 138.413 104.125C138.497 104.249 138.605 104.414 138.732 104.606C139.244 105.379 140.124 106.676 141.415 108.185C143.47 110.587 146.061 112.567 146.927 113.335C151.426 116.705 155.514 119.721 163.608 120.398C166.393 120.63 168.521 120.853 170.093 121.061C171.656 121.267 172.692 121.462 173.275 121.645C173.422 121.691 173.552 121.74 173.659 121.794C173.758 121.843 173.876 121.915 173.955 122.02Z" fill="url(#paint0_linear_394_737)"/>
<path d="M173.955 122.02C173.998 122.078 174.032 122.15 174.039 122.234C174.046 122.319 174.021 122.394 173.984 122.454C173.916 122.564 173.801 122.631 173.714 122.672C173.531 122.757 173.263 122.822 172.955 122.874C172.638 122.927 172.247 122.972 171.797 123.01C168.216 123.309 160.506 123.143 155.095 122.225C149.549 121.283 145.277 122.394 140.342 123.351C135.408 124.307 129.882 125.086 121.948 123.387C111.139 121.073 97.8911 116.883 85.8973 112.266C73.9114 107.653 63.1392 102.599 57.3003 98.5474C46.6159 91.1338 38.6462 86.8815 32.2445 78.9665C32.1436 78.8415 32.152 78.6764 32.2649 78.5704C32.3779 78.4646 32.5644 78.447 32.7115 78.5288C34.5762 79.569 38.9207 81.9694 44.3475 83.0338C46.2392 83.4048 48.0396 83.6774 49.5618 83.6644C50.7717 83.654 51.7634 83.4622 52.4874 83.0299C50.0724 82.5328 45.7076 81.2858 40.577 78.7539C37.1061 77.041 34.1025 75.7498 31.6567 74.4281C29.1913 73.0957 27.2171 71.6959 25.761 69.7138C22.8849 65.7984 22.4484 62.2896 21.8731 58.4507C21.3029 54.6466 21.0449 51.7265 21.1793 49.6273C21.2466 48.5776 21.4122 47.7163 21.697 47.0462C21.9826 46.3743 22.3965 45.8753 22.9708 45.5849C24.1206 45.0036 25.7175 45.3451 27.6787 46.2728C29.6687 47.2142 32.1743 48.8269 35.2535 51.0138C47.5644 59.7573 60.6878 69.6473 89.3544 86.3275C96.9039 90.7203 101.88 93.0543 109.625 96.9734C114.308 99.3431 118.048 101.144 121.588 102.56C120.702 101.908 119.684 101.138 118.82 100.451C118.305 100.041 117.791 99.6685 117.29 99.3093C116.791 98.9517 116.3 98.6048 115.845 98.2558C114.933 97.5574 114.126 96.8248 113.597 95.9005C113.522 95.7703 113.553 95.6169 113.673 95.5266C113.792 95.4362 113.971 95.4315 114.108 95.5147C117.553 97.6108 122.37 100.331 125.268 102.057C126.436 102.752 128.242 103.517 130.367 104.38C132.194 105.123 134.244 105.933 136.273 106.823C135.292 105.913 134.177 104.807 133.265 103.733C132.998 103.42 132.81 103.183 132.687 103.012C132.625 102.927 132.576 102.85 132.54 102.785C132.523 102.753 132.505 102.717 132.492 102.68C132.481 102.648 132.463 102.588 132.469 102.52C132.477 102.442 132.522 102.325 132.663 102.261C132.779 102.209 132.892 102.227 132.937 102.237C133.031 102.258 133.116 102.305 133.164 102.333C133.279 102.401 133.423 102.507 133.573 102.624C134.172 103.096 135.105 103.956 135.371 104.258C135.414 104.307 135.53 104.416 135.725 104.584C135.913 104.747 136.157 104.95 136.438 105.181C136.999 105.641 137.703 106.202 138.392 106.748C138.723 107.01 139.053 107.266 139.359 107.507C139.328 107.459 139.294 107.412 139.262 107.363C138.925 106.849 138.571 106.29 138.274 105.772C137.981 105.26 137.731 104.769 137.613 104.398C137.568 104.256 137.53 104.129 137.521 104.046C137.518 104.025 137.514 103.98 137.524 103.93C137.53 103.903 137.575 103.715 137.811 103.682C137.909 103.668 137.99 103.694 138.032 103.712C138.076 103.73 138.107 103.752 138.125 103.765C138.16 103.791 138.187 103.819 138.202 103.836C138.26 103.901 138.335 104.008 138.413 104.125C138.497 104.249 138.605 104.414 138.732 104.606C139.244 105.379 140.124 106.676 141.415 108.185C143.47 110.587 146.061 112.567 146.927 113.335C151.426 116.705 155.514 119.721 163.608 120.398C166.393 120.63 168.521 120.853 170.093 121.061C171.656 121.267 172.692 121.462 173.275 121.645C173.422 121.691 173.552 121.74 173.659 121.794C173.758 121.843 173.876 121.915 173.955 122.02Z" stroke="#FB8501" stroke-width="0.675692" stroke-linejoin="round"/>
<path d="M173.955 122.02C173.998 122.078 174.032 122.15 174.039 122.234C174.046 122.319 174.021 122.394 173.984 122.454C173.916 122.564 173.801 122.631 173.714 122.672C173.531 122.757 173.263 122.822 172.955 122.874C172.638 122.927 172.247 122.972 171.797 123.01C168.216 123.309 160.506 123.143 155.095 122.225C149.549 121.283 145.277 122.394 140.342 123.351C135.408 124.307 129.882 125.086 121.948 123.387C111.139 121.073 97.8911 116.883 85.8973 112.266C73.9114 107.653 63.1392 102.599 57.3003 98.5474C46.6159 91.1338 38.6462 86.8815 32.2445 78.9665C32.1436 78.8415 32.152 78.6764 32.2649 78.5704C32.3779 78.4646 32.5644 78.447 32.7115 78.5288C34.5762 79.569 38.9207 81.9694 44.3475 83.0338C46.2392 83.4048 48.0396 83.6774 49.5618 83.6644C50.7717 83.654 51.7634 83.4622 52.4874 83.0299C50.0724 82.5328 45.7076 81.2858 40.577 78.7539C37.1061 77.041 34.1025 75.7498 31.6567 74.4281C29.1913 73.0957 27.2171 71.6959 25.761 69.7138C22.8849 65.7984 22.4484 62.2896 21.8731 58.4507C21.3029 54.6466 21.0449 51.7265 21.1793 49.6273C21.2466 48.5776 21.4122 47.7163 21.697 47.0462C21.9826 46.3743 22.3965 45.8753 22.9708 45.5849C24.1206 45.0036 25.7175 45.3451 27.6787 46.2728C29.6687 47.2142 32.1743 48.8269 35.2535 51.0138C47.5644 59.7573 60.6878 69.6473 89.3544 86.3275C96.9039 90.7203 101.88 93.0543 109.625 96.9734C114.308 99.3431 118.048 101.144 121.588 102.56C120.702 101.908 119.684 101.138 118.82 100.451C118.305 100.041 117.791 99.6685 117.29 99.3093C116.791 98.9517 116.3 98.6048 115.845 98.2558C114.933 97.5574 114.126 96.8248 113.597 95.9005C113.522 95.7703 113.553 95.6169 113.673 95.5266C113.792 95.4362 113.971 95.4315 114.108 95.5147C117.553 97.6108 122.37 100.331 125.268 102.057C126.436 102.752 128.242 103.517 130.367 104.38C132.194 105.123 134.244 105.933 136.273 106.823C135.292 105.913 134.177 104.807 133.265 103.733C132.998 103.42 132.81 103.183 132.687 103.012C132.625 102.927 132.576 102.85 132.54 102.785C132.523 102.753 132.505 102.717 132.492 102.68C132.481 102.648 132.463 102.588 132.469 102.52C132.477 102.442 132.522 102.325 132.663 102.261C132.779 102.209 132.892 102.227 132.937 102.237C133.031 102.258 133.116 102.305 133.164 102.333C133.279 102.401 133.423 102.507 133.573 102.624C134.172 103.096 135.105 103.956 135.371 104.258C135.414 104.307 135.53 104.416 135.725 104.584C135.913 104.747 136.157 104.95 136.438 105.181C136.999 105.641 137.703 106.202 138.392 106.748C138.723 107.01 139.053 107.266 139.359 107.507C139.328 107.459 139.294 107.412 139.262 107.363C138.925 106.849 138.571 106.29 138.274 105.772C137.981 105.26 137.731 104.769 137.613 104.398C137.568 104.256 137.53 104.129 137.521 104.046C137.518 104.025 137.514 103.98 137.524 103.93C137.53 103.903 137.575 103.715 137.811 103.682C137.909 103.668 137.99 103.694 138.032 103.712C138.076 103.73 138.107 103.752 138.125 103.765C138.16 103.791 138.187 103.819 138.202 103.836C138.26 103.901 138.335 104.008 138.413 104.125C138.497 104.249 138.605 104.414 138.732 104.606C139.244 105.379 140.124 106.676 141.415 108.185C143.47 110.587 146.061 112.567 146.927 113.335C151.426 116.705 155.514 119.721 163.608 120.398C166.393 120.63 168.521 120.853 170.093 121.061C171.656 121.267 172.692 121.462 173.275 121.645C173.422 121.691 173.552 121.74 173.659 121.794C173.758 121.843 173.876 121.915 173.955 122.02Z" stroke="#E89130" stroke-width="0.675692" stroke-linejoin="round"/>
<g filter="url(#filter1_ii_394_737)">
<path d="M35.0383 51.2547C47.3486 59.9977 60.4844 69.897 89.1682 86.5872C96.7309 90.9878 101.723 93.329 109.46 97.2441C115.196 100.147 119.535 102.206 123.831 103.749C123.32 103.443 120.859 101.658 119.051 100.221C116.962 98.5595 114.906 97.501 113.915 95.7703C117.356 97.8639 122.2 100.6 125.079 102.315C127.476 103.742 132.426 105.418 137.069 107.522C137.524 107.728 138.12 108.15 138.547 108.365C137.638 107.661 135.24 105.543 133.548 103.552C131.432 101.063 134.599 103.882 135.092 104.442C135.586 105.003 140.859 109.091 140.859 109.091C140.859 109.091 138.387 105.679 137.958 104.327C137.577 103.127 138.524 105.316 141.134 108.365C143.221 110.805 145.873 112.83 146.693 113.563C151.209 116.945 155.374 120.024 163.594 120.711C185.843 122.572 165.894 123.738 155.143 121.913C143.873 120 137.731 126.444 122.014 123.08C100.45 118.463 69.1083 106.349 57.512 98.3023C46.7842 90.8586 38.8915 86.6543 32.5325 78.7921C34.4018 79.8348 38.7935 82.2633 44.2885 83.341C48.0816 84.0849 51.6239 84.4592 53.2717 82.8598C51.1272 82.4934 46.408 81.277 40.7388 78.4792C33.7348 75.0228 28.8822 73.3949 26.059 69.5516C23.2358 65.7083 22.8046 62.272 22.2281 58.4256C19.9493 43.222 22.728 42.5116 35.0383 51.2547Z" stroke="url(#paint1_linear_394_737)" stroke-width="0.579165" stroke-linejoin="round"/>
</g>
</g>
<defs>
<filter id="filter0_d_394_737" x="20.7852" y="44.9829" width="162.613" height="87.7197" filterUnits="userSpaceOnUse" color-interpolation-filters="sRGB">
<feFlood flood-opacity="0" result="BackgroundImageFix"/>
<feColorMatrix in="SourceAlpha" type="matrix" values="0 0 0 0 0 0 0 0 0 0 0 0 0 0 0 0 0 0 127 0" result="hardAlpha"/>
<feOffset dx="5" dy="4"/>
<feGaussianBlur stdDeviation="2"/>
<feComposite in2="hardAlpha" operator="out"/>
<feColorMatrix type="matrix" values="0 0 0 0 0 0 0 0 0 0 0 0 0 0 0 0 0 0 0.25 0"/>
<feBlend mode="normal" in2="BackgroundImageFix" result="effect1_dropShadow_394_737"/>
<feBlend mode="normal" in="SourceGraphic" in2="effect1_dropShadow_394_737" result="shape"/>
</filter>
<filter id="filter1_ii_394_737" x="21.1953" y="45.3433" width="152.793" height="78.9976" filterUnits="userSpaceOnUse" color-interpolation-filters="sRGB">
<feFlood flood-opacity="0" result="BackgroundImageFix"/>
<feBlend mode="normal" in="SourceGraphic" in2="BackgroundImageFix" result="shape"/>
<feColorMatrix in="SourceAlpha" type="matrix" values="0 0 0 0 0 0 0 0 0 0 0 0 0 0 0 0 0 0 127 0" result="hardAlpha"/>
<feOffset dx="-0.222297" dy="-0.111148"/>
<feComposite in2="hardAlpha" operator="arithmetic" k2="-1" k3="1"/>
<feColorMatrix type="matrix" values="0 0 0 0 0 0 0 0 0 0 0 0 0 0 0 0 0 0 0.25 0"/>
<feBlend mode="overlay" in2="shape" result="effect1_innerShadow_394_737"/>
<feColorMatrix in="SourceAlpha" type="matrix" values="0 0 0 0 0 0 0 0 0 0 0 0 0 0 0 0 0 0 127 0" result="hardAlpha"/>
<feOffset dx="0.111148" dy="0.222297"/>
<feComposite in2="hardAlpha" operator="arithmetic" k2="-1" k3="1"/>
<feColorMatrix type="matrix" values="0 0 0 0 1 0 0 0 0 1 0 0 0 0 1 0 0 0 0.25 0"/>
<feBlend mode="overlay" in2="effect1_innerShadow_394_737" result="effect2_innerShadow_394_737"/>
</filter>
<linearGradient id="paint0_linear_394_737" x1="-64.6169" y1="-1.66138" x2="43.9534" y2="-79.1706" gradientUnits="userSpaceOnUse">
<stop stop-color="#FB8501"/>
<stop offset="1" stop-color="#FFC65B"/>
</linearGradient>
<linearGradient id="paint1_linear_394_737" x1="-64.6169" y1="-1.66236" x2="43.9534" y2="-79.1715" gradientUnits="userSpaceOnUse">
<stop stop-color="#FB8501"/>
<stop offset="1" stop-color="#FFC65B"/>
</linearGradient>
</defs>
</svg>
