<svg width="96" height="89" viewBox="0 0 96 89" fill="none" xmlns="http://www.w3.org/2000/svg">
<g filter="url(#filter0_d_510_39189)">
<path d="M6.18695 62.4239C6.16494 62.4534 6.14713 62.4906 6.14371 62.5338C6.1403 62.5775 6.15196 62.6166 6.17133 62.6479C6.20652 62.7046 6.26575 62.7392 6.31069 62.7603C6.40504 62.8044 6.54325 62.8372 6.7018 62.8639C6.86519 62.8914 7.06744 62.9142 7.29949 62.9336C9.1466 63.0876 13.1227 63.0028 15.9138 62.5291C18.7741 62.0436 20.978 62.6163 23.5234 63.1096C26.068 63.6027 28.9176 64.0048 33.0096 63.1289C38.5843 61.9354 45.4175 59.774 51.6035 57.393C57.7855 55.0134 63.3422 52.4066 66.3537 50.317C71.8642 46.4934 75.9748 44.3005 79.2765 40.2182C79.3287 40.1537 79.3237 40.0682 79.2653 40.0136C79.2069 39.9589 79.111 39.9499 79.0351 39.9922C78.0733 40.5287 75.8323 41.7669 73.0333 42.3159C72.0578 42.5072 71.1292 42.6475 70.3443 42.6408C69.7205 42.6354 69.211 42.5345 68.8376 42.3117C70.0837 42.055 72.3344 41.4133 74.9789 40.1083C76.769 39.2249 78.318 38.5588 79.5794 37.8771C80.851 37.1899 81.8695 36.4681 82.6205 35.4457C84.1038 33.4265 84.3292 31.6167 84.626 29.6369C84.9201 27.6749 85.0525 26.1685 84.9832 25.0858C84.9485 24.5445 84.8631 24.1002 84.7163 23.7547C84.569 23.4081 84.3553 23.1509 84.0591 23.0011C83.4661 22.7013 82.6429 22.8774 81.6314 23.3559C80.605 23.8414 79.3125 24.6732 77.7243 25.8012C71.3747 30.3108 64.6065 35.4115 49.8214 44.0145C45.9275 46.2802 43.3602 47.4836 39.3657 49.505C36.9542 50.7253 35.0263 51.6506 33.2031 52.3805C33.6581 52.0456 34.1801 51.6512 34.6233 51.2988C34.8886 51.0878 35.154 50.8959 35.4124 50.7106C35.6696 50.5262 35.923 50.347 36.158 50.167C36.6282 49.8068 37.0441 49.4291 37.3172 48.9525C37.3557 48.8853 37.3399 48.8055 37.2783 48.7588C37.2166 48.7123 37.124 48.7098 37.0535 48.7527C35.2765 49.8339 32.7925 51.2374 31.2978 52.1275C30.6956 52.4861 29.7636 52.8805 28.6679 53.3258C27.7231 53.7097 26.664 54.1309 25.6148 54.5909C26.1222 54.1208 26.701 53.5475 27.1737 52.9915C27.311 52.8299 27.408 52.7077 27.4714 52.6194C27.5028 52.5756 27.529 52.5369 27.5472 52.5033C27.5563 52.4866 27.5651 52.4676 27.5718 52.4484C27.5777 52.4316 27.5864 52.4012 27.5832 52.3661C27.5795 52.3258 27.5565 52.2656 27.4839 52.2329C27.4236 52.2058 27.3652 52.2149 27.342 52.22C27.2934 52.2306 27.2502 52.2553 27.2252 52.2699C27.1659 52.3048 27.0913 52.3595 27.0144 52.4201C26.7054 52.6634 26.2249 53.1064 26.0874 53.2625C26.0653 53.2875 26.0045 53.3438 25.9043 53.4304C25.8074 53.5142 25.6814 53.6192 25.5366 53.7379C25.2471 53.9752 24.8838 54.2654 24.5281 54.5468C24.3576 54.6817 24.1876 54.8133 24.0296 54.9373C24.0458 54.9128 24.0641 54.8886 24.0805 54.8638C24.2546 54.5988 24.4362 54.3103 24.5892 54.0434C24.7406 53.7791 24.87 53.5259 24.9309 53.3345C24.9541 53.2614 24.9731 53.1952 24.9778 53.1524C24.979 53.1417 24.9813 53.1191 24.9761 53.0938C24.9732 53.08 24.9503 52.9818 24.8288 52.9647C24.7778 52.9576 24.7358 52.971 24.7139 52.9802C24.6915 52.9897 24.6753 53.0011 24.6662 53.0079C24.6481 53.0215 24.6342 53.0357 24.6264 53.0444C24.5964 53.0776 24.5583 53.1339 24.5178 53.1942C24.4748 53.2582 24.4189 53.3427 24.3535 53.4414C24.0894 53.8404 23.6351 54.5096 22.969 55.288C21.9111 56.5244 20.5774 57.5435 20.1287 57.9414C17.8069 59.6804 15.6994 61.2374 11.5236 61.5868C10.0874 61.707 8.98897 61.8219 8.17829 61.929C7.37204 62.0355 6.83746 62.1351 6.53684 62.2295C6.46076 62.2534 6.39374 62.2794 6.33859 62.307C6.28756 62.3325 6.22739 62.3695 6.18695 62.4239Z" fill="url(#paint0_linear_510_39189)"/>
<path d="M6.18695 62.4239C6.16494 62.4534 6.14713 62.4906 6.14371 62.5338C6.1403 62.5775 6.15196 62.6166 6.17133 62.6479C6.20652 62.7046 6.26575 62.7392 6.31069 62.7603C6.40504 62.8044 6.54325 62.8372 6.7018 62.8639C6.86519 62.8914 7.06744 62.9142 7.29949 62.9336C9.1466 63.0876 13.1227 63.0028 15.9138 62.5291C18.7741 62.0436 20.978 62.6163 23.5234 63.1096C26.068 63.6027 28.9176 64.0048 33.0096 63.1289C38.5843 61.9354 45.4175 59.774 51.6035 57.393C57.7855 55.0134 63.3422 52.4066 66.3537 50.317C71.8642 46.4934 75.9748 44.3005 79.2765 40.2182C79.3287 40.1537 79.3237 40.0682 79.2653 40.0136C79.2069 39.9589 79.111 39.9499 79.0351 39.9922C78.0733 40.5287 75.8323 41.7669 73.0333 42.3159C72.0578 42.5072 71.1292 42.6475 70.3443 42.6408C69.7205 42.6354 69.211 42.5345 68.8376 42.3117C70.0837 42.055 72.3344 41.4133 74.9789 40.1083C76.769 39.2249 78.318 38.5588 79.5794 37.8771C80.851 37.1899 81.8695 36.4681 82.6205 35.4457C84.1038 33.4265 84.3292 31.6167 84.626 29.6369C84.9201 27.6749 85.0525 26.1685 84.9832 25.0858C84.9485 24.5445 84.8631 24.1002 84.7163 23.7547C84.569 23.4081 84.3553 23.1509 84.0591 23.0011C83.4661 22.7013 82.6429 22.8774 81.6314 23.3559C80.605 23.8414 79.3125 24.6732 77.7243 25.8012C71.3747 30.3108 64.6065 35.4115 49.8214 44.0145C45.9275 46.2802 43.3602 47.4836 39.3657 49.505C36.9542 50.7253 35.0263 51.6506 33.2031 52.3805C33.6581 52.0456 34.1801 51.6512 34.6233 51.2988C34.8886 51.0878 35.154 50.8959 35.4124 50.7106C35.6696 50.5262 35.923 50.347 36.158 50.167C36.6282 49.8068 37.0441 49.4291 37.3172 48.9525C37.3557 48.8853 37.3399 48.8055 37.2783 48.7588C37.2166 48.7123 37.124 48.7098 37.0535 48.7527C35.2765 49.8339 32.7925 51.2374 31.2978 52.1275C30.6956 52.4861 29.7636 52.8805 28.6679 53.3258C27.7231 53.7097 26.664 54.1309 25.6148 54.5909C26.1222 54.1208 26.701 53.5475 27.1737 52.9915C27.311 52.8299 27.408 52.7077 27.4714 52.6194C27.5028 52.5756 27.529 52.5369 27.5472 52.5033C27.5563 52.4866 27.5651 52.4676 27.5718 52.4484C27.5777 52.4316 27.5864 52.4012 27.5832 52.3661C27.5795 52.3258 27.5565 52.2656 27.4839 52.2329C27.4236 52.2058 27.3652 52.2149 27.342 52.22C27.2934 52.2306 27.2502 52.2553 27.2252 52.2699C27.1659 52.3048 27.0913 52.3595 27.0144 52.4201C26.7054 52.6634 26.2249 53.1064 26.0874 53.2625C26.0653 53.2875 26.0045 53.3438 25.9043 53.4304C25.8074 53.5142 25.6814 53.6192 25.5366 53.7379C25.2471 53.9752 24.8838 54.2654 24.5281 54.5468C24.3576 54.6817 24.1876 54.8133 24.0296 54.9373C24.0458 54.9128 24.0641 54.8886 24.0805 54.8638C24.2546 54.5988 24.4362 54.3103 24.5892 54.0434C24.7406 53.7791 24.87 53.5259 24.9309 53.3345C24.9541 53.2614 24.9731 53.1952 24.9778 53.1524C24.979 53.1417 24.9813 53.1191 24.9761 53.0938C24.9732 53.08 24.9503 52.9818 24.8288 52.9647C24.7778 52.9576 24.7358 52.971 24.7139 52.9802C24.6915 52.9897 24.6753 53.0011 24.6662 53.0079C24.6481 53.0215 24.6342 53.0357 24.6264 53.0444C24.5964 53.0776 24.5583 53.1339 24.5178 53.1942C24.4748 53.2582 24.4189 53.3427 24.3535 53.4414C24.0894 53.8404 23.6351 54.5096 22.969 55.288C21.9111 56.5244 20.5774 57.5435 20.1287 57.9414C17.8069 59.6804 15.6994 61.2374 11.5236 61.5868C10.0874 61.707 8.98897 61.8219 8.17829 61.929C7.37204 62.0355 6.83746 62.1351 6.53684 62.2295C6.46076 62.2534 6.39374 62.2794 6.33859 62.307C6.28756 62.3325 6.22739 62.3695 6.18695 62.4239Z" stroke="#FB8501" stroke-width="0.348501" stroke-linejoin="round"/>
<path d="M6.18695 62.4239C6.16494 62.4534 6.14713 62.4906 6.14371 62.5338C6.1403 62.5775 6.15196 62.6166 6.17133 62.6479C6.20652 62.7046 6.26575 62.7392 6.31069 62.7603C6.40504 62.8044 6.54325 62.8372 6.7018 62.8639C6.86519 62.8914 7.06744 62.9142 7.29949 62.9336C9.1466 63.0876 13.1227 63.0028 15.9138 62.5291C18.7741 62.0436 20.978 62.6163 23.5234 63.1096C26.068 63.6027 28.9176 64.0048 33.0096 63.1289C38.5843 61.9354 45.4175 59.774 51.6035 57.393C57.7855 55.0134 63.3422 52.4066 66.3537 50.317C71.8642 46.4934 75.9748 44.3005 79.2765 40.2182C79.3287 40.1537 79.3237 40.0682 79.2653 40.0136C79.2069 39.9589 79.111 39.9499 79.0351 39.9922C78.0733 40.5287 75.8323 41.7669 73.0333 42.3159C72.0578 42.5072 71.1292 42.6475 70.3443 42.6408C69.7205 42.6354 69.211 42.5345 68.8376 42.3117C70.0837 42.055 72.3344 41.4133 74.9789 40.1083C76.769 39.2249 78.318 38.5588 79.5794 37.8771C80.851 37.1899 81.8695 36.4681 82.6205 35.4457C84.1038 33.4265 84.3292 31.6167 84.626 29.6369C84.9201 27.6749 85.0525 26.1685 84.9832 25.0858C84.9485 24.5445 84.8631 24.1002 84.7163 23.7547C84.569 23.4081 84.3553 23.1509 84.0591 23.0011C83.4661 22.7013 82.6429 22.8774 81.6314 23.3559C80.605 23.8414 79.3125 24.6732 77.7243 25.8012C71.3747 30.3108 64.6065 35.4115 49.8214 44.0145C45.9275 46.2802 43.3602 47.4836 39.3657 49.505C36.9542 50.7253 35.0263 51.6506 33.2031 52.3805C33.6581 52.0456 34.1801 51.6512 34.6233 51.2988C34.8886 51.0878 35.154 50.8959 35.4124 50.7106C35.6696 50.5262 35.923 50.347 36.158 50.167C36.6282 49.8068 37.0441 49.4291 37.3172 48.9525C37.3557 48.8853 37.3399 48.8055 37.2783 48.7588C37.2166 48.7123 37.124 48.7098 37.0535 48.7527C35.2765 49.8339 32.7925 51.2374 31.2978 52.1275C30.6956 52.4861 29.7636 52.8805 28.6679 53.3258C27.7231 53.7097 26.664 54.1309 25.6148 54.5909C26.1222 54.1208 26.701 53.5475 27.1737 52.9915C27.311 52.8299 27.408 52.7077 27.4714 52.6194C27.5028 52.5756 27.529 52.5369 27.5472 52.5033C27.5563 52.4866 27.5651 52.4676 27.5718 52.4484C27.5777 52.4316 27.5864 52.4012 27.5832 52.3661C27.5795 52.3258 27.5565 52.2656 27.4839 52.2329C27.4236 52.2058 27.3652 52.2149 27.342 52.22C27.2934 52.2306 27.2502 52.2553 27.2252 52.2699C27.1659 52.3048 27.0913 52.3595 27.0144 52.4201C26.7054 52.6634 26.2249 53.1064 26.0874 53.2625C26.0653 53.2875 26.0045 53.3438 25.9043 53.4304C25.8074 53.5142 25.6814 53.6192 25.5366 53.7379C25.2471 53.9752 24.8838 54.2654 24.5281 54.5468C24.3576 54.6817 24.1876 54.8133 24.0296 54.9373C24.0458 54.9128 24.0641 54.8886 24.0805 54.8638C24.2546 54.5988 24.4362 54.3103 24.5892 54.0434C24.7406 53.7791 24.87 53.5259 24.9309 53.3345C24.9541 53.2614 24.9731 53.1952 24.9778 53.1524C24.979 53.1417 24.9813 53.1191 24.9761 53.0938C24.9732 53.08 24.9503 52.9818 24.8288 52.9647C24.7778 52.9576 24.7358 52.971 24.7139 52.9802C24.6915 52.9897 24.6753 53.0011 24.6662 53.0079C24.6481 53.0215 24.6342 53.0357 24.6264 53.0444C24.5964 53.0776 24.5583 53.1339 24.5178 53.1942C24.4748 53.2582 24.4189 53.3427 24.3535 53.4414C24.0894 53.8404 23.6351 54.5096 22.969 55.288C21.9111 56.5244 20.5774 57.5435 20.1287 57.9414C17.8069 59.6804 15.6994 61.2374 11.5236 61.5868C10.0874 61.707 8.98897 61.8219 8.17829 61.929C7.37204 62.0355 6.83746 62.1351 6.53684 62.2295C6.46076 62.2534 6.39374 62.2794 6.33859 62.307C6.28756 62.3325 6.22739 62.3695 6.18695 62.4239Z" stroke="#E89130" stroke-width="0.348501" stroke-linejoin="round"/>
<g filter="url(#filter1_ii_510_39189)">
<path d="M77.8353 25.9255C71.4861 30.4349 64.711 35.5406 49.9168 44.1489C46.0162 46.4186 43.4414 47.6261 39.4512 49.6454C36.4925 51.1426 34.2543 52.2045 32.0386 53.0002C32.3025 52.8427 33.5719 51.922 34.504 51.1808C35.5816 50.3238 36.6418 49.7779 37.1532 48.8853C35.3784 49.9651 32.8799 51.3765 31.395 52.2607C30.1588 52.9969 27.6058 53.8614 25.2108 54.9466C24.9763 55.0529 24.6691 55.2706 24.4488 55.3813C24.9178 55.018 26.1543 53.9258 27.0272 52.8988C28.1185 51.615 26.4851 53.0688 26.2306 53.3579C25.976 53.647 23.2561 55.7554 23.2561 55.7554C23.2561 55.7554 24.5311 53.9956 24.7526 53.2986C24.9493 52.6796 24.4604 53.8086 23.1146 55.3814C22.038 56.6396 20.6703 57.6842 20.2471 58.062C17.9182 59.8064 15.7702 61.3943 11.5304 61.7489C0.0549383 62.7088 10.344 63.3101 15.8889 62.3689C21.7016 61.3822 24.8696 64.706 32.9761 62.9705C44.0978 60.5895 60.263 54.3412 66.2441 50.1912C71.7772 46.3519 75.848 44.1835 79.1277 40.1284C78.1636 40.6662 75.8985 41.9188 73.0643 42.4746C71.108 42.8583 69.281 43.0514 68.4311 42.2264C69.5372 42.0375 71.9711 41.4101 74.8952 39.9671C78.5076 38.1844 81.0104 37.3447 82.4665 35.3625C83.9226 33.3802 84.1451 31.6079 84.4424 29.624C85.6177 21.7825 84.1845 21.4161 77.8353 25.9255Z" stroke="url(#paint1_linear_510_39189)" stroke-width="0.298715" stroke-linejoin="round"/>
</g>
</g>
<defs>
<filter id="filter0_d_510_39189" x="5.95703" y="22.6902" width="82.0963" height="42.828" filterUnits="userSpaceOnUse" color-interpolation-filters="sRGB">
<feFlood flood-opacity="0" result="BackgroundImageFix"/>
<feColorMatrix in="SourceAlpha" type="matrix" values="0 0 0 0 0 0 0 0 0 0 0 0 0 0 0 0 0 0 127 0" result="hardAlpha"/>
<feOffset dx="2.0122" dy="0.855541"/>
<feGaussianBlur stdDeviation="0.427771"/>
<feComposite in2="hardAlpha" operator="out"/>
<feColorMatrix type="matrix" values="0 0 0 0 0 0 0 0 0 0 0 0 0 0 0 0 0 0 0.25 0"/>
<feBlend mode="normal" in2="BackgroundImageFix" result="effect1_dropShadow_510_39189"/>
<feBlend mode="normal" in="SourceGraphic" in2="effect1_dropShadow_510_39189" result="shape"/>
</filter>
<filter id="filter1_ii_510_39189" x="6.16992" y="22.8765" width="78.8047" height="40.7446" filterUnits="userSpaceOnUse" color-interpolation-filters="sRGB">
<feFlood flood-opacity="0" result="BackgroundImageFix"/>
<feBlend mode="normal" in="SourceGraphic" in2="BackgroundImageFix" result="shape"/>
<feColorMatrix in="SourceAlpha" type="matrix" values="0 0 0 0 0 0 0 0 0 0 0 0 0 0 0 0 0 0 127 0" result="hardAlpha"/>
<feOffset dx="-0.114654" dy="-0.0573268"/>
<feComposite in2="hardAlpha" operator="arithmetic" k2="-1" k3="1"/>
<feColorMatrix type="matrix" values="0 0 0 0 0 0 0 0 0 0 0 0 0 0 0 0 0 0 0.25 0"/>
<feBlend mode="overlay" in2="shape" result="effect1_innerShadow_510_39189"/>
<feColorMatrix in="SourceAlpha" type="matrix" values="0 0 0 0 0 0 0 0 0 0 0 0 0 0 0 0 0 0 127 0" result="hardAlpha"/>
<feOffset dx="0.0573268" dy="0.114654"/>
<feComposite in2="hardAlpha" operator="arithmetic" k2="-1" k3="1"/>
<feColorMatrix type="matrix" values="0 0 0 0 1 0 0 0 0 1 0 0 0 0 1 0 0 0 0.25 0"/>
<feBlend mode="overlay" in2="effect1_innerShadow_510_39189" result="effect2_innerShadow_510_39189"/>
</filter>
<linearGradient id="paint0_linear_510_39189" x1="129.234" y1="-1.36745" x2="73.2372" y2="-41.3443" gradientUnits="userSpaceOnUse">
<stop stop-color="#FB8501"/>
<stop offset="1" stop-color="#FFC65B"/>
</linearGradient>
<linearGradient id="paint1_linear_510_39189" x1="129.234" y1="-1.36745" x2="73.2372" y2="-41.3443" gradientUnits="userSpaceOnUse">
<stop stop-color="#FB8501"/>
<stop offset="1" stop-color="#FFC65B"/>
</linearGradient>
</defs>
</svg>
