<svg width="283" height="627" viewBox="0 0 283 627" fill="none" xmlns="http://www.w3.org/2000/svg">
<g filter="url(#filter0_di_408_7)">
<path d="M51.8126 319.128C53.1498 311.426 50.7811 308.967 45.9497 305.597C40.4755 301.778 33.1767 301.591 28.9261 305.842C23.6128 311.156 12.9811 311.94 8.2553 314.545C3.52947 317.151 4.89644 319.344 2.94733 322.165C0.998224 324.985 -5.18534 323.897 -6.69115 322.069C-8.19697 320.242 -6.73911 316.398 -4.40023 316.028C-3.57332 315.897 2.87274 312.504 5.20632 309.83C7.53989 307.155 12.7623 307.879 15.0638 306.448C17.3653 305.018 20.879 299.231 16.8582 297.078C12.8373 294.925 12.2125 296.572 7.37986 298.3C2.54723 300.027 -4.38392 300.33 -6.69073 299.455C-8.99754 298.58 -17.6054 298.666 -20.7079 301.049C-23.8105 303.433 -27.7726 304.024 -32.4983 299.091C-37.224 294.158 -43.8134 291.241 -45.9493 288.755C-48.0852 286.27 -46.4458 285.426 -51.0968 282.616C-55.7478 279.805 -59.6726 281.457 -60.5376 277.36C-61.4026 273.263 -66.091 269.391 -71.2866 265.118C-76.4822 260.844 -70.101 256.773 -77.2297 254.698C-84.3584 252.623 -85.9445 261.444 -85.6402 264.7C-85.3359 267.957 -80.9145 269.633 -80.2577 274.28C-79.601 278.926 -75.954 285.544 -72.2269 289.051C-68.4997 292.558 -58.2792 295.178 -56.4851 300.883C-55.0498 305.448 -50.5865 309.681 -48.5342 311.227C-51.5744 312.866 -58.7719 316.307 -63.2403 316.958C-68.8259 317.771 -73.3114 318.583 -77.6848 322.578C-82.0582 326.573 -89.9932 323.145 -94.0516 327.469C-98.11 331.793 -97.8857 330.622 -104.427 333.376C-110.969 336.131 -106.483 342.857 -100.161 343.579C-93.8383 344.302 -90.0095 338.844 -87.9537 336.901C-85.8978 334.959 -77.3006 337.8 -75.2928 337.724C-73.285 337.648 -71.5389 337.682 -66.8451 336.321C-62.1513 334.96 -58.0129 335.063 -56.0746 335.17C-54.5239 335.256 -51.2313 333.028 -49.7788 331.904C-50.3466 333.015 -51.886 335.837 -53.5008 338.24C-55.5193 341.244 -53.1966 349.035 -53.3249 354.011C-53.4531 358.988 -52.6683 366.196 -47.3071 366.554C-41.9458 366.912 -42.2822 364.899 -40.6054 357.578C-38.9285 350.257 -40.4771 352.602 -34.2027 347.652C-27.9282 342.703 -34.9232 330.418 -25.995 332.966C-17.0668 335.514 -16.1806 348.833 -15.6521 358.456C-15.1237 368.079 -21.0886 386.128 -34.2675 387.831C-47.4463 389.534 -52.3375 380.979 -59.3646 369.938C-66.3916 358.898 -78.5345 355.549 -94.3831 350.377C-110.232 345.204 -125.589 348.594 -142.165 369.111C-158.74 389.627 -153.08 413.551 -151.11 419.951C-149.14 426.352 -142.166 429.416 -136.965 435.994C-131.764 442.573 -135.863 448.138 -125.57 455.811C-117.72 461.662 -113.313 460.459 -103.838 465.577C-96.2907 469.654 -95.8485 472.526 -91.0266 473.726C-86.2047 474.926 -81.8313 470.931 -76.8385 470.521C-71.8457 470.111 -67.8035 473.947 -58.0795 473.238C-48.3556 472.528 -42.1346 467.139 -39.315 463.183C-36.4955 459.227 -34.5732 459.956 -28.3468 456.873C-22.1205 453.79 -21.8107 451.813 -20.2621 449.469C-19.0232 447.594 -15.9188 437.436 -14.5214 432.591C-13.6742 436.542 -12.1305 445.768 -12.7329 451.068C-13.486 457.692 -16.7647 459.38 -19.5789 465.642C-21.8303 470.651 -20.0472 474.608 -18.8742 475.96C-19.3317 476.973 -20.1334 479.629 -19.6807 482.145C-19.1147 485.292 -7.85302 492.703 -3.12189 492.403C1.60925 492.103 3.93752 487.123 8.27359 482.067C12.6097 477.011 16.2034 475.651 20.2992 472.389C24.395 469.126 27.3108 453.899 32.3304 449.939C37.3499 445.98 42.5351 438.104 42.2628 433.604C42.045 430.004 39.1 427.449 37.6546 426.622L38.4898 354.26C40.6222 352.696 44.7899 349.823 47.1139 346.014C50.0189 341.252 53.0831 340.13 51.1341 335.412C49.1852 330.695 50.141 328.754 51.8126 319.128Z" fill="url(#paint0_linear_408_7)"/>
<path d="M233.132 180.172C238.335 195.211 235.164 221.006 232.459 228.914C231.444 223.085 228.564 204.499 224.156 202.104C220.327 200.024 216.616 203.433 216.205 206.837C215.793 210.24 218.965 215.212 219.878 217.443C220.791 219.674 213.646 225.759 210.208 218.592C206.769 211.425 203.232 204.84 197.392 203.681C193.916 202.991 188.293 202.743 183.322 204.837C181.037 205.799 165.381 214.883 158.343 218.966L157.845 219.256C159.602 216.362 164.514 211.525 166.271 208.631C167.437 206.711 168.879 203.687 169.47 202.515L158.684 196.75C153.57 197.672 134.746 200.152 113.562 202.672C92.3771 205.192 21.9276 197.308 -10.4462 193.966C-14.4635 190.837 -23.6195 182.898 -28.1049 176.172C-33.7116 167.764 -31.1642 151.769 -25.7815 146.272C-20.3988 140.775 -13.2488 144.533 -11.5828 147.678C-9.91678 150.822 -12.229 155.18 -9.88485 157.116C-7.54068 159.052 -7.39654 160.991 -5.8213 162.635C-4.24607 164.28 3.06954 164.122 7.6992 165.25C12.3288 166.377 16.259 167.03 18.758 167.978C21.2571 168.925 24.6586 167.493 30.6126 167.448C36.5665 167.402 44.4011 169.286 47.0647 169.289C53.2108 169.298 56.5589 167.427 61.8668 167.346C65.9141 167.284 70.9753 168.658 74.7038 168.863C79.8728 169.148 84.8123 168.318 88.0216 166.813C91.2309 165.308 98.3009 164.639 99.5931 164.71C100.627 164.767 110.96 162.18 115.997 160.88C114.81 160.918 110.917 161.173 104.842 161.884C97.249 162.774 92.8917 158.609 91.7704 156.927C90.649 155.246 88.2409 148.26 89.6827 145.038C91.1245 141.815 93.709 141.958 94.6702 142.322C95.6313 142.687 98.5149 143.78 98.3119 146.635C98.1089 149.49 97.7618 150.405 99.7536 150.951C101.745 151.497 104.41 148.529 106.396 146.769C107.986 145.362 113.007 141.319 115.32 139.474C113.99 138.342 110.946 135.931 109.408 135.348L102.68 132.796C102.746 133.589 102.588 135.358 101.431 136.092C99.9834 137.009 97.0305 136.098 96.6247 134.269C96.2189 132.44 98.8142 129.655 103.994 127.013C108.138 124.899 116.649 125.53 120.387 126.11C123.463 122.251 130.577 112.343 134.426 103.584C139.238 92.636 137.123 84.2961 135.981 80.9312C134.838 77.5664 132.099 78.4122 128.9 76.9898C125.701 75.5675 129.29 71.9028 130.844 71.8639C132.398 71.825 148.593 76.0821 160.72 95.1288C170.421 110.366 171.803 136.255 171.281 147.294C172.009 147.501 174.374 148.3 178.009 149.846C181.645 151.392 184.633 154.8 185.672 156.311C185.606 155.518 185.644 153.369 186.324 151.114C187.173 148.295 190.163 142.728 201.382 146.773C212.601 150.818 226.629 161.373 233.132 180.172Z" fill="url(#paint1_linear_408_7)"/>
<path d="M233.067 227.89C233.243 221.831 228.738 207.193 228.054 204.002C227.369 200.811 223.271 199.259 219.873 200.062C216.661 200.821 215.593 203.418 214.789 206.51C213.653 210.881 218.426 216.055 218.709 217.629C218.992 219.202 217.112 221.839 214.036 220.673C210.961 219.506 209.866 214.275 208.323 211.387C206.78 208.498 202.54 202.284 190.648 201.753C181.134 201.328 165.606 212.707 159.03 218.45C164.052 212.746 174.598 200.357 176.615 196.431C179.135 191.524 179.718 186.51 175.974 183.625C172.231 180.739 169.364 186.562 169.193 188.172C169.022 189.783 169.235 191.539 165.166 191.252C161.911 191.023 158.089 193.873 156.585 195.327C141.155 197.362 106.553 201.439 91.5933 201.462C72.893 201.49 26.0037 198.157 13.6365 195.98C1.26944 193.803 -75.4055 176.243 -84.526 173.622C-93.6464 171.001 -100.663 172.109 -102.959 175.845C-105.255 179.581 -111.204 197.008 -113.442 203.488C-115.679 209.969 -152.222 302.274 -155.09 308.096C-157.384 312.754 -189.037 390.078 -204.576 428.158C-206.189 432.991 -206.333 438.589 -206.115 442.651C-205.939 445.9 -204.087 452.102 -200.268 456.804C-194.122 464.369 -184.782 471.052 -181.589 470.169C-179.034 469.462 -177.135 465.576 -176.505 463.721C-173.045 465.033 -165.472 468.952 -162.862 474.129C-160.252 479.307 -162.886 489.266 -164.529 493.599C-163.434 493.805 -160.963 493.821 -159.835 492.238C-158.425 490.26 -156.278 482.279 -156.038 480.486C-155.798 478.693 -156.673 469.985 -161.436 463.991C-166.199 457.997 -173.259 455.739 -183.709 451.985C-194.159 448.232 -198.996 440.115 -199.317 437.481C-199.637 434.847 -192.417 415.808 -190.436 411.743C-188.455 407.678 -153.6 340.698 -145.184 325.463C-140.3 316.62 -135.15 300.162 -134.702 297.82C-134.343 295.946 -105.758 224.201 -91.5108 188.562C-77.7838 192.372 -48.3168 200.712 -40.2643 203.599C-30.1987 207.206 3.86412 221.17 13.5395 244.941C23.215 268.712 18.5742 293.126 15.8026 302.754C14.2266 308.229 7.78842 328.599 4.9728 331.313C1.85425 334.318 -3.71845 334.634 -10.5664 339.24C-19.1263 344.998 -31.5899 361.63 -35.9527 370.235C-40.3156 378.841 -63.8438 420.592 -67.8329 432.271C-71.822 443.95 -84.1843 466.693 -96.0339 492.143C-107.884 517.592 -116.983 516.654 -121.938 518.126C-126.894 519.597 -133.157 521.619 -134.177 526.048C-135.197 530.477 -132.538 532.742 -128.485 533.651C-124.432 534.559 -122.184 532.69 -114.708 533.85C-107.232 535.009 -103.292 540.273 -98.2189 544.29C-93.1461 548.308 -90.3586 545.596 -88.0946 550.642C-85.8306 555.689 -82.7655 559.783 -80.3733 559.852C-77.981 559.922 -72.4381 555.742 -69.9816 545.785C-67.5251 535.828 -74.1145 532.911 -75.9994 533.243C-77.8844 533.575 -88.4039 530.005 -91.8 526.204C-95.1961 522.403 -95.2067 517.793 -93.3857 512.411C-91.5647 507.029 -67.8496 470.584 -54.6598 450.877C-44.1079 435.112 -14.6385 411.053 -1.22274 400.995C2.38665 421.627 1.82583 428.325 -5.11633 446.632C-7.62418 453.245 -39.336 539.189 -40.5856 542.484C-41.8351 545.78 -55.3771 549.02 -59.7345 552.393C-64.0919 555.766 -64.8663 560.707 -62.0148 563.045C-59.1634 565.383 -50.4701 564.491 -47.3623 564.414C-44.2544 564.336 -35.5718 566.372 -31.0437 568.927C-26.5155 571.481 -16.295 574.101 -14.8479 573.184C-14.5275 573.305 -13.6593 573.76 -12.7494 574.608C-11.612 575.667 -9.05427 579.359 -8.40283 581.7C-7.75141 584.041 -4.49946 585.903 -2.23002 585.716C0.039438 585.53 6.10562 581.13 8.81306 573.99C11.5205 566.85 6.02057 559.32 3.45211 558.556C0.883645 557.791 -1.67953 559.332 -5.81793 559.228C-9.12865 559.146 -17.2982 556.452 -20.9691 555.116C-23.8952 552.675 -26.9619 550.392 -28.9768 548.981C-23.6794 536.751 -11.8682 509.779 -7.00229 499.73C-0.919941 487.17 20.5951 450.728 24.0554 444.502C26.8237 439.521 35.6619 418.014 38.3404 399.874C41.4333 378.929 33.186 356.996 36.12 345.427C39.054 333.859 43.044 326.821 47.1367 314.636C52.2526 299.406 70.6969 279.179 76.0583 271.999C81.4197 264.819 82.3329 259.512 88.7516 248.963C93.8866 240.525 116.167 247.215 126.665 251.615C117.535 280.329 99.0527 338.344 98.1641 340.687C97.0534 343.616 51.8865 466.782 49.163 474.544C46.4395 482.305 37.7031 502.445 36.9501 509.069C36.197 515.693 39.1124 523.081 43.5658 531.051C48.0191 539.022 60.6637 548.005 65.1866 548.254C68.8049 548.454 70.9804 544.379 71.6159 542.316C73.387 543.058 77.9938 545.908 82.2528 551.376C86.5118 556.843 83.5572 566.877 81.5476 571.21C82.4909 571.428 84.524 571.71 85.1093 571.095C85.8408 570.325 90.5934 564.171 90.9033 554.656C91.2132 545.141 84.9604 536.698 79.9623 534.802C74.9642 532.907 50.9189 524.417 47.5922 520.433C44.2655 516.45 45.4031 509.971 46.5459 505.798C47.6887 501.625 97.8056 382.221 98.4998 380.39C99.0552 378.925 119.953 314.54 130.333 282.53C134.857 270.984 143.857 247.329 143.656 245.076C143.405 242.258 140.639 239.116 138.14 238.168L94.1187 221.474C102.451 220.376 120.525 218.171 126.169 218.133C133.223 218.086 143.689 221.217 149.685 224.538C155.682 227.859 158.154 232.356 166.313 242.151C174.473 251.946 178.739 254.61 184.26 256.285C188.678 257.625 191.961 253.761 193.05 251.662C193.57 252.417 194.735 254.06 195.239 254.586C195.869 255.243 197.845 256.411 199.992 255.969C201.709 255.615 201.725 253.137 201.519 251.942C202.032 252.136 202.996 253.381 203.863 253.878C204.947 254.498 206.229 257.497 206.859 258.154C207.489 258.812 209.764 260.931 212.679 260.78C215.012 260.66 216.949 257.444 217.645 256.382C218.016 260.431 218.992 269.414 219.936 272.955C221.116 277.381 226.984 278.141 226.525 275.872C226.066 273.604 232.485 247.98 233.067 227.89Z" fill="url(#paint2_linear_408_7)"/>
<path d="M138.551 295.069C139.183 293.982 140.166 291.158 139.043 288.555C137.638 285.3 137.003 282.337 139.059 280.394C141.115 278.452 141.003 275.268 137.916 277.03C134.83 278.791 129.495 282.421 128.16 286.522C127.092 289.802 126.679 292.94 126.606 294.099C125.314 294.027 122.577 294.288 121.966 295.899C121.355 297.51 121.857 299.278 122.184 299.96C121.951 299.802 121.108 299.552 119.6 299.818C118.092 300.083 115.351 299.812 114.169 299.643C114.963 300.642 116.938 302.661 118.489 302.747C120.04 302.832 122.535 303.094 123.589 303.215L117.052 323.351C118.526 323.909 122.143 324.653 124.822 323.156C126.711 322.1 127.866 321.287 128.477 320.788C126.567 322.576 123.363 325.844 122.702 327.587C121.799 329.967 119.888 333.848 119.893 336.154C119.898 338.459 122.13 344.75 120.881 348.045C119.631 351.34 117.281 354.637 114.612 355.3C111.942 355.962 105.635 354.618 109.603 356.332C113.57 358.046 119.214 359.977 125.516 351.478C130.557 344.679 133.024 336.317 133.627 332.986C134.337 333.046 135.938 332.69 136.66 330.786C137.382 328.882 137.153 327.553 136.949 327.126C138.65 325.538 142.264 321.227 143.106 316.688C143.947 312.15 142.958 305.674 142.359 303.004C143.93 303.111 147.24 302.887 147.907 301.129C148.74 298.932 148.441 297.981 147.234 297.105C146.269 296.404 142.991 296.892 141.472 297.223C141.303 297.09 141.17 296.397 140.666 295.871C139.878 295.049 138.936 295.215 138.551 295.069Z" fill="url(#paint3_linear_408_7)"/>
<path d="M108.646 303.452C106.348 302.373 105.303 304.613 104.641 308.215C103.813 312.717 106.189 313.409 105.66 318.862C105.132 324.315 104.79 327.536 102.947 331.234C101.474 334.193 103.885 339.198 105.275 341.33C105.083 338.745 105.229 333.104 107.347 331.228C109.996 328.882 112.335 320.974 111.438 318.121C110.541 315.268 108.138 310.588 109.478 308.793C110.551 307.357 110.628 304.383 108.646 303.452Z" fill="url(#paint4_linear_408_7)"/>
<path d="M66.5522 244.312C76.0624 249.384 79.8698 242.243 78.8713 240.818C78.3706 240.103 77.5118 240.344 76.6873 240.199C75.6567 240.017 74.781 238.848 75.582 237.895C75.858 237.567 76.2462 237.356 76.7045 237.254C76.2413 236.736 75.4016 235.356 75.7476 233.979C76.1802 232.259 77.6433 230.72 79.9609 228.667C81.8149 227.025 90.6193 224.333 91.3829 222.319L94.1223 221.474C93.3113 225.354 84.9255 227.669 83.3303 228.479C79.7906 230.278 77.7341 232.22 77.3549 234.379C77.0516 236.107 78.8518 237.39 79.7899 237.816C81.4505 238.655 82.8869 240.665 81.2529 243.815C79.6188 246.964 74.909 248.947 73.5313 249.681C72.1536 250.415 63.9836 251.086 56.3261 254.464C50.2002 257.166 47.3337 259.429 46.6662 260.223C45.3331 257.554 41.8434 251.024 38.5498 246.257C34.4329 240.299 33.0018 240.593 30.1504 238.256C27.2989 235.918 22.1193 231.022 25.6704 226.297C26.1929 225.601 26.6628 225.095 27.0811 224.738C27.9571 223.534 29.614 220.715 29.2331 219.063C28.757 216.997 25.6118 216.014 24.4211 214.516C23.2303 213.017 22.0182 209.835 23.8285 207.381C25.6387 204.926 27.6252 203.167 27.6039 201.484C27.5868 200.137 25.2508 198.218 24.085 197.427C24.8878 197.243 26.6332 196.97 27.1928 197.349C27.8923 197.824 30.6209 199.906 30.1724 202.248C29.7238 204.591 26.6373 206.352 25.7508 208.11C24.8644 209.868 24.6935 211.478 25.8148 213.16C26.9362 214.841 29.6435 215.24 30.6954 217.104C31.7473 218.969 31.4696 219.701 31.1065 221.239C30.816 222.469 29.9047 223.945 29.4854 224.529C29.7931 225.057 29.7262 225.82 29.3016 225.998C28.2549 226.439 26.8612 227.795 27.6354 230.392C28.4097 232.989 33.6854 234.152 44.0608 235.783C54.4361 237.414 57.0419 239.24 66.5522 244.312Z" fill="url(#paint5_linear_408_7)"/>
<path d="M37.2246 315.272C40.3046 318.283 38.223 324.236 36.7972 326.836C37.276 327.506 38.6608 329.344 40.3695 331.332C42.0782 333.32 42.2882 335.549 42.1796 336.415C42.7475 335.305 44.5987 332.935 47.4608 332.346C51.0386 331.608 54.157 336.141 52.368 340.279C50.9369 343.589 48.3968 347.079 47.3057 348.41C48.4074 351.69 50.6867 359.324 50.9899 363.627C51.369 369.006 54.3485 373.905 55.6727 380.27C56.9969 386.635 51.3258 395.792 50.3591 400.66C49.3925 405.528 50.7808 409.405 51.8273 416.502C52.6645 422.18 46.1349 423.976 42.7654 424.164C42.671 426.152 41.8447 430.767 39.2943 433.317C36.1063 436.506 26.3077 435.093 23.3493 439.415C20.391 443.738 13.6628 441.186 8.39229 442.329C3.12181 443.471 -4.48224 447.288 -8.90363 445.611C-13.325 443.935 -11.7123 439.102 -11.0181 437.271C-10.3238 435.441 -5.75289 433.824 -3.63818 427.088C-1.9464 421.699 -4.49414 419.811 -2.319 416.071C-0.423288 412.812 -1.7978 413.421 -5.69378 413.954C-10.5638 414.62 -17.0304 419.496 -20.5655 423.6C-24.1006 427.704 -28.004 423.501 -32.3827 425.191C-36.7614 426.881 -35.5493 430.063 -40.4353 431.351C-45.3213 432.639 -53.9291 425.187 -60.9938 428.161C-68.0585 431.136 -73.2273 423.313 -72.154 419.323C-71.0806 415.332 -65.6018 413.641 -63.2309 412.027C-60.86 410.414 -58.8467 405.105 -59.135 401.226C-59.4233 397.348 -52.7056 387.751 -51.0021 384.418C-49.2986 381.086 -40.4823 372.912 -39.3074 367.495C-38.1326 362.077 -34.3945 355.119 -27.255 346.729C-20.1154 338.338 -7.97245 334.148 -9.34471 329.65C-10.717 325.151 -2.49886 322.614 0.0322368 322.317C2.56334 322.02 6.69631 327.357 10.6051 326.326C14.5139 325.296 18.4335 321.338 21.8938 315.112C25.3542 308.886 33.3747 311.509 37.2246 315.272Z" fill="url(#paint6_linear_408_7)"/>
<path d="M-35.1943 531.298C-35.6048 529.756 -34.1707 527.981 -33.4024 527.286C-33.2907 527.178 -32.8578 526.727 -32.0204 525.794C-30.6384 524.302 -30.7828 520.046 -31.711 519.43C-32.6392 518.815 -36.7027 522.908 -38.4043 528.348C-40.106 533.789 -37.3627 535.827 -36.3081 536.471C-35.2536 537.116 -31.3887 535.792 -31.7084 539.74C-32.0281 543.688 -31.056 544.716 -29.6405 541.221C-28.2251 537.726 -29.6638 535.786 -30.5945 534.567C-31.5253 533.348 -34.6812 533.226 -35.1943 531.298Z" fill="url(#paint7_linear_408_7)"/>
<path d="M-12.587 508.088C-15.1374 510.638 -14.8139 514.153 -14.3333 515.592C-14.7463 515.714 -15.9492 516.026 -17.4571 516.292C-19.3421 516.624 -18.0979 518.561 -21.1628 518.865C-24.2277 519.168 -22.9306 520.288 -20.9548 521.456C-19.3742 522.391 -18.05 521.72 -17.5854 521.268L-24.1805 538.66C-24.4469 539.362 -24.4029 540.986 -22.0961 541.861C-19.7893 542.735 -16.9031 541.116 -15.7483 540.197L-17.8344 545.698C-18.5708 547.64 -14.2378 549.55 -15.7651 553.577C-17.2923 557.605 -11.2743 555.071 -9.34118 552.872C-7.79472 551.113 -6.43226 546.168 -5.94434 543.915C-5.26322 543.665 -3.74767 542.877 -3.13442 541.723C-2.52117 540.57 -3.37824 539.081 -3.88343 538.48C-2.80834 536.418 -0.505431 531.891 0.10548 530.28C0.716391 528.669 0.687614 525.266 0.596862 523.766C1.12728 524.107 2.82679 524.612 5.38142 523.905C8.57472 523.022 7.9553 519.437 4.47905 518.747C1.69805 518.195 -0.780695 516.962 -1.67244 516.414C-1.04588 515.535 -0.0383957 513.265 -1.02094 511.217C-2.00348 509.17 -1.98912 505.266 -1.85913 503.571C-0.269636 503.824 2.80362 503.915 2.38074 502.247C1.85213 500.162 -3.87754 499.036 -7.20435 502.591C-10.5312 506.145 -9.39908 504.899 -12.587 508.088Z" fill="url(#paint8_linear_408_7)"/>
<path fill-rule="evenodd" clip-rule="evenodd" d="M78.1979 472.982C76.4349 472.034 71.1401 471.1 65.5995 475.522C60.0589 479.943 54.2201 485.074 51.9933 487.087C47.8579 485.449 39.1988 483.197 37.6462 487.291C36.0936 491.385 37.4169 493.685 38.9736 495.948C37.4932 496.571 34.7105 497.927 33.8233 500.267C32.3678 504.105 31.2185 506.557 36.9765 508.741C36.9765 508.741 37.3544 507.278 37.6163 506.474C37.8782 505.671 38.2561 504.208 38.2561 504.208C37.0868 503.625 37.2855 503.294 37.7846 501.978C38.4084 500.333 40.4291 499.636 44.4596 501.164C48.4902 502.693 51.2839 504.589 50.6601 506.234C50.161 507.55 46.8753 507.337 46.0561 507.375C46.0561 507.375 45.8356 508.654 45.6991 509.474C45.5672 510.267 45.3682 511.505 45.3682 511.505C46.1999 511.82 49.0989 512.666 51.0225 512.225C52.9461 511.783 53.6794 510.236 53.8056 509.517C54.5325 509.723 56.2368 509.937 57.2391 509.147C58.492 508.158 59.0252 505.015 58.7427 503.445C58.4601 501.874 59.2546 498.621 60.3316 496.939C61.1932 495.593 62.2332 495.012 62.6455 494.89C62.3718 494.647 61.6432 494.175 60.9181 494.235C60.193 494.294 59.1765 494.968 58.7588 495.297C60.3583 490.886 64.4798 481.369 68.1692 478.587C71.8587 475.804 76.3923 473.691 78.1979 472.982ZM41.9221 489.331C40.8941 491.115 41.5488 493.789 43.596 497.074L45.3234 497.729C45.2417 497.558 45.8555 495.631 47.0242 494.402C48.1929 493.172 49.7256 491.523 50.3458 490.853C48.1759 489.821 42.95 487.546 41.9221 489.331Z" fill="url(#paint9_linear_408_7)"/>
</g>
<defs>
<filter id="filter0_di_408_7" x="-213.354" y="64.9535" width="462.188" height="529.686" filterUnits="userSpaceOnUse" color-interpolation-filters="sRGB">
<feFlood flood-opacity="0" result="BackgroundImageFix"/>
<feColorMatrix in="SourceAlpha" type="matrix" values="0 0 0 0 0 0 0 0 0 0 0 0 0 0 0 0 0 0 127 0" result="hardAlpha"/>
<feOffset dx="5" dy="1"/>
<feGaussianBlur stdDeviation="3.95512"/>
<feComposite in2="hardAlpha" operator="out"/>
<feColorMatrix type="matrix" values="0 0 0 0 0 0 0 0 0 0 0 0 0 0 0 0 0 0 0.46 0"/>
<feBlend mode="normal" in2="BackgroundImageFix" result="effect1_dropShadow_408_7"/>
<feBlend mode="normal" in="SourceGraphic" in2="effect1_dropShadow_408_7" result="shape"/>
<feColorMatrix in="SourceAlpha" type="matrix" values="0 0 0 0 0 0 0 0 0 0 0 0 0 0 0 0 0 0 127 0" result="hardAlpha"/>
<feOffset dx="0.67036" dy="-1.00554"/>
<feGaussianBlur stdDeviation="0.67036"/>
<feComposite in2="hardAlpha" operator="arithmetic" k2="-1" k3="1"/>
<feColorMatrix type="matrix" values="0 0 0 0 0 0 0 0 0 0 0 0 0 0 0 0 0 0 0.25 0"/>
<feBlend mode="normal" in2="shape" result="effect2_innerShadow_408_7"/>
</filter>
<linearGradient id="paint0_linear_408_7" x1="73.58" y1="320.704" x2="-8.88536" y2="373.115" gradientUnits="userSpaceOnUse">
<stop stop-color="#0C1A35"/>
<stop offset="1" stop-color="#013047"/>
</linearGradient>
<linearGradient id="paint1_linear_408_7" x1="224.019" y1="144.969" x2="100.604" y2="362.883" gradientUnits="userSpaceOnUse">
<stop stop-color="#0C1A35"/>
<stop offset="1" stop-color="#035A7A"/>
</linearGradient>
<linearGradient id="paint2_linear_408_7" x1="-153.885" y1="294.484" x2="198.595" y2="432.925" gradientUnits="userSpaceOnUse">
<stop offset="0.990385" stop-color="#FFC446"/>
</linearGradient>
<linearGradient id="paint3_linear_408_7" x1="154.367" y1="297.926" x2="86.0609" y2="323.76" gradientUnits="userSpaceOnUse">
<stop stop-color="#0C1A35"/>
<stop offset="1" stop-color="#035A7A"/>
</linearGradient>
<linearGradient id="paint4_linear_408_7" x1="154.367" y1="297.926" x2="86.0609" y2="323.76" gradientUnits="userSpaceOnUse">
<stop stop-color="#0C1A35"/>
<stop offset="1" stop-color="#035A7A"/>
</linearGradient>
<linearGradient id="paint5_linear_408_7" x1="39.5094" y1="263.746" x2="38.8681" y2="202.472" gradientUnits="userSpaceOnUse">
<stop stop-color="#0C1A35"/>
<stop offset="1" stop-color="#035A7A"/>
</linearGradient>
<linearGradient id="paint6_linear_408_7" x1="64.0551" y1="348.294" x2="-33.4012" y2="387.567" gradientUnits="userSpaceOnUse">
<stop offset="0.504808" stop-color="#0C1A35"/>
<stop offset="1" stop-color="#013047"/>
</linearGradient>
<linearGradient id="paint7_linear_408_7" x1="24.9993" y1="492.179" x2="-28.1204" y2="554.811" gradientUnits="userSpaceOnUse">
<stop stop-color="#0C1A35"/>
<stop offset="1" stop-color="#013047"/>
</linearGradient>
<linearGradient id="paint8_linear_408_7" x1="24.9993" y1="492.179" x2="-28.1204" y2="554.811" gradientUnits="userSpaceOnUse">
<stop stop-color="#0C1A35"/>
<stop offset="1" stop-color="#013047"/>
</linearGradient>
<linearGradient id="paint9_linear_408_7" x1="67.8333" y1="493.732" x2="33.6599" y2="505.578" gradientUnits="userSpaceOnUse">
<stop stop-color="#0C1A35"/>
<stop offset="1" stop-color="#035A7A"/>
</linearGradient>
</defs>
</svg>
