<svg width="362" height="364" viewBox="0 0 362 364" fill="none" xmlns="http://www.w3.org/2000/svg">
<g clip-path="url(#clip0_264_480)">
<rect width="362" height="364" fill="#ECC691"/>
<g opacity="0.1">
<path d="M-31.0271 130.172C-34.7377 143.507 -31.8206 153.651 -30.1989 152.976C-28.5784 152.301 -24.6268 133.99 -24.6268 133.99C-20.9162 120.655 -23.8333 110.512 -25.4549 111.186C-27.0754 111.861 -31.0271 130.172 -31.0271 130.172Z" fill="#D09D56"/>
<path d="M-23.8262 108.381C-25.6553 107.29 -26.4901 104.197 -25.6907 101.474C-24.8914 98.7499 -22.7606 97.4264 -20.9314 98.5174C-19.1023 99.6085 -18.2675 102.701 -19.0669 105.425C-19.8662 108.148 -21.997 109.472 -23.8262 108.381Z" fill="#D09D56"/>
<path d="M-34.7861 165.609C-36.6152 164.518 -37.45 161.425 -36.6507 158.702C-35.8513 155.978 -33.7205 154.654 -31.8914 155.746C-30.0623 156.837 -29.2275 159.929 -30.0268 162.653C-30.8262 165.376 -32.957 166.7 -34.7861 165.609Z" fill="#D09D56"/>
<path d="M-39.775 157.688C-39.775 157.688 -35.9931 130.122 -30.5921 115.526C-25.191 100.929 -39.7502 100.354 -38.4614 109.815C-37.1726 119.276 -39.2444 114.562 -39.0026 124.123C-38.7608 133.684 -50.8722 167.605 -46.7285 170.508C-43.0128 173.111 -39.7755 157.69 -39.7755 157.69L-39.775 157.688Z" fill="#D09D56"/>
<path d="M-9.37711 116.986C-13.0877 130.321 -10.1706 140.465 -8.54897 139.79C-6.92846 139.115 -2.97683 120.804 -2.97683 120.804C0.7338 107.469 -2.18332 97.3257 -3.80496 98C-5.42548 98.6751 -9.37711 116.986 -9.37711 116.986Z" fill="#D09D56"/>
<path d="M-2.1762 95.1946C-4.00533 94.1036 -4.84012 91.0111 -4.04076 88.2874C-3.24141 85.5637 -1.11061 84.2403 0.718514 85.3313C2.54764 86.4224 3.38244 89.5148 2.58309 92.2385C1.78373 94.9622 -0.34708 96.2857 -2.1762 95.1946Z" fill="#D09D56"/>
<path d="M-13.1362 152.423C-14.9653 151.332 -15.8001 148.239 -15.0007 145.516C-14.2014 142.792 -12.0706 141.468 -10.2414 142.559C-8.41231 143.65 -7.57754 146.743 -8.37689 149.467C-9.17625 152.19 -11.307 153.514 -13.1362 152.423Z" fill="#D09D56"/>
<path d="M-18.1251 144.502C-18.1251 144.502 -14.3431 116.936 -8.94209 102.34C-3.54106 87.7432 -18.1003 87.1674 -16.8115 96.6287C-15.5227 106.09 -17.5944 101.376 -17.3526 110.937C-17.1108 120.498 -29.2223 154.419 -25.0786 157.322C-21.3628 159.925 -18.1255 144.504 -18.1255 144.504L-18.1251 144.502Z" fill="#D09D56"/>
<path d="M-52.0629 141.266C-55.7736 154.601 -52.8564 164.744 -51.2348 164.07C-49.6143 163.395 -45.6627 145.084 -45.6627 145.084C-41.952 131.749 -44.8691 121.605 -46.4908 122.28C-48.1113 122.955 -52.0629 141.266 -52.0629 141.266Z" fill="#D09D56"/>
<path d="M-44.862 119.474C-46.6912 118.383 -47.5259 115.291 -46.7266 112.567C-45.9272 109.844 -43.7964 108.52 -41.9673 109.611C-40.1382 110.702 -39.3034 113.795 -40.1028 116.518C-40.9021 119.242 -43.0329 120.565 -44.862 119.474Z" fill="#D09D56"/>
<path d="M-55.822 176.703C-57.6511 175.611 -58.4859 172.519 -57.6865 169.795C-56.8872 167.072 -54.7564 165.748 -52.9273 166.839C-51.0981 167.93 -50.2634 171.023 -51.0627 173.746C-51.8621 176.47 -53.9929 177.794 -55.822 176.703Z" fill="#D09D56"/>
<path d="M-60.8109 168.782C-60.8109 168.782 -57.029 141.216 -51.6279 126.619C-46.2269 112.023 -60.7861 111.447 -59.4973 120.908C-58.2085 130.37 -60.2802 125.656 -60.0384 135.217C-59.7966 144.778 -71.9081 178.699 -67.7644 181.602C-64.0486 184.204 -60.8114 168.784 -60.8114 168.784L-60.8109 168.782Z" fill="#D09D56"/>
<path d="M34.4834 95.8863C30.7727 109.221 33.6899 119.365 35.3115 118.69C36.932 118.015 40.8836 99.704 40.8836 99.704C44.5943 86.3689 41.6772 76.2258 40.0555 76.9001C38.435 77.5752 34.4834 95.8863 34.4834 95.8863Z" fill="#D09D56"/>
<path d="M41.6843 74.0947C39.8552 73.0037 39.0204 69.9112 39.8197 67.1875C40.6191 64.4639 42.7499 63.1404 44.579 64.2314C46.4081 65.3225 47.2429 68.4149 46.4436 71.1386C45.6442 73.8623 43.5134 75.1858 41.6843 74.0947Z" fill="#D09D56"/>
<path d="M30.7243 131.323C28.8952 130.232 28.0604 127.139 28.8597 124.416C29.6591 121.692 31.7899 120.368 33.619 121.46C35.4482 122.551 36.283 125.643 35.4836 128.367C34.6842 131.09 32.5534 132.414 30.7243 131.323Z" fill="#D09D56"/>
<path d="M25.7354 123.402C25.7354 123.402 29.5173 95.8361 34.9184 81.2397C40.3194 66.6433 25.7602 66.0675 27.049 75.5287C28.3378 84.99 26.2661 80.2761 26.5079 89.8372C26.7497 99.3983 14.6382 133.319 18.7819 136.222C22.4977 138.825 25.7349 123.404 25.7349 123.404L25.7354 123.402Z" fill="#D09D56"/>
<path d="M56.1333 82.7002C52.4227 96.0354 55.3398 106.179 56.9615 105.504C58.582 104.829 62.5336 86.518 62.5336 86.518C66.2442 73.1828 63.3271 63.0397 61.7055 63.714C60.0849 64.3891 56.1333 82.7002 56.1333 82.7002Z" fill="#D09D56"/>
<path d="M63.3342 60.9086C61.5051 59.8176 60.6703 56.7251 61.4697 54.0014C62.269 51.2778 64.3998 49.9543 66.2289 51.0453C68.0581 52.1364 68.8929 55.2288 68.0935 57.9525C67.2942 60.6762 65.1634 61.9997 63.3342 60.9086Z" fill="#D09D56"/>
<path d="M52.3743 118.137C50.5452 117.046 49.7103 113.953 50.5097 111.23C51.3091 108.506 53.4399 107.182 55.269 108.273C57.0981 109.365 57.9329 112.457 57.1335 115.181C56.3342 117.904 54.2034 119.228 52.3743 118.137Z" fill="#D09D56"/>
<path d="M47.3854 110.216C47.3854 110.216 51.1673 82.65 56.5683 68.0536C61.9694 53.4572 47.4101 52.8814 48.6989 62.3427C49.9877 71.8039 47.916 67.09 48.1578 76.6511C48.3996 86.2122 36.2881 120.133 40.4318 123.036C44.1476 125.638 47.3849 110.218 47.3849 110.218L47.3854 110.216Z" fill="#D09D56"/>
<path d="M13.4475 106.98C9.73688 120.315 12.654 130.458 14.2756 129.784C15.8961 129.109 19.8478 110.798 19.8478 110.798C23.5584 97.4626 20.6413 87.3194 19.0197 87.9938C17.3991 88.6688 13.4475 106.98 13.4475 106.98Z" fill="#D09D56"/>
<path d="M20.6484 85.1884C18.8193 84.0973 17.9845 81.0049 18.7838 78.2812C19.5832 75.5576 21.714 74.2341 23.5431 75.3251C25.3722 76.4162 26.207 79.5086 25.4077 82.2323C24.6083 84.956 22.4775 86.2795 20.6484 85.1884Z" fill="#D09D56"/>
<path d="M9.68845 142.417C7.85933 141.325 7.02454 138.233 7.82389 135.509C8.62325 132.786 10.7541 131.462 12.5832 132.553C14.4123 133.644 15.2471 136.737 14.4477 139.46C13.6484 142.184 11.5176 143.508 9.68845 142.417Z" fill="#D09D56"/>
<path d="M4.69954 134.496C4.69954 134.496 8.48148 106.93 13.8825 92.3334C19.2835 77.737 4.72432 77.1612 6.01313 86.6225C7.30193 96.0837 5.2302 91.3698 5.47199 100.931C5.71379 110.492 -6.39769 144.413 -2.25398 147.316C1.46181 149.918 4.69907 134.498 4.69907 134.498L4.69954 134.496Z" fill="#D09D56"/>
<path d="M98.9056 60.6695C95.195 74.0047 98.1121 84.1478 99.7337 83.4734C101.354 82.7984 105.306 64.4872 105.306 64.4872C109.017 51.1521 106.099 41.009 104.478 41.6833C102.857 42.3584 98.9056 60.6695 98.9056 60.6695Z" fill="#D09D56"/>
<path d="M106.107 38.8779C104.277 37.7869 103.443 34.6944 104.242 31.9707C105.041 29.2471 107.172 27.9236 109.001 29.0146C110.83 30.1057 111.665 33.1981 110.866 35.9218C110.066 38.6455 107.936 39.969 106.107 38.8779Z" fill="#D09D56"/>
<path d="M95.1466 96.106C93.3174 95.015 92.4826 91.9225 93.282 89.1989C94.0813 86.4752 96.2122 85.1517 98.0413 86.2427C99.8704 87.3338 100.705 90.4263 99.9058 93.1499C99.1065 95.8736 96.9757 97.1971 95.1466 96.106Z" fill="#D09D56"/>
<path d="M90.1577 88.1857C90.1577 88.1857 93.9396 60.6193 99.3406 46.0229C104.742 31.4265 90.1824 30.8507 91.4712 40.3119C92.76 49.7732 90.6883 45.0593 90.9301 54.6204C91.1719 64.1815 79.0604 98.1026 83.2041 101.006C86.9199 103.608 90.1572 88.1873 90.1572 88.1873L90.1577 88.1857Z" fill="#D09D56"/>
<path d="M120.556 47.4834C116.845 60.8186 119.762 70.9617 121.384 70.2873C123.004 69.6123 126.956 51.3012 126.956 51.3012C130.666 37.966 127.749 27.8229 126.128 28.4972C124.507 29.1723 120.556 47.4834 120.556 47.4834Z" fill="#D09D56"/>
<path d="M127.756 25.6918C125.927 24.6008 125.093 21.5083 125.892 18.7846C126.691 16.0609 128.822 14.7375 130.651 15.8285C132.48 16.9196 133.315 20.012 132.516 22.7357C131.716 25.4594 129.586 26.7829 127.756 25.6918Z" fill="#D09D56"/>
<path d="M116.797 82.92C114.967 81.8289 114.133 78.7365 114.932 76.0128C115.731 73.2891 117.862 71.9656 119.691 73.0566C121.52 74.1477 122.355 77.2402 121.556 79.9639C120.756 82.6875 118.626 84.011 116.797 82.92Z" fill="#D09D56"/>
<path d="M111.808 74.9996C111.808 74.9996 115.59 47.4332 120.991 32.8368C126.392 18.2404 111.832 17.6646 113.121 27.1259C114.41 36.5871 112.338 31.8732 112.58 41.4343C112.822 50.9954 100.71 84.9165 104.854 87.8194C108.57 90.4217 111.807 75.0012 111.807 75.0012L111.808 74.9996Z" fill="#D09D56"/>
<path d="M77.8698 71.7632C74.1591 85.0984 77.0762 95.2415 78.6979 94.5671C80.3184 93.8921 84.27 75.5809 84.27 75.5809C87.9806 62.2458 85.0636 52.1027 83.4419 52.777C81.8214 53.4521 77.8698 71.7632 77.8698 71.7632Z" fill="#D09D56"/>
<path d="M85.0706 49.9716C83.2415 48.8805 82.4067 45.7881 83.2061 43.0644C84.0055 40.3408 86.1362 39.0173 87.9654 40.1083C89.7945 41.1994 90.6293 44.2918 89.8299 47.0155C89.0306 49.7392 86.8998 51.0627 85.0706 49.9716Z" fill="#D09D56"/>
<path d="M74.1107 107.2C72.2816 106.109 71.4468 103.016 72.2461 100.293C73.0455 97.5689 75.1763 96.2454 77.0054 97.3364C78.8345 98.4275 79.6693 101.52 78.87 104.244C78.0706 106.967 75.9398 108.291 74.1107 107.2Z" fill="#D09D56"/>
<path d="M69.1218 99.2794C69.1218 99.2794 72.9037 71.713 78.3048 57.1166C83.7058 42.5202 69.1466 41.9444 70.4354 51.4057C71.7242 60.8669 69.6524 56.153 69.8942 65.7141C70.136 75.2752 58.0246 109.196 62.1683 112.099C65.8841 114.701 69.1213 99.281 69.1213 99.281L69.1218 99.2794Z" fill="#D09D56"/>
<path d="M164.416 26.3835C160.705 39.7187 163.623 49.8618 165.244 49.1874C166.865 48.5124 170.816 30.2012 170.816 30.2012C174.527 16.8661 171.61 6.72298 169.988 7.39734C168.368 8.07238 164.416 26.3835 164.416 26.3835Z" fill="#D09D56"/>
<path d="M171.617 4.59194C169.788 3.50088 168.953 0.408418 169.752 -2.31526C170.552 -5.03893 172.683 -6.36243 174.512 -5.27137C176.341 -4.18031 177.176 -1.08786 176.376 1.63581C175.577 4.35949 173.446 5.683 171.617 4.59194Z" fill="#D09D56"/>
<path d="M160.657 61.82C158.828 60.729 157.993 57.6365 158.792 54.9129C159.592 52.1892 161.723 50.8657 163.552 51.9568C165.381 53.0478 166.216 56.1403 165.416 58.864C164.617 61.5876 162.486 62.9111 160.657 61.82Z" fill="#D09D56"/>
<path d="M155.668 53.8997C155.668 53.8997 159.45 26.3333 164.851 11.7369C170.252 -2.85949 155.693 -3.43529 156.982 6.02595C158.27 15.4872 156.199 10.7733 156.441 20.3344C156.682 29.8955 144.571 63.8166 148.715 66.7196C152.43 69.3218 155.668 53.9013 155.668 53.9013L155.668 53.8997Z" fill="#D09D56"/>
<path d="M186.066 13.1974C182.355 26.5326 185.272 36.6757 186.894 36.0014C188.515 35.3263 192.466 17.0152 192.466 17.0152C196.177 3.68004 193.26 -6.46313 191.638 -5.78877C190.018 -5.11373 186.066 13.1974 186.066 13.1974Z" fill="#D09D56"/>
<path d="M193.267 -8.59417C191.438 -9.68523 190.603 -12.7777 191.402 -15.5014C192.202 -18.225 194.332 -19.5485 196.162 -18.4575C197.991 -17.3664 198.826 -14.274 198.026 -11.5503C197.227 -8.82661 195.096 -7.50311 193.267 -8.59417Z" fill="#D09D56"/>
<path d="M182.307 48.634C180.478 47.5429 179.643 44.4505 180.442 41.7268C181.242 39.0031 183.373 37.6796 185.202 38.7707C187.031 39.8617 187.866 42.9542 187.066 45.6779C186.267 48.4015 184.136 49.725 182.307 48.634Z" fill="#D09D56"/>
<path d="M177.318 40.7136C177.318 40.7136 181.1 13.1472 186.501 -1.4492C191.902 -16.0456 177.343 -16.6214 178.632 -7.16014C179.92 2.30111 177.849 -2.41276 178.09 7.14833C178.332 16.7094 166.221 50.6305 170.365 53.5334C174.08 56.1357 177.318 40.7152 177.318 40.7152L177.318 40.7136Z" fill="#D09D56"/>
<path d="M143.38 37.4772C139.67 50.8124 142.587 60.9555 144.208 60.2811C145.829 59.6061 149.78 41.2949 149.78 41.2949C153.491 27.9598 150.574 17.8167 148.952 18.491C147.332 19.1661 143.38 37.4772 143.38 37.4772Z" fill="#D09D56"/>
<path d="M150.581 15.6856C148.752 14.5945 147.917 11.5021 148.717 8.77845C149.516 6.05477 151.647 4.73126 153.476 5.82232C155.305 6.91338 156.14 10.0058 155.34 12.7295C154.541 15.4532 152.41 16.7767 150.581 15.6856Z" fill="#D09D56"/>
<path d="M139.621 72.9138C137.792 71.8227 136.957 68.7303 137.757 66.0066C138.556 63.2829 140.687 61.9594 142.516 63.0504C144.345 64.1415 145.18 67.234 144.38 69.9576C143.581 72.6813 141.45 74.0048 139.621 72.9138Z" fill="#D09D56"/>
<path d="M134.632 64.9934C134.632 64.9934 138.414 37.427 143.815 22.8306C149.216 8.23418 134.657 7.65841 135.946 17.1197C137.235 26.5809 135.163 21.867 135.405 31.4281C135.646 40.9892 123.535 74.9103 127.679 77.8132C131.394 80.4155 134.632 64.995 134.632 64.995L134.632 64.9934Z" fill="#D09D56"/>
</g>
<g opacity="0.1">
<path d="M32.3226 180.649C28.6119 193.984 31.529 204.127 33.1507 203.453C34.7712 202.778 38.7228 184.467 38.7228 184.467C42.4334 171.131 39.5163 160.988 37.8947 161.663C36.2742 162.338 32.3226 180.649 32.3226 180.649Z" fill="#D09D56"/>
<path d="M39.5235 158.857C37.6943 157.766 36.8595 154.674 37.6589 151.95C38.4582 149.226 40.5891 147.903 42.4182 148.994C44.2473 150.085 45.0821 153.177 44.2827 155.901C43.4834 158.625 41.3526 159.948 39.5235 158.857Z" fill="#D09D56"/>
<path d="M28.5635 216.085C26.7344 214.994 25.8996 211.902 26.6989 209.178C27.4983 206.455 29.6291 205.131 31.4582 206.222C33.2873 207.313 34.1221 210.406 33.3228 213.129C32.5234 215.853 30.3926 217.176 28.5635 216.085Z" fill="#D09D56"/>
<path d="M23.5746 208.165C23.5746 208.165 27.3565 180.599 32.7575 166.002C38.1586 151.406 23.5994 150.83 24.8882 160.291C26.177 169.753 24.1052 165.039 24.347 174.6C24.5888 184.161 12.4774 218.082 16.6211 220.985C20.3369 223.587 23.5741 208.167 23.5741 208.167L23.5746 208.165Z" fill="#D09D56"/>
<path d="M53.9725 167.463C50.2619 180.798 53.179 190.941 54.8006 190.267C56.4212 189.592 60.3728 171.281 60.3728 171.281C64.0834 157.945 61.1663 147.802 59.5446 148.477C57.9241 149.152 53.9725 167.463 53.9725 167.463Z" fill="#D09D56"/>
<path d="M61.1734 145.671C59.3443 144.58 58.5095 141.488 59.3088 138.764C60.1082 136.04 62.239 134.717 64.0681 135.808C65.8972 136.899 66.7321 139.991 65.9327 142.715C65.1333 145.439 63.0025 146.762 61.1734 145.671Z" fill="#D09D56"/>
<path d="M50.2135 202.899C48.3843 201.808 47.5495 198.716 48.3489 195.992C49.1482 193.268 51.2791 191.945 53.1082 193.036C54.9373 194.127 55.7721 197.22 54.9727 199.943C54.1734 202.667 52.0426 203.99 50.2135 202.899Z" fill="#D09D56"/>
<path d="M45.2246 194.979C45.2246 194.979 49.0065 167.413 54.4075 152.816C59.8085 138.22 45.2493 137.644 46.5381 147.105C47.8269 156.566 45.7552 151.853 45.997 161.414C46.2388 170.975 34.1273 204.896 38.271 207.799C41.9868 210.401 45.2241 194.981 45.2241 194.981L45.2246 194.979Z" fill="#D09D56"/>
<path d="M11.2867 191.743C7.57605 205.078 10.4932 215.221 12.1148 214.546C13.7353 213.871 17.6869 195.56 17.6869 195.56C21.3976 182.225 18.4805 172.082 16.8588 172.756C15.2383 173.431 11.2867 191.743 11.2867 191.743Z" fill="#D09D56"/>
<path d="M18.4876 169.951C16.6585 168.86 15.8237 165.767 16.623 163.044C17.4224 160.32 19.5532 158.997 21.3823 160.088C23.2114 161.179 24.0462 164.271 23.2469 166.995C22.4475 169.719 20.3167 171.042 18.4876 169.951Z" fill="#D09D56"/>
<path d="M7.52762 227.179C5.6985 226.088 4.86371 222.996 5.66307 220.272C6.46242 217.548 8.59322 216.225 10.4223 217.316C12.2515 218.407 13.0862 221.499 12.2869 224.223C11.4875 226.947 9.35675 228.27 7.52762 227.179Z" fill="#D09D56"/>
<path d="M2.53872 219.259C2.53872 219.259 6.32066 191.692 11.7217 177.096C17.1227 162.5 2.5635 161.924 3.8523 171.385C5.14111 180.846 3.06938 176.132 3.31117 185.693C3.55297 195.255 -8.55851 229.176 -4.4148 232.079C-0.699016 234.681 2.53824 219.26 2.53824 219.26L2.53872 219.259Z" fill="#D09D56"/>
<path d="M97.833 146.363C94.1224 159.698 97.0395 169.841 98.6611 169.167C100.282 168.492 104.233 150.181 104.233 150.181C107.944 136.845 105.027 126.702 103.405 127.377C101.785 128.052 97.833 146.363 97.833 146.363Z" fill="#D09D56"/>
<path d="M105.034 124.571C103.205 123.48 102.37 120.388 103.169 117.664C103.969 114.94 106.099 113.617 107.929 114.708C109.758 115.799 110.593 118.891 109.793 121.615C108.994 124.339 106.863 125.662 105.034 124.571Z" fill="#D09D56"/>
<path d="M94.0739 181.799C92.2448 180.708 91.41 177.616 92.2093 174.892C93.0087 172.169 95.1395 170.845 96.9686 171.936C98.7978 173.027 99.6326 176.12 98.8332 178.843C98.0339 181.567 95.903 182.89 94.0739 181.799Z" fill="#D09D56"/>
<path d="M89.085 173.879C89.085 173.879 92.8669 146.313 98.268 131.716C103.669 117.12 89.1098 116.544 90.3986 126.005C91.6874 135.467 89.6157 130.753 89.8575 140.314C90.0993 149.875 77.9878 183.796 82.1315 186.699C85.8473 189.301 89.0845 173.881 89.0845 173.881L89.085 173.879Z" fill="#D09D56"/>
<path d="M119.483 133.177C115.772 146.512 118.689 156.655 120.311 155.981C121.932 155.306 125.883 136.995 125.883 136.995C129.594 123.659 126.677 113.516 125.055 114.191C123.435 114.866 119.483 133.177 119.483 133.177Z" fill="#D09D56"/>
<path d="M126.684 111.385C124.855 110.294 124.02 107.202 124.819 104.478C125.619 101.754 127.749 100.431 129.579 101.522C131.408 102.613 132.242 105.705 131.443 108.429C130.644 111.153 128.513 112.476 126.684 111.385Z" fill="#D09D56"/>
<path d="M115.724 168.613C113.895 167.522 113.06 164.43 113.859 161.706C114.659 158.982 116.789 157.659 118.619 158.75C120.448 159.841 121.282 162.934 120.483 165.657C119.684 168.381 117.553 169.704 115.724 168.613Z" fill="#D09D56"/>
<path d="M110.735 160.693C110.735 160.693 114.517 133.127 119.918 118.53C125.319 103.934 110.76 103.358 112.049 112.819C113.337 122.28 111.266 117.567 111.507 127.128C111.749 136.689 99.6377 170.61 103.781 173.513C107.497 176.115 110.735 160.695 110.735 160.695L110.735 160.693Z" fill="#D09D56"/>
<path d="M76.7971 157.457C73.0865 170.792 76.0036 180.935 77.6252 180.26C79.2458 179.585 83.1974 161.274 83.1974 161.274C86.908 147.939 83.9909 137.796 82.3693 138.47C80.7488 139.145 76.7971 157.457 76.7971 157.457Z" fill="#D09D56"/>
<path d="M83.998 135.665C82.1689 134.574 81.3341 131.481 82.1335 128.758C82.9328 126.034 85.0636 124.711 86.8927 125.802C88.7219 126.893 89.5566 129.985 88.7573 132.709C87.9579 135.433 85.8271 136.756 83.998 135.665Z" fill="#D09D56"/>
<path d="M73.0381 192.893C71.2089 191.802 70.3741 188.71 71.1735 185.986C71.9729 183.262 74.1037 181.939 75.9328 183.03C77.7619 184.121 78.5967 187.213 77.7973 189.937C76.998 192.661 74.8672 193.984 73.0381 192.893Z" fill="#D09D56"/>
<path d="M68.0491 184.973C68.0491 184.973 71.8311 157.406 77.2321 142.81C82.6332 128.214 68.0739 127.638 69.3627 137.099C70.6515 146.56 68.5798 141.846 68.8216 151.407C69.0634 160.969 56.9519 194.89 61.0956 197.793C64.8114 200.395 68.0487 184.974 68.0487 184.974L68.0491 184.973Z" fill="#D09D56"/>
<path d="M162.255 111.146C158.545 124.481 161.462 134.624 163.083 133.95C164.704 133.275 168.655 114.964 168.655 114.964C172.366 101.629 169.449 91.4855 167.827 92.1599C166.207 92.8349 162.255 111.146 162.255 111.146Z" fill="#D09D56"/>
<path d="M169.456 89.3545C167.627 88.2634 166.792 85.171 167.592 82.4473C168.391 79.7236 170.522 78.4001 172.351 79.4912C174.18 80.5822 175.015 83.6747 174.215 86.3984C173.416 89.122 171.285 90.4456 169.456 89.3545Z" fill="#D09D56"/>
<path d="M158.496 146.583C156.667 145.492 155.832 142.399 156.632 139.675C157.431 136.952 159.562 135.628 161.391 136.719C163.22 137.81 164.055 140.903 163.255 143.627C162.456 146.35 160.325 147.674 158.496 146.583Z" fill="#D09D56"/>
<path d="M153.507 138.662C153.507 138.662 157.289 111.096 162.69 96.4995C168.091 81.9031 153.532 81.3273 154.821 90.7885C156.11 100.25 154.038 95.5359 154.28 105.097C154.522 114.658 142.41 148.579 146.554 151.482C150.27 154.084 153.507 138.664 153.507 138.664L153.507 138.662Z" fill="#D09D56"/>
<path d="M183.905 97.96C180.195 111.295 183.112 121.438 184.733 120.764C186.354 120.089 190.305 101.778 190.305 101.778C194.016 88.4426 191.099 78.2994 189.477 78.9738C187.857 79.6488 183.905 97.96 183.905 97.96Z" fill="#D09D56"/>
<path d="M191.106 76.1684C189.277 75.0773 188.442 71.9849 189.242 69.2612C190.041 66.5375 192.172 65.214 194.001 66.3051C195.83 67.3962 196.665 70.4886 195.865 73.2123C195.066 75.9359 192.935 77.2594 191.106 76.1684Z" fill="#D09D56"/>
<path d="M180.146 133.397C178.317 132.305 177.482 129.213 178.282 126.489C179.081 123.766 181.212 122.442 183.041 123.533C184.87 124.624 185.705 127.717 184.905 130.44C184.106 133.164 181.975 134.488 180.146 133.397Z" fill="#D09D56"/>
<path d="M175.157 125.476C175.157 125.476 178.939 97.9098 184.34 83.3134C189.741 68.717 175.182 68.1412 176.471 77.6024C177.76 87.0637 175.688 82.3498 175.93 91.9109C176.171 101.472 164.06 135.393 168.204 138.296C171.919 140.898 175.157 125.478 175.157 125.478L175.157 125.476Z" fill="#D09D56"/>
<path d="M141.219 122.24C137.509 135.575 140.426 145.718 142.047 145.044C143.668 144.369 147.62 126.058 147.62 126.058C151.33 112.722 148.413 102.579 146.792 103.254C145.171 103.929 141.219 122.24 141.219 122.24Z" fill="#D09D56"/>
<path d="M148.42 100.448C146.591 99.3571 145.756 96.2647 146.556 93.541C147.355 90.8173 149.486 89.4938 151.315 90.5849C153.144 91.6759 153.979 94.7684 153.18 97.4921C152.38 100.216 150.249 101.539 148.42 100.448Z" fill="#D09D56"/>
<path d="M137.46 157.676C135.631 156.585 134.796 153.493 135.596 150.769C136.395 148.045 138.526 146.722 140.355 147.813C142.184 148.904 143.019 151.997 142.22 154.72C141.42 157.444 139.289 158.767 137.46 157.676Z" fill="#D09D56"/>
<path d="M132.471 149.756C132.471 149.756 136.253 122.19 141.654 107.593C147.055 92.9967 132.496 92.421 133.785 101.882C135.074 111.343 133.002 106.63 133.244 116.191C133.486 125.752 121.374 159.673 125.518 162.576C129.234 165.178 132.471 149.758 132.471 149.758L132.471 149.756Z" fill="#D09D56"/>
<path d="M227.766 76.8601C224.055 90.1952 226.972 100.338 228.594 99.664C230.214 98.989 234.166 80.6778 234.166 80.6778C237.877 67.3427 234.959 57.1995 233.338 57.8739C231.717 58.5489 227.766 76.8601 227.766 76.8601Z" fill="#D09D56"/>
<path d="M234.967 55.0685C233.137 53.9774 232.303 50.885 233.102 48.1613C233.901 45.4376 236.032 44.1141 237.861 45.2052C239.69 46.2962 240.525 49.3887 239.726 52.1124C238.926 54.8361 236.796 56.1596 234.967 55.0685Z" fill="#D09D56"/>
<path d="M224.007 112.297C222.177 111.206 221.343 108.113 222.142 105.389C222.941 102.666 225.072 101.342 226.901 102.433C228.73 103.524 229.565 106.617 228.766 109.341C227.967 112.064 225.836 113.388 224.007 112.297Z" fill="#D09D56"/>
<path d="M219.018 104.376C219.018 104.376 222.8 76.8099 228.201 62.2135C233.602 47.6171 219.042 47.0413 220.331 56.5025C221.62 65.9638 219.548 61.2499 219.79 70.811C220.032 80.3721 207.92 114.293 212.064 117.196C215.78 119.798 219.017 104.378 219.017 104.378L219.018 104.376Z" fill="#D09D56"/>
<path d="M249.416 63.674C245.705 77.0091 248.622 87.1523 250.244 86.4779C251.864 85.8029 255.816 67.4917 255.816 67.4917C259.527 54.1566 256.609 44.0134 254.988 44.6878C253.367 45.3628 249.416 63.674 249.416 63.674Z" fill="#D09D56"/>
<path d="M256.616 41.8824C254.787 40.7913 253.953 37.6989 254.752 34.9752C255.551 32.2515 257.682 30.928 259.511 32.0191C261.34 33.1102 262.175 36.2026 261.376 38.9263C260.576 41.6499 258.446 42.9734 256.616 41.8824Z" fill="#D09D56"/>
<path d="M245.657 99.1105C243.827 98.0195 242.993 94.927 243.792 92.2034C244.591 89.4797 246.722 88.1562 248.551 89.2472C250.38 90.3383 251.215 93.4308 250.416 96.1544C249.616 98.8781 247.486 100.202 245.657 99.1105Z" fill="#D09D56"/>
<path d="M240.668 91.1901C240.668 91.1901 244.45 63.6238 249.851 49.0274C255.252 34.431 240.692 33.8552 241.981 43.3164C243.27 52.7777 241.198 48.0638 241.44 57.6249C241.682 67.186 229.57 101.107 233.714 104.01C237.43 106.612 240.667 91.1918 240.667 91.1918L240.668 91.1901Z" fill="#D09D56"/>
<path d="M206.73 87.9538C203.019 101.289 205.936 111.432 207.558 110.758C209.178 110.083 213.13 91.7715 213.13 91.7715C216.841 78.4364 213.924 68.2932 212.302 68.9676C210.681 69.6426 206.73 87.9538 206.73 87.9538Z" fill="#D09D56"/>
<path d="M213.931 66.1622C212.102 65.0711 211.267 61.9787 212.066 59.255C212.865 56.5313 214.996 55.2078 216.825 56.2989C218.655 57.3899 219.489 60.4824 218.69 63.2061C217.891 65.9298 215.76 67.2532 213.931 66.1622Z" fill="#D09D56"/>
<path d="M202.971 123.39C201.142 122.299 200.307 119.207 201.106 116.483C201.906 113.759 204.036 112.436 205.865 113.527C207.695 114.618 208.529 117.711 207.73 120.434C206.931 123.158 204.8 124.481 202.971 123.39Z" fill="#D09D56"/>
<path d="M197.982 115.47C197.982 115.47 201.764 87.9035 207.165 73.3071C212.566 58.7107 198.007 58.135 199.295 67.5962C200.584 77.0575 198.512 72.3436 198.754 81.9047C198.996 91.4658 186.885 125.387 191.028 128.29C194.744 130.892 197.981 115.472 197.981 115.472L197.982 115.47Z" fill="#D09D56"/>
</g>
<g opacity="0.1">
<path d="M43.1321 261.34C39.4215 274.675 42.3386 284.819 43.9602 284.144C45.5808 283.469 49.5324 265.158 49.5324 265.158C53.243 251.823 50.3259 241.68 48.7043 242.354C47.0837 243.029 43.1321 261.34 43.1321 261.34Z" fill="#D09D56"/>
<path d="M50.333 239.549C48.5039 238.458 47.6691 235.365 48.4685 232.642C49.2678 229.918 51.3986 228.594 53.2277 229.685C55.0569 230.776 55.8917 233.869 55.0923 236.593C54.2929 239.316 52.1621 240.64 50.333 239.549Z" fill="#D09D56"/>
<path d="M39.3731 296.777C37.5439 295.686 36.7091 292.593 37.5085 289.87C38.3078 287.146 40.4387 285.822 42.2678 286.914C44.0969 288.005 44.9317 291.097 44.1323 293.821C43.333 296.544 41.2022 297.868 39.3731 296.777Z" fill="#D09D56"/>
<path d="M34.3842 288.856C34.3842 288.856 38.1661 261.29 43.5671 246.694C48.9681 232.097 34.4089 231.521 35.6977 240.983C36.9865 250.444 34.9148 245.73 35.1566 255.291C35.3984 264.852 23.2869 298.773 27.4306 301.676C31.1464 304.279 34.3837 288.858 34.3837 288.858L34.3842 288.856Z" fill="#D09D56"/>
<path d="M64.7821 248.154C61.0714 261.489 63.9886 271.632 65.6102 270.958C67.2307 270.283 71.1823 251.972 71.1823 251.972C74.893 238.637 71.9759 228.494 70.3542 229.168C68.7337 229.843 64.7821 248.154 64.7821 248.154Z" fill="#D09D56"/>
<path d="M71.983 226.363C70.1539 225.272 69.3191 222.179 70.1184 219.455C70.9178 216.732 73.0486 215.408 74.8777 216.499C76.7068 217.59 77.5416 220.683 76.7423 223.406C75.9429 226.13 73.8121 227.454 71.983 226.363Z" fill="#D09D56"/>
<path d="M61.023 283.591C59.1939 282.5 58.3591 279.407 59.1585 276.684C59.9578 273.96 62.0886 272.636 63.9177 273.727C65.7469 274.818 66.5816 277.911 65.7823 280.635C64.9829 283.358 62.8521 284.682 61.023 283.591Z" fill="#D09D56"/>
<path d="M56.0341 275.67C56.0341 275.67 59.8161 248.104 65.2171 233.508C70.6181 218.911 56.0589 218.335 57.3477 227.797C58.6365 237.258 56.5648 232.544 56.8066 242.105C57.0483 251.666 44.9369 285.587 49.0806 288.49C52.7964 291.092 56.0336 275.672 56.0336 275.672L56.0341 275.67Z" fill="#D09D56"/>
<path d="M22.0963 272.434C18.3856 285.769 21.3027 295.912 22.9244 295.238C24.5449 294.563 28.4965 276.252 28.4965 276.252C32.2072 262.917 29.2901 252.773 27.6684 253.448C26.0479 254.123 22.0963 272.434 22.0963 272.434Z" fill="#D09D56"/>
<path d="M29.2971 250.642C27.468 249.551 26.6332 246.459 27.4326 243.735C28.2319 241.012 30.3627 239.688 32.1919 240.779C34.021 241.87 34.8558 244.963 34.0564 247.686C33.2571 250.41 31.1263 251.733 29.2971 250.642Z" fill="#D09D56"/>
<path d="M18.3372 307.87C16.5081 306.779 15.6733 303.687 16.4726 300.963C17.272 298.24 19.4028 296.916 21.2319 298.007C23.061 299.098 23.8958 302.191 23.0965 304.914C22.2971 307.638 20.1663 308.962 18.3372 307.87Z" fill="#D09D56"/>
<path d="M13.3483 299.95C13.3483 299.95 17.1302 272.384 22.5313 257.787C27.9323 243.191 13.3731 242.615 14.6619 252.076C15.9507 261.538 13.8789 256.824 14.1207 266.385C14.3625 275.946 2.25106 309.867 6.39477 312.77C10.1106 315.372 13.3478 299.952 13.3478 299.952L13.3483 299.95Z" fill="#D09D56"/>
<path d="M108.643 227.054C104.932 240.389 107.849 250.533 109.471 249.858C111.091 249.183 115.043 230.872 115.043 230.872C118.753 217.537 115.836 207.394 114.215 208.068C112.594 208.743 108.643 227.054 108.643 227.054Z" fill="#D09D56"/>
<path d="M115.843 205.263C114.014 204.172 113.18 201.079 113.979 198.356C114.778 195.632 116.909 194.308 118.738 195.399C120.567 196.49 121.402 199.583 120.603 202.307C119.803 205.03 117.673 206.354 115.843 205.263Z" fill="#D09D56"/>
<path d="M104.883 262.491C103.054 261.4 102.22 258.307 103.019 255.584C103.818 252.86 105.949 251.536 107.778 252.628C109.607 253.719 110.442 256.811 109.643 259.535C108.843 262.258 106.713 263.582 104.883 262.491Z" fill="#D09D56"/>
<path d="M99.8946 254.57C99.8946 254.57 103.677 227.004 109.078 212.408C114.479 197.811 99.9194 197.235 101.208 206.697C102.497 216.158 100.425 211.444 100.667 221.005C100.909 230.566 88.7974 264.487 92.9411 267.39C96.6569 269.993 99.8941 254.572 99.8941 254.572L99.8946 254.57Z" fill="#D09D56"/>
<path d="M130.293 213.868C126.582 227.203 129.499 237.346 131.121 236.672C132.741 235.997 136.693 217.686 136.693 217.686C140.403 204.351 137.486 194.208 135.865 194.882C134.244 195.557 130.293 213.868 130.293 213.868Z" fill="#D09D56"/>
<path d="M137.493 192.077C135.664 190.986 134.829 187.893 135.629 185.169C136.428 182.446 138.559 181.122 140.388 182.213C142.217 183.304 143.052 186.397 142.253 189.12C141.453 191.844 139.323 193.168 137.493 192.077Z" fill="#D09D56"/>
<path d="M126.533 249.305C124.704 248.214 123.87 245.121 124.669 242.398C125.468 239.674 127.599 238.35 129.428 239.441C131.257 240.532 132.092 243.625 131.293 246.349C130.493 249.072 128.363 250.396 126.533 249.305Z" fill="#D09D56"/>
<path d="M121.545 241.384C121.545 241.384 125.326 213.818 130.728 199.222C136.129 184.625 121.569 184.049 122.858 193.511C124.147 202.972 122.075 198.258 122.317 207.819C122.559 217.38 110.447 251.301 114.591 254.204C118.307 256.806 121.544 241.386 121.544 241.386L121.545 241.384Z" fill="#D09D56"/>
<path d="M87.6067 238.148C83.8961 251.483 86.8132 261.626 88.4348 260.952C90.0553 260.277 94.007 241.966 94.007 241.966C97.7176 228.631 94.8005 218.487 93.1788 219.162C91.5583 219.837 87.6067 238.148 87.6067 238.148Z" fill="#D09D56"/>
<path d="M94.8076 216.356C92.9785 215.265 92.1437 212.173 92.943 209.449C93.7424 206.726 95.8732 205.402 97.7023 206.493C99.5314 207.584 100.366 210.677 99.5669 213.4C98.7675 216.124 96.6367 217.447 94.8076 216.356Z" fill="#D09D56"/>
<path d="M83.8476 273.585C82.0185 272.493 81.1837 269.401 81.9831 266.677C82.7824 263.954 84.9132 262.63 86.7424 263.721C88.5715 264.812 89.4062 267.905 88.6069 270.628C87.8075 273.352 85.6768 274.676 83.8476 273.585Z" fill="#D09D56"/>
<path d="M78.8587 265.664C78.8587 265.664 82.6407 238.098 88.0417 223.501C93.4427 208.905 78.8835 208.329 80.1723 217.79C81.4611 227.252 79.3894 222.538 79.6312 232.099C79.873 241.66 67.7615 275.581 71.9052 278.484C75.621 281.086 78.8582 265.666 78.8582 265.666L78.8587 265.664Z" fill="#D09D56"/>
<path d="M173.065 191.837C169.354 205.173 172.271 215.316 173.893 214.641C175.513 213.966 179.465 195.655 179.465 195.655C183.176 182.32 180.259 172.177 178.637 172.851C177.016 173.526 173.065 191.837 173.065 191.837Z" fill="#D09D56"/>
<path d="M180.266 170.046C178.437 168.955 177.602 165.862 178.401 163.139C179.2 160.415 181.331 159.092 183.16 160.183C184.99 161.274 185.824 164.366 185.025 167.09C184.226 169.813 182.095 171.137 180.266 170.046Z" fill="#D09D56"/>
<path d="M169.306 227.274C167.477 226.183 166.642 223.091 167.441 220.367C168.241 217.643 170.371 216.32 172.2 217.411C174.03 218.502 174.864 221.594 174.065 224.318C173.266 227.042 171.135 228.365 169.306 227.274Z" fill="#D09D56"/>
<path d="M164.317 219.354C164.317 219.354 168.099 191.787 173.5 177.191C178.901 162.594 164.342 162.019 165.63 171.48C166.919 180.941 164.847 176.227 165.089 185.788C165.331 195.349 153.22 229.271 157.363 232.174C161.079 234.776 164.316 219.355 164.316 219.355L164.317 219.354Z" fill="#D09D56"/>
<path d="M194.715 178.651C191.004 191.987 193.921 202.13 195.543 201.455C197.163 200.78 201.115 182.469 201.115 182.469C204.826 169.134 201.909 158.991 200.287 159.665C198.666 160.34 194.715 178.651 194.715 178.651Z" fill="#D09D56"/>
<path d="M201.916 156.86C200.087 155.769 199.252 152.676 200.051 149.953C200.85 147.229 202.981 145.905 204.81 146.997C206.639 148.088 207.474 151.18 206.675 153.904C205.876 156.627 203.745 157.951 201.916 156.86Z" fill="#D09D56"/>
<path d="M190.956 214.088C189.127 212.997 188.292 209.904 189.091 207.181C189.89 204.457 192.021 203.134 193.85 204.225C195.68 205.316 196.514 208.408 195.715 211.132C194.916 213.856 192.785 215.179 190.956 214.088Z" fill="#D09D56"/>
<path d="M185.967 206.168C185.967 206.168 189.749 178.601 195.15 164.005C200.551 149.408 185.992 148.833 187.28 158.294C188.569 167.755 186.497 163.041 186.739 172.602C186.981 182.163 174.87 216.084 179.013 218.987C182.729 221.59 185.966 206.169 185.966 206.169L185.967 206.168Z" fill="#D09D56"/>
<path d="M152.029 202.931C148.318 216.266 151.235 226.409 152.857 225.735C154.478 225.06 158.429 206.749 158.429 206.749C162.14 193.414 159.223 183.271 157.601 183.945C155.981 184.62 152.029 202.931 152.029 202.931Z" fill="#D09D56"/>
<path d="M159.23 181.14C157.401 180.049 156.566 176.956 157.365 174.232C158.165 171.509 160.295 170.185 162.125 171.276C163.954 172.367 164.788 175.46 163.989 178.183C163.19 180.907 161.059 182.231 159.23 181.14Z" fill="#D09D56"/>
<path d="M148.27 238.368C146.441 237.277 145.606 234.184 146.405 231.461C147.205 228.737 149.335 227.413 151.165 228.504C152.994 229.595 153.828 232.688 153.029 235.412C152.23 238.135 150.099 239.459 148.27 238.368Z" fill="#D09D56"/>
<path d="M143.281 230.447C143.281 230.447 147.063 202.881 152.464 188.285C157.865 173.688 143.306 173.112 144.595 182.574C145.883 192.035 143.812 187.321 144.053 196.882C144.295 206.443 132.184 240.364 136.327 243.267C140.043 245.869 143.281 230.449 143.281 230.449L143.281 230.447Z" fill="#D09D56"/>
<path d="M238.575 157.552C234.865 170.887 237.782 181.03 239.403 180.355C241.024 179.68 244.975 161.369 244.975 161.369C248.686 148.034 245.769 137.891 244.147 138.565C242.527 139.24 238.575 157.552 238.575 157.552Z" fill="#D09D56"/>
<path d="M245.776 135.76C243.947 134.669 243.112 131.576 243.912 128.853C244.711 126.129 246.842 124.806 248.671 125.897C250.5 126.988 251.335 130.08 250.535 132.804C249.736 135.527 247.605 136.851 245.776 135.76Z" fill="#D09D56"/>
<path d="M234.816 192.988C232.987 191.897 232.152 188.805 232.952 186.081C233.751 183.357 235.882 182.034 237.711 183.125C239.54 184.216 240.375 187.308 239.575 190.032C238.776 192.756 236.645 194.079 234.816 192.988Z" fill="#D09D56"/>
<path d="M229.827 185.068C229.827 185.068 233.609 157.501 239.01 142.905C244.411 128.308 229.852 127.733 231.141 137.194C232.43 146.655 230.358 141.941 230.6 151.502C230.841 161.063 218.73 194.985 222.874 197.888C226.59 200.49 229.827 185.069 229.827 185.069L229.827 185.068Z" fill="#D09D56"/>
<path d="M260.225 144.365C256.515 157.701 259.432 167.844 261.053 167.169C262.674 166.494 266.625 148.183 266.625 148.183C270.336 134.848 267.419 124.705 265.797 125.379C264.177 126.054 260.225 144.365 260.225 144.365Z" fill="#D09D56"/>
<path d="M267.426 122.574C265.597 121.483 264.762 118.39 265.562 115.667C266.361 112.943 268.492 111.619 270.321 112.711C272.15 113.802 272.985 116.894 272.185 119.618C271.386 122.341 269.255 123.665 267.426 122.574Z" fill="#D09D56"/>
<path d="M256.466 179.802C254.637 178.711 253.802 175.618 254.602 172.895C255.401 170.171 257.532 168.848 259.361 169.939C261.19 171.03 262.025 174.122 261.225 176.846C260.426 179.57 258.295 180.893 256.466 179.802Z" fill="#D09D56"/>
<path d="M251.477 171.882C251.477 171.882 255.259 144.315 260.66 129.719C266.061 115.122 251.502 114.547 252.791 124.008C254.08 133.469 252.008 128.755 252.25 138.316C252.491 147.877 240.38 181.798 244.524 184.701C248.239 187.304 251.477 171.883 251.477 171.883L251.477 171.882Z" fill="#D09D56"/>
<path d="M217.539 168.645C213.829 181.98 216.746 192.123 218.367 191.449C219.988 190.774 223.94 172.463 223.94 172.463C227.65 159.128 224.733 148.985 223.112 149.659C221.491 150.334 217.539 168.645 217.539 168.645Z" fill="#D09D56"/>
<path d="M224.74 146.854C222.911 145.763 222.076 142.67 222.876 139.946C223.675 137.223 225.806 135.899 227.635 136.99C229.464 138.081 230.299 141.174 229.5 143.897C228.7 146.621 226.569 147.945 224.74 146.854Z" fill="#D09D56"/>
<path d="M213.78 204.082C211.951 202.991 211.116 199.898 211.916 197.175C212.715 194.451 214.846 193.127 216.675 194.218C218.504 195.309 219.339 198.402 218.54 201.126C217.74 203.849 215.609 205.173 213.78 204.082Z" fill="#D09D56"/>
<path d="M208.791 196.161C208.791 196.161 212.573 168.595 217.974 153.999C223.375 139.402 208.816 138.826 210.105 148.288C211.394 157.749 209.322 153.035 209.564 162.596C209.806 172.157 197.694 206.078 201.838 208.981C205.554 211.583 208.791 196.163 208.791 196.163L208.791 196.161Z" fill="#D09D56"/>
</g>
<g opacity="0.1">
<path d="M305.079 123.063C301.369 136.398 304.286 146.541 305.908 145.867C307.528 145.192 311.48 126.881 311.48 126.881C315.19 113.546 312.273 103.402 310.652 104.077C309.031 104.752 305.079 123.063 305.079 123.063Z" fill="#D09D56"/>
<path d="M312.28 101.271C310.451 100.18 309.616 97.0878 310.416 94.3642C311.215 91.6405 313.346 90.317 315.175 91.408C317.004 92.4991 317.839 95.5916 317.04 98.3152C316.24 101.039 314.109 102.362 312.28 101.271Z" fill="#D09D56"/>
<path d="M301.32 158.499C299.491 157.408 298.656 154.316 299.456 151.592C300.255 148.869 302.386 147.545 304.215 148.636C306.044 149.727 306.879 152.82 306.08 155.543C305.28 158.267 303.149 159.591 301.32 158.499Z" fill="#D09D56"/>
<path d="M296.331 150.579C296.331 150.579 300.113 123.013 305.514 108.416C310.915 93.8199 296.356 93.2441 297.645 102.705C298.934 112.167 296.862 107.453 297.104 117.014C297.346 126.575 285.234 160.496 289.378 163.399C293.094 166.001 296.331 150.581 296.331 150.581L296.331 150.579Z" fill="#D09D56"/>
<path d="M326.729 109.877C323.019 123.212 325.936 133.355 327.557 132.681C329.178 132.006 333.13 113.695 333.13 113.695C336.84 100.359 333.923 90.2163 332.301 90.8907C330.681 91.5657 326.729 109.877 326.729 109.877Z" fill="#D09D56"/>
<path d="M333.93 88.0852C332.101 86.9942 331.266 83.9017 332.066 81.178C332.865 78.4544 334.996 77.1309 336.825 78.222C338.654 79.313 339.489 82.4055 338.69 85.1291C337.89 87.8528 335.759 89.1763 333.93 88.0852Z" fill="#D09D56"/>
<path d="M322.97 145.313C321.141 144.222 320.306 141.13 321.106 138.406C321.905 135.683 324.036 134.359 325.865 135.45C327.694 136.541 328.529 139.634 327.73 142.357C326.93 145.081 324.799 146.404 322.97 145.313Z" fill="#D09D56"/>
<path d="M317.981 137.393C317.981 137.393 321.763 109.827 327.164 95.2302C332.565 80.6338 318.006 80.058 319.295 89.5193C320.584 98.9805 318.512 94.2667 318.754 103.828C318.996 113.389 306.884 147.31 311.028 150.213C314.744 152.815 317.981 137.395 317.981 137.395L317.981 137.393Z" fill="#D09D56"/>
<path d="M284.044 134.157C280.333 147.492 283.25 157.635 284.872 156.961C286.492 156.286 290.444 137.974 290.444 137.974C294.154 124.639 291.237 114.496 289.616 115.17C287.995 115.845 284.044 134.157 284.044 134.157Z" fill="#D09D56"/>
<path d="M291.244 112.365C289.415 111.274 288.581 108.182 289.38 105.458C290.179 102.734 292.31 101.411 294.139 102.502C295.968 103.593 296.803 106.685 296.004 109.409C295.204 112.133 293.074 113.456 291.244 112.365Z" fill="#D09D56"/>
<path d="M280.284 169.593C278.455 168.502 277.621 165.41 278.42 162.686C279.219 159.962 281.35 158.639 283.179 159.73C285.008 160.821 285.843 163.913 285.044 166.637C284.244 169.361 282.114 170.684 280.284 169.593Z" fill="#D09D56"/>
<path d="M275.296 161.673C275.296 161.673 279.077 134.106 284.479 119.51C289.88 104.914 275.32 104.338 276.609 113.799C277.898 123.26 275.826 118.546 276.068 128.108C276.31 137.669 264.198 171.59 268.342 174.493C272.058 177.095 275.295 161.674 275.295 161.674L275.296 161.673Z" fill="#D09D56"/>
<path d="M370.59 88.7769C366.879 102.112 369.796 112.255 371.418 111.581C373.038 110.906 376.99 92.5947 376.99 92.5947C380.701 79.2595 377.784 69.1164 376.162 69.7908C374.541 70.4658 370.59 88.7769 370.59 88.7769Z" fill="#D09D56"/>
<path d="M377.791 66.9854C375.962 65.8943 375.127 62.8018 375.926 60.0782C376.726 57.3545 378.856 56.031 380.685 57.1221C382.515 58.2131 383.349 61.3056 382.55 64.0292C381.751 66.7529 379.62 68.0764 377.791 66.9854Z" fill="#D09D56"/>
<path d="M366.831 124.213C365.002 123.122 364.167 120.03 364.966 117.306C365.766 114.583 367.896 113.259 369.725 114.35C371.555 115.441 372.389 118.534 371.59 121.257C370.791 123.981 368.66 125.305 366.831 124.213Z" fill="#D09D56"/>
<path d="M361.842 116.293C361.842 116.293 365.624 88.7267 371.025 74.1303C376.426 59.5339 361.867 58.9581 363.155 68.4194C364.444 77.8806 362.373 73.1667 362.614 82.7278C362.856 92.2889 350.745 126.21 354.888 129.113C358.604 131.715 361.841 116.295 361.841 116.295L361.842 116.293Z" fill="#D09D56"/>
<path d="M392.24 75.5909C388.529 88.926 391.446 99.0691 393.068 98.3948C394.688 97.7197 398.64 79.4086 398.64 79.4086C402.351 66.0735 399.434 55.9303 397.812 56.6047C396.191 57.2797 392.24 75.5909 392.24 75.5909Z" fill="#D09D56"/>
<path d="M399.441 53.7992C397.612 52.7082 396.777 49.6157 397.576 46.8921C398.375 44.1684 400.506 42.8449 402.335 43.936C404.165 45.027 404.999 48.1195 404.2 50.8431C403.401 53.5668 401.27 54.8903 399.441 53.7992Z" fill="#D09D56"/>
<path d="M388.481 111.027C386.652 109.936 385.817 106.844 386.616 104.12C387.416 101.397 389.546 100.073 391.375 101.164C393.205 102.255 394.039 105.348 393.24 108.071C392.441 110.795 390.31 112.118 388.481 111.027Z" fill="#D09D56"/>
<path d="M383.492 103.107C383.492 103.107 387.274 75.5406 392.675 60.9442C398.076 46.3478 383.517 45.772 384.805 55.2333C386.094 64.6945 384.022 59.9807 384.264 69.5417C384.506 79.1028 372.395 113.024 376.538 115.927C380.254 118.529 383.491 103.109 383.491 103.109L383.492 103.107Z" fill="#D09D56"/>
<path d="M349.554 99.8707C345.843 113.206 348.76 123.349 350.382 122.675C352.003 122 355.954 103.688 355.954 103.688C359.665 90.3532 356.748 80.2101 355.126 80.8844C353.506 81.5595 349.554 99.8707 349.554 99.8707Z" fill="#D09D56"/>
<path d="M356.755 78.079C354.926 76.988 354.091 73.8955 354.89 71.1719C355.69 68.4482 357.82 67.1247 359.65 68.2157C361.479 69.3068 362.313 72.3993 361.514 75.1229C360.715 77.8466 358.584 79.1701 356.755 78.079Z" fill="#D09D56"/>
<path d="M345.795 135.307C343.966 134.216 343.131 131.124 343.93 128.4C344.73 125.676 346.86 124.353 348.69 125.444C350.519 126.535 351.354 129.627 350.554 132.351C349.755 135.075 347.624 136.398 345.795 135.307Z" fill="#D09D56"/>
<path d="M340.806 127.387C340.806 127.387 344.588 99.8204 349.989 85.224C355.39 70.6276 340.831 70.0518 342.12 79.5131C343.408 88.9743 341.337 84.2605 341.578 93.8215C341.82 103.383 329.709 137.304 333.852 140.207C337.568 142.809 340.806 127.388 340.806 127.388L340.806 127.387Z" fill="#D09D56"/>
<path d="M435.012 53.5602C431.301 66.8953 434.219 77.0384 435.84 76.3641C437.461 75.689 441.412 57.3779 441.412 57.3779C445.123 44.0427 442.206 33.8996 440.584 34.574C438.964 35.249 435.012 53.5602 435.012 53.5602Z" fill="#D09D56"/>
<path d="M442.213 31.7686C440.384 30.6775 439.549 27.585 440.348 24.8614C441.148 22.1377 443.279 20.8142 445.108 21.9052C446.937 22.9963 447.772 26.0888 446.972 28.8124C446.173 31.5361 444.042 32.8596 442.213 31.7686Z" fill="#D09D56"/>
<path d="M431.253 88.9967C429.424 87.9056 428.589 84.8132 429.388 82.0895C430.188 79.3658 432.319 78.0423 434.148 79.1334C435.977 80.2244 436.812 83.3169 436.012 86.0406C435.213 88.7642 433.082 90.0877 431.253 88.9967Z" fill="#D09D56"/>
<path d="M426.264 81.0763C426.264 81.0763 430.046 53.5099 435.447 38.9135C440.848 24.3171 426.289 23.7413 427.578 33.2026C428.866 42.6638 426.795 37.95 427.037 47.511C427.278 57.0721 415.167 90.9933 419.311 93.8962C423.026 96.4984 426.264 81.0779 426.264 81.0779L426.264 81.0763Z" fill="#D09D56"/>
<path d="M456.662 40.3741C452.951 53.7092 455.869 63.8523 457.49 63.178C459.111 62.5029 463.062 44.1918 463.062 44.1918C466.773 30.8567 463.856 20.7135 462.234 21.3879C460.614 22.0629 456.662 40.3741 456.662 40.3741Z" fill="#D09D56"/>
<path d="M463.863 18.5824C462.034 17.4914 461.199 14.3989 461.998 11.6752C462.798 8.95157 464.929 7.6281 466.758 8.71916C468.587 9.81022 469.422 12.9027 468.622 15.6263C467.823 18.35 465.692 19.6735 463.863 18.5824Z" fill="#D09D56"/>
<path d="M452.903 75.8106C451.074 74.7195 450.239 71.6271 451.038 68.9034C451.838 66.1797 453.969 64.8562 455.798 65.9473C457.627 67.0383 458.462 70.1308 457.662 72.8545C456.863 75.5782 454.732 76.9016 452.903 75.8106Z" fill="#D09D56"/>
<path d="M447.914 67.8902C447.914 67.8902 451.696 40.3238 457.097 25.7274C462.498 11.131 447.939 10.5552 449.228 20.0165C450.516 29.4777 448.445 24.7639 448.686 34.3249C448.928 43.886 436.817 77.8071 440.961 80.7101C444.676 83.3123 447.914 67.8918 447.914 67.8918L447.914 67.8902Z" fill="#D09D56"/>
<path d="M413.976 64.6539C410.266 77.989 413.183 88.1321 414.804 87.4578C416.425 86.7827 420.376 68.4716 420.376 68.4716C424.087 55.1364 421.17 44.9933 419.548 45.6676C417.928 46.3427 413.976 64.6539 413.976 64.6539Z" fill="#D09D56"/>
<path d="M421.177 42.8622C419.348 41.7712 418.513 38.6787 419.313 35.9551C420.112 33.2314 422.243 31.9079 424.072 32.9989C425.901 34.09 426.736 37.1825 425.936 39.9061C425.137 42.6298 423.006 43.9533 421.177 42.8622Z" fill="#D09D56"/>
<path d="M410.217 100.09C408.388 98.9993 407.553 95.9069 408.353 93.1832C409.152 90.4595 411.283 89.136 413.112 90.2271C414.941 91.3181 415.776 94.4106 414.976 97.1343C414.177 99.8579 412.046 101.181 410.217 100.09Z" fill="#D09D56"/>
<path d="M405.228 92.17C405.228 92.17 409.01 64.6036 414.411 50.0072C419.812 35.4108 405.253 34.835 406.542 44.2963C407.831 53.7575 405.759 49.0437 406.001 58.6047C406.242 68.1658 394.131 102.087 398.275 104.99C401.991 107.592 405.228 92.1716 405.228 92.1716L405.228 92.17Z" fill="#D09D56"/>
<path d="M500.522 19.2742C496.812 32.6093 499.729 42.7524 501.351 42.0781C502.971 41.403 506.923 23.0919 506.923 23.0919C510.633 9.75674 507.716 -0.386392 506.095 0.28797C504.474 0.963005 500.522 19.2742 500.522 19.2742Z" fill="#D09D56"/>
<path d="M507.723 -2.51744C505.894 -3.60849 505.059 -6.70096 505.859 -9.42463C506.658 -12.1483 508.789 -13.4718 510.618 -12.3807C512.447 -11.2897 513.282 -8.19723 512.483 -5.47356C511.683 -2.74989 509.553 -1.42638 507.723 -2.51744Z" fill="#D09D56"/>
<path d="M496.763 54.7107C494.934 53.6196 494.099 50.5272 494.899 47.8035C495.698 45.0798 497.829 43.7563 499.658 44.8474C501.487 45.9384 502.322 49.0309 501.523 51.7546C500.723 54.4783 498.593 55.8017 496.763 54.7107Z" fill="#D09D56"/>
<path d="M491.775 46.7903C491.775 46.7903 495.556 19.2239 500.957 4.62753C506.359 -9.96887 491.799 -10.5447 493.088 -1.08342C494.377 8.37782 492.305 3.66395 492.547 13.225C492.789 22.7861 480.677 56.7073 484.821 59.6102C488.537 62.2124 491.774 46.7919 491.774 46.7919L491.775 46.7903Z" fill="#D09D56"/>
<path d="M522.172 6.08807C518.462 19.4232 521.379 29.5663 523.001 28.892C524.621 28.2169 528.573 9.90579 528.573 9.90579C532.283 -3.42934 529.366 -13.5725 527.745 -12.8981C526.124 -12.2231 522.172 6.08807 522.172 6.08807Z" fill="#D09D56"/>
<path d="M529.373 -15.7035C527.544 -16.7946 526.709 -19.8871 527.509 -22.6107C528.308 -25.3344 530.439 -26.6579 532.268 -25.5668C534.097 -24.4758 534.932 -21.3833 534.133 -18.6597C533.333 -15.936 531.202 -14.6125 529.373 -15.7035Z" fill="#D09D56"/>
<path d="M518.413 41.5246C516.584 40.4335 515.749 37.3411 516.549 34.6174C517.348 31.8937 519.479 30.5702 521.308 31.6613C523.137 32.7523 523.972 35.8448 523.173 38.5685C522.373 41.2922 520.243 42.6156 518.413 41.5246Z" fill="#D09D56"/>
<path d="M513.424 33.6042C513.424 33.6042 517.206 6.03783 522.607 -8.55857C528.008 -23.155 513.449 -23.7308 514.738 -14.2695C516.027 -4.80827 513.955 -9.52213 514.197 0.0389513C514.439 9.60004 502.327 43.5211 506.471 46.4241C510.187 49.0263 513.424 33.6058 513.424 33.6058L513.424 33.6042Z" fill="#D09D56"/>
<path d="M479.487 30.3679C475.776 43.703 478.693 53.8461 480.315 53.1718C481.935 52.4967 485.887 34.1856 485.887 34.1856C489.598 20.8504 486.68 10.7073 485.059 11.3816C483.438 12.0567 479.487 30.3679 479.487 30.3679Z" fill="#D09D56"/>
<path d="M486.688 8.57623C484.858 7.48517 484.024 4.39275 484.823 1.66907C485.622 -1.0546 487.753 -2.37812 489.582 -1.28706C491.411 -0.196 492.246 2.89647 491.447 5.62014C490.647 8.34382 488.517 9.66729 486.688 8.57623Z" fill="#D09D56"/>
<path d="M475.728 65.8044C473.898 64.7133 473.064 61.6209 473.863 58.8972C474.662 56.1735 476.793 54.85 478.622 55.9411C480.451 57.0321 481.286 60.1246 480.487 62.8483C479.687 65.5719 477.557 66.8954 475.728 65.8044Z" fill="#D09D56"/>
<path d="M470.739 57.884C470.739 57.884 474.521 30.3176 479.922 15.7212C485.323 1.12481 470.763 0.549035 472.052 10.0103C473.341 19.4715 471.269 14.7577 471.511 24.3187C471.753 33.8798 459.641 67.8009 463.785 70.7038C467.501 73.3061 470.738 57.8856 470.738 57.8856L470.739 57.884Z" fill="#D09D56"/>
</g>
<g opacity="0.1">
<path d="M293.516 42.3715C289.805 55.7067 292.722 65.8498 294.344 65.1754C295.965 64.5004 299.916 46.1893 299.916 46.1893C303.627 32.8541 300.71 22.711 299.088 23.3854C297.468 24.0604 293.516 42.3715 293.516 42.3715Z" fill="#D09D56"/>
<path d="M300.717 20.5799C298.888 19.4889 298.053 16.3964 298.852 13.6728C299.652 10.9491 301.782 9.62558 303.612 10.7166C305.441 11.8077 306.275 14.9001 305.476 17.6238C304.677 20.3475 302.546 21.671 300.717 20.5799Z" fill="#D09D56"/>
<path d="M289.757 77.808C287.928 76.717 287.093 73.6246 287.892 70.9009C288.692 68.1772 290.822 66.8537 292.652 67.9448C294.481 69.0358 295.315 72.1283 294.516 74.852C293.717 77.5756 291.586 78.8991 289.757 77.808Z" fill="#D09D56"/>
<path d="M284.768 69.8877C284.768 69.8877 288.55 42.3213 293.951 27.7249C299.352 13.1285 284.793 12.5527 286.082 22.014C287.37 31.4752 285.299 26.7613 285.54 36.3224C285.782 45.8835 273.671 79.8046 277.814 82.7076C281.53 85.3098 284.767 69.8893 284.767 69.8893L284.768 69.8877Z" fill="#D09D56"/>
<path d="M315.166 29.1855C311.455 42.5206 314.372 52.6637 315.994 51.9894C317.615 51.3143 321.566 33.0032 321.566 33.0032C325.277 19.668 322.36 9.52488 320.738 10.1992C319.117 10.8743 315.166 29.1855 315.166 29.1855Z" fill="#D09D56"/>
<path d="M322.367 7.39383C320.538 6.30277 319.703 3.21031 320.502 0.486635C321.302 -2.23704 323.432 -3.56051 325.261 -2.46945C327.091 -1.37839 327.925 1.71405 327.126 4.43772C326.327 7.1614 324.196 8.48489 322.367 7.39383Z" fill="#D09D56"/>
<path d="M311.407 64.622C309.578 63.5309 308.743 60.4385 309.542 57.7148C310.342 54.9911 312.472 53.6676 314.302 54.7587C316.131 55.8497 316.965 58.9422 316.166 61.6659C315.367 64.3895 313.236 65.713 311.407 64.622Z" fill="#D09D56"/>
<path d="M306.418 56.7016C306.418 56.7016 310.2 29.1352 315.601 14.5388C321.002 -0.0575824 306.443 -0.633369 307.731 8.82788C309.02 18.2891 306.949 13.5753 307.19 23.1363C307.432 32.6974 295.321 66.6185 299.464 69.5215C303.18 72.1237 306.417 56.7032 306.417 56.7032L306.418 56.7016Z" fill="#D09D56"/>
<path d="M272.48 53.4653C268.769 66.8004 271.687 76.9435 273.308 76.2691C274.929 75.5941 278.88 57.2829 278.88 57.2829C282.591 43.9478 279.674 33.8047 278.052 34.479C276.432 35.1541 272.48 53.4653 272.48 53.4653Z" fill="#D09D56"/>
<path d="M279.681 31.6736C277.852 30.5826 277.017 27.4901 277.816 24.7665C278.616 22.0428 280.747 20.7193 282.576 21.8103C284.405 22.9014 285.24 25.9939 284.44 28.7175C283.641 31.4412 281.51 32.7647 279.681 31.6736Z" fill="#D09D56"/>
<path d="M268.721 88.9017C266.892 87.8107 266.057 84.7183 266.856 81.9946C267.656 79.2709 269.787 77.9474 271.616 79.0385C273.445 80.1295 274.28 83.222 273.48 85.9457C272.681 88.6693 270.55 89.9928 268.721 88.9017Z" fill="#D09D56"/>
<path d="M263.732 80.9814C263.732 80.9814 267.514 53.415 272.915 38.8186C278.316 24.2222 263.757 23.6464 265.046 33.1077C266.334 42.5689 264.263 37.855 264.505 47.4161C264.746 56.9772 252.635 90.8983 256.779 93.8012C260.494 96.4035 263.732 80.983 263.732 80.983L263.732 80.9814Z" fill="#D09D56"/>
<path d="M359.026 8.08554C355.316 21.4207 358.233 31.5638 359.854 30.8894C361.475 30.2144 365.427 11.9033 365.427 11.9033C369.137 -1.43187 366.22 -11.575 364.598 -10.9006C362.978 -10.2256 359.026 8.08554 359.026 8.08554Z" fill="#D09D56"/>
<path d="M366.227 -13.706C364.398 -14.7971 363.563 -17.8896 364.363 -20.6132C365.162 -23.3369 367.293 -24.6604 369.122 -23.5694C370.951 -22.4783 371.786 -19.3859 370.987 -16.6622C370.187 -13.9385 368.056 -12.615 366.227 -13.706Z" fill="#D09D56"/>
<path d="M355.267 43.5221C353.438 42.431 352.603 39.3386 353.403 36.6149C354.202 33.8912 356.333 32.5677 358.162 33.6588C359.991 34.7498 360.826 37.8423 360.027 40.566C359.227 43.2896 357.096 44.6131 355.267 43.5221Z" fill="#D09D56"/>
<path d="M350.278 35.6017C350.278 35.6017 354.06 8.03531 359.461 -6.56108C364.862 -21.1575 350.303 -21.7333 351.592 -12.272C352.881 -2.81079 350.809 -7.52466 351.051 2.03643C351.293 11.5975 339.181 45.5187 343.325 48.4216C347.041 51.0238 350.278 35.6033 350.278 35.6033L350.278 35.6017Z" fill="#D09D56"/>
<path d="M380.676 -5.10054C376.966 8.2346 379.883 18.3777 381.504 17.7034C383.125 17.0283 387.077 -1.28282 387.077 -1.28282C390.787 -14.618 387.87 -24.7611 386.248 -24.0868C384.628 -23.4117 380.676 -5.10054 380.676 -5.10054Z" fill="#D09D56"/>
<path d="M387.877 -26.8922C386.048 -27.9832 385.213 -31.0757 386.013 -33.7994C386.812 -36.523 388.943 -37.8465 390.772 -36.7554C392.601 -35.6644 393.436 -32.5719 392.636 -29.8483C391.837 -27.1246 389.706 -25.8011 387.877 -26.8922Z" fill="#D09D56"/>
<path d="M376.917 30.336C375.088 29.2449 374.253 26.1525 375.053 23.4288C375.852 20.7051 377.983 19.3816 379.812 20.4727C381.641 21.5637 382.476 24.6562 381.677 27.3799C380.877 30.1036 378.746 31.427 376.917 30.336Z" fill="#D09D56"/>
<path d="M371.928 22.4156C371.928 22.4156 375.71 -5.15078 381.111 -19.7472C386.512 -34.3436 371.953 -34.9194 373.242 -25.4581C374.531 -15.9969 372.459 -20.7107 372.701 -11.1497C372.943 -1.58858 360.831 32.3325 364.975 35.2354C368.691 37.8377 371.928 22.4172 371.928 22.4172L371.928 22.4156Z" fill="#D09D56"/>
<path d="M337.99 19.1792C334.28 32.5144 337.197 42.6575 338.819 41.9831C340.439 41.3081 344.391 22.997 344.391 22.997C348.101 9.66183 345.184 -0.481332 343.563 0.193029C341.942 0.868064 337.99 19.1792 337.99 19.1792Z" fill="#D09D56"/>
<path d="M345.191 -2.61238C343.362 -3.70344 342.527 -6.79587 343.327 -9.51954C344.126 -12.2432 346.257 -13.5667 348.086 -12.4757C349.915 -11.3846 350.75 -8.29214 349.951 -5.56847C349.151 -2.84479 347.02 -1.52132 345.191 -2.61238Z" fill="#D09D56"/>
<path d="M334.231 54.6158C332.402 53.5247 331.568 50.4323 332.367 47.7086C333.166 44.9849 335.297 43.6614 337.126 44.7524C338.955 45.8435 339.79 48.936 338.991 51.6597C338.191 54.3833 336.061 55.7068 334.231 54.6158Z" fill="#D09D56"/>
<path d="M329.243 46.6954C329.243 46.6954 333.024 19.129 338.425 4.53259C343.827 -10.0638 329.267 -10.6396 330.556 -1.17833C331.845 8.28292 329.773 3.56905 330.015 13.1301C330.257 22.6912 318.145 56.6123 322.289 59.5152C326.005 62.1175 329.242 46.697 329.242 46.697L329.243 46.6954Z" fill="#D09D56"/>
<path d="M423.449 -27.1313C419.738 -13.7961 422.655 -3.65299 424.277 -4.32735C425.897 -5.00239 429.849 -23.3135 429.849 -23.3135C433.559 -36.6487 430.642 -46.7918 429.021 -46.1174C427.4 -45.4424 423.449 -27.1313 423.449 -27.1313Z" fill="#D09D56"/>
<path d="M430.649 -48.9228C428.82 -50.0139 427.986 -53.1064 428.785 -55.83C429.584 -58.5537 431.715 -59.8772 433.544 -58.7862C435.373 -57.6951 436.208 -54.6026 435.409 -51.879C434.609 -49.1553 432.479 -47.8318 430.649 -48.9228Z" fill="#D09D56"/>
<path d="M419.69 8.30526C417.86 7.2142 417.026 4.12176 417.825 1.39808C418.624 -1.32559 420.755 -2.6491 422.584 -1.55804C424.413 -0.466978 425.248 2.62549 424.449 5.34916C423.649 8.07283 421.519 9.39632 419.69 8.30526Z" fill="#D09D56"/>
<path d="M414.701 0.38489C414.701 0.38489 418.483 -27.1815 423.884 -41.7779C429.285 -56.3743 414.725 -56.9501 416.014 -47.4888C417.303 -38.0276 415.231 -42.7415 415.473 -33.1804C415.715 -23.6193 403.603 10.3019 407.747 13.2048C411.463 15.807 414.7 0.3865 414.7 0.3865L414.701 0.38489Z" fill="#D09D56"/>
<path d="M445.099 -40.3173C441.388 -26.9822 444.305 -16.8391 445.927 -17.5134C447.547 -18.1885 451.499 -36.4996 451.499 -36.4996C455.209 -49.8348 452.292 -59.9779 450.671 -59.3036C449.05 -58.6285 445.099 -40.3173 445.099 -40.3173Z" fill="#D09D56"/>
<path d="M452.299 -62.109C450.47 -63.2 449.636 -66.2925 450.435 -69.0162C451.234 -71.7398 453.365 -73.0633 455.194 -71.9722C457.023 -70.8812 457.858 -67.7887 457.059 -65.0651C456.259 -62.3414 454.129 -61.0179 452.299 -62.109Z" fill="#D09D56"/>
<path d="M441.339 -4.88082C439.51 -5.97187 438.676 -9.06432 439.475 -11.788C440.274 -14.5117 442.405 -15.8352 444.234 -14.7441C446.063 -13.6531 446.898 -10.5606 446.099 -7.83692C445.299 -5.11324 443.169 -3.78976 441.339 -4.88082Z" fill="#D09D56"/>
<path d="M436.351 -12.8012C436.351 -12.8012 440.133 -40.3676 445.534 -54.964C450.935 -69.5604 436.375 -70.1362 437.664 -60.6749C438.953 -51.2137 436.881 -55.9275 437.123 -46.3665C437.365 -36.8054 425.253 -2.88426 429.397 0.0186479C433.113 2.62092 436.35 -12.7996 436.35 -12.7996L436.351 -12.8012Z" fill="#D09D56"/>
<path d="M402.413 -16.0376C398.702 -2.70242 401.619 7.44071 403.241 6.76635C404.861 6.09131 408.813 -12.2198 408.813 -12.2198C412.524 -25.555 409.607 -35.6981 407.985 -35.0238C406.364 -34.3487 402.413 -16.0376 402.413 -16.0376Z" fill="#D09D56"/>
<path d="M409.614 -37.8292C407.784 -38.9202 406.95 -42.0127 407.749 -44.7363C408.548 -47.46 410.679 -48.7835 412.508 -47.6925C414.337 -46.6014 415.172 -43.5089 414.373 -40.7853C413.574 -38.0616 411.443 -36.7381 409.614 -37.8292Z" fill="#D09D56"/>
<path d="M398.654 19.399C396.825 18.3079 395.99 15.2155 396.789 12.4918C397.588 9.76813 399.719 8.44459 401.548 9.53565C403.378 10.6267 404.212 13.7192 403.413 16.4429C402.614 19.1665 400.483 20.49 398.654 19.399Z" fill="#D09D56"/>
<path d="M393.665 11.4786C393.665 11.4786 397.447 -16.0878 402.848 -30.6842C408.249 -45.2806 393.69 -45.8564 394.978 -36.3951C396.267 -26.9339 394.195 -31.6478 394.437 -22.0867C394.679 -12.5256 382.568 21.3955 386.711 24.2984C390.427 26.9007 393.664 11.4802 393.664 11.4802L393.665 11.4786Z" fill="#D09D56"/>
<path d="M488.959 -61.4172C485.248 -48.0821 488.165 -37.939 489.787 -38.6134C491.408 -39.2884 495.359 -57.5995 495.359 -57.5995C499.07 -70.9347 496.153 -81.0778 494.531 -80.4034C492.911 -79.7284 488.959 -61.4172 488.959 -61.4172Z" fill="#D09D56"/>
<path d="M496.16 -83.2088C494.331 -84.2999 493.496 -87.3924 494.295 -90.116C495.095 -92.8397 497.226 -94.1632 499.055 -93.0722C500.884 -91.9811 501.719 -88.8886 500.919 -86.165C500.12 -83.4413 497.989 -82.1178 496.16 -83.2088Z" fill="#D09D56"/>
<path d="M485.2 -25.9807C483.371 -27.0718 482.536 -30.1642 483.335 -32.8879C484.135 -35.6116 486.266 -36.9351 488.095 -35.844C489.924 -34.753 490.759 -31.6605 489.959 -28.9368C489.16 -26.2132 487.029 -24.8897 485.2 -25.9807Z" fill="#D09D56"/>
<path d="M480.211 -33.9011C480.211 -33.9011 483.993 -61.4675 489.394 -76.0639C494.795 -90.6603 480.236 -91.2361 481.525 -81.7748C482.813 -72.3136 480.742 -77.0275 480.983 -67.4664C481.225 -57.9053 469.114 -23.9841 473.258 -21.0812C476.973 -18.479 480.211 -33.8995 480.211 -33.8995L480.211 -33.9011Z" fill="#D09D56"/>
<path d="M510.609 -74.6033C506.898 -61.2682 509.815 -51.1251 511.437 -51.7994C513.058 -52.4745 517.009 -70.7856 517.009 -70.7856C520.72 -84.1207 517.803 -94.2639 516.181 -93.5896C514.561 -92.9145 510.609 -74.6033 510.609 -74.6033Z" fill="#D09D56"/>
<path d="M517.81 -96.395C515.981 -97.486 515.146 -100.578 515.945 -103.302C516.745 -106.026 518.875 -107.349 520.705 -106.258C522.534 -105.167 523.368 -102.075 522.569 -99.3511C521.77 -96.6274 519.639 -95.3039 517.81 -96.395Z" fill="#D09D56"/>
<path d="M506.85 -39.1668C505.021 -40.2579 504.186 -43.3503 504.985 -46.074C505.785 -48.7977 507.916 -50.1212 509.745 -49.0301C511.574 -47.9391 512.409 -44.8466 511.609 -42.1229C510.81 -39.3992 508.679 -38.0758 506.85 -39.1668Z" fill="#D09D56"/>
<path d="M501.861 -47.0872C501.861 -47.0872 505.643 -74.6536 511.044 -89.25C516.445 -103.846 501.886 -104.422 503.175 -94.9609C504.463 -85.4997 502.392 -90.2135 502.633 -80.6525C502.875 -71.0914 490.764 -37.1703 494.907 -34.2673C498.623 -31.6651 501.861 -47.0856 501.861 -47.0856L501.861 -47.0872Z" fill="#D09D56"/>
<path d="M467.923 -50.3235C464.213 -36.9884 467.13 -26.8453 468.751 -27.5196C470.372 -28.1947 474.323 -46.5058 474.323 -46.5058C478.034 -59.841 475.117 -69.9841 473.495 -69.3098C471.875 -68.6347 467.923 -50.3235 467.923 -50.3235Z" fill="#D09D56"/>
<path d="M475.124 -72.1152C473.295 -73.2062 472.46 -76.2987 473.259 -79.0223C474.059 -81.746 476.19 -83.0695 478.019 -81.9785C479.848 -80.8874 480.683 -77.7949 479.883 -75.0713C479.084 -72.3476 476.953 -71.0241 475.124 -72.1152Z" fill="#D09D56"/>
<path d="M464.164 -14.887C462.335 -15.9781 461.5 -19.0705 462.3 -21.7942C463.099 -24.5179 465.23 -25.8414 467.059 -24.7503C468.888 -23.6593 469.723 -20.5668 468.923 -17.8431C468.124 -15.1195 465.993 -13.796 464.164 -14.887Z" fill="#D09D56"/>
<path d="M459.175 -22.8074C459.175 -22.8074 462.957 -50.3738 468.358 -64.9702C473.759 -79.5666 459.2 -80.1424 460.489 -70.6811C461.778 -61.2199 459.706 -65.9337 459.948 -56.3727C460.189 -46.8116 448.078 -12.8905 452.222 -9.98757C455.937 -7.3853 459.175 -22.8058 459.175 -22.8058L459.175 -22.8074Z" fill="#D09D56"/>
</g>
<g opacity="0.1">
<path d="M315.135 204.11C311.424 217.445 314.342 227.588 315.963 226.914C317.584 226.239 321.535 207.928 321.535 207.928C325.246 194.592 322.329 184.449 320.707 185.124C319.087 185.799 315.135 204.11 315.135 204.11Z" fill="#D09D56"/>
<path d="M322.336 182.318C320.507 181.227 319.672 178.135 320.471 175.411C321.271 172.687 323.402 171.364 325.231 172.455C327.06 173.546 327.895 176.638 327.095 179.362C326.296 182.086 324.165 183.409 322.336 182.318Z" fill="#D09D56"/>
<path d="M311.376 239.546C309.547 238.455 308.712 235.363 309.511 232.639C310.311 229.915 312.442 228.592 314.271 229.683C316.1 230.774 316.935 233.867 316.135 236.59C315.336 239.314 313.205 240.637 311.376 239.546Z" fill="#D09D56"/>
<path d="M306.387 231.626C306.387 231.626 310.169 204.06 315.57 189.463C320.971 174.867 306.412 174.291 307.701 183.752C308.989 193.213 306.918 188.5 307.16 198.061C307.401 207.622 295.29 241.543 299.434 244.446C303.149 247.048 306.387 231.628 306.387 231.628L306.387 231.626Z" fill="#D09D56"/>
<path d="M336.785 190.924C333.074 204.259 335.991 214.402 337.613 213.728C339.234 213.053 343.185 194.741 343.185 194.741C346.896 181.406 343.979 171.263 342.357 171.938C340.737 172.613 336.785 190.924 336.785 190.924Z" fill="#D09D56"/>
<path d="M343.986 169.132C342.157 168.041 341.322 164.949 342.121 162.225C342.921 159.501 345.052 158.178 346.881 159.269C348.71 160.36 349.545 163.452 348.745 166.176C347.946 168.9 345.815 170.223 343.986 169.132Z" fill="#D09D56"/>
<path d="M333.026 226.36C331.197 225.269 330.362 222.177 331.161 219.453C331.961 216.729 334.092 215.406 335.921 216.497C337.75 217.588 338.585 220.68 337.785 223.404C336.986 226.128 334.855 227.451 333.026 226.36Z" fill="#D09D56"/>
<path d="M328.037 218.44C328.037 218.44 331.819 190.873 337.22 176.277C342.621 161.681 328.062 161.105 329.351 170.566C330.639 180.027 328.568 175.314 328.809 184.875C329.051 194.436 316.94 228.357 321.084 231.26C324.799 233.862 328.037 218.441 328.037 218.441L328.037 218.44Z" fill="#D09D56"/>
<path d="M294.099 215.204C290.389 228.539 293.306 238.682 294.927 238.007C296.548 237.332 300.499 219.021 300.499 219.021C304.21 205.686 301.293 195.543 299.671 196.217C298.051 196.892 294.099 215.204 294.099 215.204Z" fill="#D09D56"/>
<path d="M301.3 193.412C299.471 192.321 298.636 189.228 299.436 186.505C300.235 183.781 302.366 182.458 304.195 183.549C306.024 184.64 306.859 187.732 306.059 190.456C305.26 193.179 303.129 194.503 301.3 193.412Z" fill="#D09D56"/>
<path d="M290.34 250.64C288.511 249.549 287.676 246.457 288.476 243.733C289.275 241.009 291.406 239.686 293.235 240.777C295.064 241.868 295.899 244.96 295.099 247.684C294.3 250.408 292.169 251.731 290.34 250.64Z" fill="#D09D56"/>
<path d="M285.351 242.72C285.351 242.72 289.133 215.153 294.534 200.557C299.935 185.96 285.376 185.385 286.665 194.846C287.954 204.307 285.882 199.593 286.124 209.154C286.365 218.715 274.254 252.637 278.398 255.54C282.113 258.142 285.351 242.721 285.351 242.721L285.351 242.72Z" fill="#D09D56"/>
<path d="M380.645 169.824C376.935 183.159 379.852 193.302 381.474 192.628C383.094 191.953 387.046 173.642 387.046 173.642C390.756 160.306 387.839 150.163 386.218 150.838C384.597 151.513 380.645 169.824 380.645 169.824Z" fill="#D09D56"/>
<path d="M387.846 148.032C386.017 146.941 385.182 143.849 385.982 141.125C386.781 138.401 388.912 137.078 390.741 138.169C392.57 139.26 393.405 142.352 392.606 145.076C391.806 147.8 389.676 149.123 387.846 148.032Z" fill="#D09D56"/>
<path d="M376.886 205.26C375.057 204.169 374.222 201.077 375.022 198.353C375.821 195.629 377.952 194.306 379.781 195.397C381.61 196.488 382.445 199.581 381.646 202.304C380.846 205.028 378.716 206.351 376.886 205.26Z" fill="#D09D56"/>
<path d="M371.898 197.34C371.898 197.34 375.679 169.774 381.08 155.177C386.482 140.581 371.922 140.005 373.211 149.466C374.5 158.927 372.428 154.214 372.67 163.775C372.912 173.336 360.8 207.257 364.944 210.16C368.66 212.762 371.897 197.342 371.897 197.342L371.898 197.34Z" fill="#D09D56"/>
<path d="M402.295 156.638C398.585 169.973 401.502 180.116 403.124 179.442C404.744 178.767 408.696 160.455 408.696 160.455C412.406 147.12 409.489 136.977 407.868 137.652C406.247 138.327 402.295 156.638 402.295 156.638Z" fill="#D09D56"/>
<path d="M409.496 134.846C407.667 133.755 406.832 130.663 407.632 127.939C408.431 125.215 410.562 123.892 412.391 124.983C414.22 126.074 415.055 129.166 414.256 131.89C413.456 134.614 411.325 135.937 409.496 134.846Z" fill="#D09D56"/>
<path d="M398.536 192.074C396.707 190.983 395.872 187.891 396.672 185.167C397.471 182.443 399.602 181.12 401.431 182.211C403.26 183.302 404.095 186.394 403.296 189.118C402.496 191.842 400.366 193.165 398.536 192.074Z" fill="#D09D56"/>
<path d="M393.547 184.154C393.547 184.154 397.329 156.587 402.73 141.991C408.131 127.395 393.572 126.819 394.861 136.28C396.15 145.741 394.078 141.028 394.32 150.589C394.562 160.15 382.45 194.071 386.594 196.974C390.31 199.576 393.547 184.156 393.547 184.156L393.547 184.154Z" fill="#D09D56"/>
<path d="M359.61 180.918C355.899 194.253 358.816 204.396 360.438 203.721C362.058 203.046 366.01 184.735 366.01 184.735C369.721 171.4 366.803 161.257 365.182 161.931C363.561 162.606 359.61 180.918 359.61 180.918Z" fill="#D09D56"/>
<path d="M366.811 159.126C364.981 158.035 364.147 154.942 364.946 152.219C365.745 149.495 367.876 148.172 369.705 149.263C371.534 150.354 372.369 153.446 371.57 156.17C370.77 158.893 368.64 160.217 366.811 159.126Z" fill="#D09D56"/>
<path d="M355.851 216.354C354.021 215.263 353.187 212.171 353.986 209.447C354.785 206.723 356.916 205.4 358.745 206.491C360.574 207.582 361.409 210.674 360.61 213.398C359.81 216.122 357.68 217.445 355.851 216.354Z" fill="#D09D56"/>
<path d="M350.862 208.434C350.862 208.434 354.644 180.867 360.045 166.271C365.446 151.674 350.886 151.099 352.175 160.56C353.464 170.021 351.392 165.307 351.634 174.868C351.876 184.429 339.764 218.351 343.908 221.254C347.624 223.856 350.861 208.435 350.861 208.435L350.862 208.434Z" fill="#D09D56"/>
<path d="M445.068 134.607C441.357 147.942 444.274 158.085 445.896 157.411C447.516 156.736 451.468 138.425 451.468 138.425C455.179 125.09 452.262 114.946 450.64 115.621C449.019 116.296 445.068 134.607 445.068 134.607Z" fill="#D09D56"/>
<path d="M452.269 112.815C450.44 111.724 449.605 108.632 450.404 105.908C451.203 103.185 453.334 101.861 455.163 102.952C456.992 104.043 457.827 107.136 457.028 109.859C456.229 112.583 454.098 113.906 452.269 112.815Z" fill="#D09D56"/>
<path d="M441.309 170.044C439.48 168.952 438.645 165.86 439.444 163.136C440.243 160.413 442.374 159.089 444.203 160.18C446.033 161.271 446.867 164.364 446.068 167.087C445.269 169.811 443.138 171.135 441.309 170.044Z" fill="#D09D56"/>
<path d="M436.32 162.123C436.32 162.123 440.102 134.557 445.503 119.96C450.904 105.364 436.345 104.788 437.633 114.249C438.922 123.711 436.85 118.997 437.092 128.558C437.334 138.119 425.223 172.04 429.366 174.943C433.082 177.545 436.319 162.125 436.319 162.125L436.32 162.123Z" fill="#D09D56"/>
<path d="M466.718 121.421C463.007 134.756 465.924 144.899 467.546 144.225C469.166 143.55 473.118 125.239 473.118 125.239C476.829 111.904 473.911 101.76 472.29 102.435C470.669 103.11 466.718 121.421 466.718 121.421Z" fill="#D09D56"/>
<path d="M473.919 99.6293C472.089 98.5383 471.255 95.4458 472.054 92.7221C472.853 89.9984 474.984 88.675 476.813 89.766C478.642 90.8571 479.477 93.9495 478.678 96.6732C477.879 99.3969 475.748 100.72 473.919 99.6293Z" fill="#D09D56"/>
<path d="M462.959 156.857C461.13 155.766 460.295 152.674 461.094 149.95C461.893 147.227 464.024 145.903 465.853 146.994C467.682 148.085 468.517 151.178 467.718 153.901C466.919 156.625 464.788 157.949 462.959 156.857Z" fill="#D09D56"/>
<path d="M457.97 148.937C457.97 148.937 461.752 121.371 467.153 106.774C472.554 92.1779 457.994 91.6021 459.283 101.063C460.572 110.525 458.5 105.811 458.742 115.372C458.984 124.933 446.873 158.854 451.016 161.757C454.732 164.359 457.969 148.939 457.969 148.939L457.97 148.937Z" fill="#D09D56"/>
<path d="M424.032 145.701C420.321 159.036 423.238 169.179 424.86 168.505C426.481 167.83 430.432 149.518 430.432 149.518C434.143 136.183 431.226 126.04 429.604 126.715C427.984 127.39 424.032 145.701 424.032 145.701Z" fill="#D09D56"/>
<path d="M431.233 123.909C429.404 122.818 428.569 119.726 429.368 117.002C430.168 114.278 432.298 112.955 434.127 114.046C435.957 115.137 436.791 118.229 435.992 120.953C435.193 123.677 433.062 125 431.233 123.909Z" fill="#D09D56"/>
<path d="M420.273 181.137C418.444 180.046 417.609 176.954 418.408 174.23C419.208 171.506 421.338 170.183 423.168 171.274C424.997 172.365 425.831 175.457 425.032 178.181C424.233 180.905 422.102 182.228 420.273 181.137Z" fill="#D09D56"/>
<path d="M415.284 173.217C415.284 173.217 419.066 145.65 424.467 131.054C429.868 116.458 415.309 115.882 416.597 125.343C417.886 134.804 415.815 130.091 416.056 139.652C416.298 149.213 404.187 183.134 408.33 186.037C412.046 188.639 415.283 173.218 415.283 173.218L415.284 173.217Z" fill="#D09D56"/>
<path d="M510.578 100.321C506.868 113.656 509.785 123.799 511.406 123.125C513.027 122.45 516.978 104.139 516.978 104.139C520.689 90.8036 517.772 80.6605 516.15 81.3348C514.53 82.0099 510.578 100.321 510.578 100.321Z" fill="#D09D56"/>
<path d="M517.779 78.5294C515.95 77.4384 515.115 74.3459 515.914 71.6222C516.714 68.8986 518.845 67.5751 520.674 68.6661C522.503 69.7572 523.338 72.8496 522.538 75.5733C521.739 78.297 519.608 79.6205 517.779 78.5294Z" fill="#D09D56"/>
<path d="M506.819 135.758C504.99 134.666 504.155 131.574 504.955 128.85C505.754 126.127 507.885 124.803 509.714 125.894C511.543 126.985 512.378 130.078 511.578 132.801C510.779 135.525 508.648 136.849 506.819 135.758Z" fill="#D09D56"/>
<path d="M501.83 127.837C501.83 127.837 505.612 100.271 511.013 85.6744C516.414 71.078 501.855 70.5022 503.144 79.9635C504.433 89.4247 502.361 84.7108 502.603 94.2719C502.844 103.833 490.733 137.754 494.877 140.657C498.592 143.259 501.83 127.839 501.83 127.839L501.83 127.837Z" fill="#D09D56"/>
<path d="M532.228 87.1349C528.517 100.47 531.435 110.613 533.056 109.939C534.677 109.264 538.628 90.9527 538.628 90.9527C542.339 77.6175 539.422 67.4744 537.8 68.1487C536.18 68.8238 532.228 87.1349 532.228 87.1349Z" fill="#D09D56"/>
<path d="M539.429 65.3433C537.6 64.2523 536.765 61.1598 537.564 58.4361C538.364 55.7125 540.495 54.389 542.324 55.48C544.153 56.5711 544.988 59.6635 544.188 62.3872C543.389 65.1109 541.258 66.4344 539.429 65.3433Z" fill="#D09D56"/>
<path d="M528.469 122.571C526.64 121.48 525.805 118.388 526.604 115.664C527.404 112.941 529.535 111.617 531.364 112.708C533.193 113.799 534.028 116.892 533.228 119.615C532.429 122.339 530.298 123.663 528.469 122.571Z" fill="#D09D56"/>
<path d="M523.48 114.651C523.48 114.651 527.262 87.0847 532.663 72.4883C538.064 57.8919 523.505 57.3161 524.794 66.7774C526.083 76.2386 524.011 71.5247 524.253 81.0858C524.494 90.6469 512.383 124.568 516.527 127.471C520.242 130.073 523.48 114.653 523.48 114.653L523.48 114.651Z" fill="#D09D56"/>
<path d="M489.542 111.415C485.832 124.75 488.749 134.893 490.37 134.219C491.991 133.544 495.943 115.232 495.943 115.232C499.653 101.897 496.736 91.7542 495.114 92.4285C493.494 93.1036 489.542 111.415 489.542 111.415Z" fill="#D09D56"/>
<path d="M496.743 89.6231C494.914 88.532 494.079 85.4396 494.879 82.7159C495.678 79.9923 497.809 78.6688 499.638 79.7598C501.467 80.8509 502.302 83.9433 501.502 86.667C500.703 89.3907 498.572 90.7142 496.743 89.6231Z" fill="#D09D56"/>
<path d="M485.783 146.851C483.954 145.76 483.119 142.668 483.919 139.944C484.718 137.22 486.849 135.897 488.678 136.988C490.507 138.079 491.342 141.171 490.542 143.895C489.743 146.619 487.612 147.942 485.783 146.851Z" fill="#D09D56"/>
<path d="M480.794 138.931C480.794 138.931 484.576 111.364 489.977 96.7681C495.378 82.1717 480.819 81.5959 482.108 91.0572C483.397 100.518 481.325 95.8045 481.567 105.366C481.809 114.927 469.697 148.848 473.841 151.751C477.557 154.353 480.794 138.932 480.794 138.932L480.794 138.931Z" fill="#D09D56"/>
</g>
<g opacity="0.1">
<path d="M53.9417 342.032C50.2311 355.367 53.1482 365.51 54.7698 364.836C56.3903 364.161 60.342 345.849 60.342 345.849C64.0526 332.514 61.1355 322.371 59.5138 323.046C57.8933 323.721 53.9417 342.032 53.9417 342.032Z" fill="#D09D56"/>
<path d="M61.1426 320.24C59.3135 319.149 58.4787 316.057 59.278 313.333C60.0774 310.609 62.2082 309.286 64.0373 310.377C65.8664 311.468 66.7012 314.56 65.9019 317.284C65.1025 320.008 62.9717 321.331 61.1426 320.24Z" fill="#D09D56"/>
<path d="M50.1826 377.468C48.3535 376.377 47.5187 373.285 48.3181 370.561C49.1174 367.837 51.2482 366.514 53.0773 367.605C54.9065 368.696 55.7413 371.788 54.9419 374.512C54.1426 377.236 52.0118 378.559 50.1826 377.468Z" fill="#D09D56"/>
<path d="M45.1937 369.548C45.1937 369.548 48.9757 341.981 54.3767 327.385C59.7777 312.789 45.2185 312.213 46.5073 321.674C47.7961 331.135 45.7244 326.421 45.9662 335.983C46.208 345.544 34.0965 379.465 38.2402 382.368C41.956 384.97 45.1933 369.549 45.1933 369.549L45.1937 369.548Z" fill="#D09D56"/>
<path d="M75.5916 328.846C71.881 342.181 74.7981 352.324 76.4198 351.65C78.0403 350.974 81.9919 332.663 81.9919 332.663C85.7026 319.328 82.7854 309.185 81.1638 309.859C79.5433 310.534 75.5916 328.846 75.5916 328.846Z" fill="#D09D56"/>
<path d="M82.7925 307.054C80.9634 305.963 80.1286 302.87 80.928 300.147C81.7273 297.423 83.8581 296.1 85.6873 297.191C87.5164 298.282 88.3512 301.374 87.5518 304.098C86.7525 306.822 84.6217 308.145 82.7925 307.054Z" fill="#D09D56"/>
<path d="M71.8326 364.282C70.0035 363.191 69.1687 360.099 69.968 357.375C70.7674 354.651 72.8982 353.328 74.7273 354.419C76.5564 355.51 77.3912 358.602 76.5919 361.326C75.7925 364.05 73.6617 365.373 71.8326 364.282Z" fill="#D09D56"/>
<path d="M66.8437 356.362C66.8437 356.362 70.6256 328.795 76.0267 314.199C81.4277 299.603 66.8684 299.027 68.1573 308.488C69.4461 317.949 67.3743 313.235 67.6161 322.796C67.8579 332.358 55.7465 366.279 59.8902 369.182C63.606 371.784 66.8432 356.363 66.8432 356.363L66.8437 356.362Z" fill="#D09D56"/>
<path d="M32.9058 353.125C29.1952 366.461 32.1123 376.604 33.7339 375.929C35.3545 375.254 39.3061 356.943 39.3061 356.943C43.0167 343.608 40.0996 333.465 38.478 334.139C36.8575 334.814 32.9058 353.125 32.9058 353.125Z" fill="#D09D56"/>
<path d="M40.1067 331.334C38.2776 330.243 37.4428 327.15 38.2422 324.427C39.0415 321.703 41.1723 320.379 43.0014 321.47C44.8306 322.562 45.6654 325.654 44.866 328.378C44.0666 331.101 41.9358 332.425 40.1067 331.334Z" fill="#D09D56"/>
<path d="M29.1468 388.562C27.3176 387.471 26.4829 384.378 27.2822 381.655C28.0816 378.931 30.2124 377.608 32.0415 378.699C33.8706 379.79 34.7054 382.882 33.906 385.606C33.1067 388.329 30.9759 389.653 29.1468 388.562Z" fill="#D09D56"/>
<path d="M24.1579 380.642C24.1579 380.642 27.9398 353.075 33.3408 338.479C38.7419 323.882 24.1826 323.307 25.4714 332.768C26.7602 342.229 24.6885 337.515 24.9303 347.076C25.1721 356.637 13.0606 390.558 17.2043 393.461C20.9201 396.064 24.1574 380.643 24.1574 380.643L24.1579 380.642Z" fill="#D09D56"/>
<path d="M119.452 307.746C115.741 321.081 118.659 331.224 120.28 330.55C121.901 329.875 125.852 311.563 125.852 311.563C129.563 298.228 126.646 288.085 125.024 288.76C123.404 289.435 119.452 307.746 119.452 307.746Z" fill="#D09D56"/>
<path d="M126.653 285.954C124.824 284.863 123.989 281.771 124.788 279.047C125.588 276.323 127.719 275 129.548 276.091C131.377 277.182 132.212 280.274 131.412 282.998C130.613 285.722 128.482 287.045 126.653 285.954Z" fill="#D09D56"/>
<path d="M115.693 343.182C113.864 342.091 113.029 338.999 113.828 336.275C114.628 333.551 116.759 332.228 118.588 333.319C120.417 334.41 121.252 337.502 120.452 340.226C119.653 342.95 117.522 344.273 115.693 343.182Z" fill="#D09D56"/>
<path d="M110.704 335.262C110.704 335.262 114.486 307.695 119.887 293.099C125.288 278.503 110.729 277.927 112.018 287.388C113.307 296.849 111.235 292.135 111.477 301.697C111.718 311.258 99.6069 345.179 103.751 348.082C107.466 350.684 110.704 335.263 110.704 335.263L110.704 335.262Z" fill="#D09D56"/>
<path d="M141.102 294.56C137.391 307.895 140.309 318.038 141.93 317.364C143.551 316.688 147.502 298.377 147.502 298.377C151.213 285.042 148.296 274.899 146.674 275.573C145.054 276.248 141.102 294.56 141.102 294.56Z" fill="#D09D56"/>
<path d="M148.303 272.768C146.474 271.677 145.639 268.584 146.438 265.861C147.238 263.137 149.369 261.814 151.198 262.905C153.027 263.996 153.862 267.088 153.062 269.812C152.263 272.536 150.132 273.859 148.303 272.768Z" fill="#D09D56"/>
<path d="M137.343 329.996C135.514 328.905 134.679 325.813 135.478 323.089C136.278 320.365 138.409 319.042 140.238 320.133C142.067 321.224 142.902 324.316 142.102 327.04C141.303 329.764 139.172 331.087 137.343 329.996Z" fill="#D09D56"/>
<path d="M132.354 322.076C132.354 322.076 136.136 294.509 141.537 279.913C146.938 265.317 132.379 264.741 133.668 274.202C134.956 283.663 132.885 278.949 133.127 288.51C133.368 298.072 121.257 331.993 125.401 334.896C129.116 337.498 132.354 322.077 132.354 322.077L132.354 322.076Z" fill="#D09D56"/>
<path d="M98.4163 318.839C94.7056 332.175 97.6227 342.318 99.2444 341.643C100.865 340.968 104.817 322.657 104.817 322.657C108.527 309.322 105.61 299.179 103.988 299.853C102.368 300.528 98.4163 318.839 98.4163 318.839Z" fill="#D09D56"/>
<path d="M105.617 297.048C103.788 295.957 102.953 292.864 103.753 290.141C104.552 287.417 106.683 286.093 108.512 287.184C110.341 288.276 111.176 291.368 110.376 294.092C109.577 296.815 107.446 298.139 105.617 297.048Z" fill="#D09D56"/>
<path d="M94.6572 354.276C92.8281 353.185 91.9933 350.092 92.7926 347.369C93.592 344.645 95.7228 343.322 97.5519 344.413C99.381 345.504 100.216 348.596 99.4165 351.32C98.6171 354.043 96.4863 355.367 94.6572 354.276Z" fill="#D09D56"/>
<path d="M89.6683 346.356C89.6683 346.356 93.4502 318.789 98.8513 304.193C104.252 289.596 89.6931 289.021 90.9819 298.482C92.2707 307.943 90.1989 303.229 90.4407 312.79C90.6825 322.351 78.5711 356.272 82.7148 359.175C86.4306 361.778 89.6678 346.357 89.6678 346.357L89.6683 346.356Z" fill="#D09D56"/>
<path d="M183.874 272.529C180.164 285.864 183.081 296.007 184.702 295.333C186.323 294.658 190.275 276.347 190.275 276.347C193.985 263.011 191.068 252.868 189.447 253.543C187.826 254.218 183.874 272.529 183.874 272.529Z" fill="#D09D56"/>
<path d="M191.075 250.737C189.246 249.646 188.411 246.554 189.211 243.83C190.01 241.106 192.141 239.783 193.97 240.874C195.799 241.965 196.634 245.058 195.835 247.781C195.035 250.505 192.904 251.828 191.075 250.737Z" fill="#D09D56"/>
<path d="M180.115 307.965C178.286 306.874 177.451 303.782 178.251 301.058C179.05 298.335 181.181 297.011 183.01 298.102C184.839 299.193 185.674 302.286 184.875 305.009C184.075 307.733 181.944 309.056 180.115 307.965Z" fill="#D09D56"/>
<path d="M175.126 300.045C175.126 300.045 178.908 272.479 184.309 257.882C189.71 243.286 175.151 242.71 176.44 252.171C177.729 261.633 175.657 256.919 175.899 266.48C176.141 276.041 164.029 309.962 168.173 312.865C171.889 315.467 175.126 300.047 175.126 300.047L175.126 300.045Z" fill="#D09D56"/>
<path d="M205.524 259.343C201.814 272.678 204.731 282.821 206.352 282.147C207.973 281.472 211.925 263.161 211.925 263.161C215.635 249.825 212.718 239.682 211.096 240.357C209.476 241.032 205.524 259.343 205.524 259.343Z" fill="#D09D56"/>
<path d="M212.725 237.551C210.896 236.46 210.061 233.368 210.861 230.644C211.66 227.92 213.791 226.597 215.62 227.688C217.449 228.779 218.284 231.871 217.485 234.595C216.685 237.319 214.554 238.642 212.725 237.551Z" fill="#D09D56"/>
<path d="M201.765 294.779C199.936 293.688 199.101 290.596 199.901 287.872C200.7 285.148 202.831 283.825 204.66 284.916C206.489 286.007 207.324 289.1 206.525 291.823C205.725 294.547 203.594 295.87 201.765 294.779Z" fill="#D09D56"/>
<path d="M196.776 286.859C196.776 286.859 200.558 259.293 205.959 244.696C211.36 230.1 196.801 229.524 198.09 238.985C199.379 248.446 197.307 243.733 197.549 253.294C197.791 262.855 185.679 296.776 189.823 299.679C193.539 302.281 196.776 286.861 196.776 286.861L196.776 286.859Z" fill="#D09D56"/>
<path d="M162.839 283.623C159.128 296.958 162.045 307.101 163.667 306.427C165.287 305.751 169.239 287.44 169.239 287.44C172.949 274.105 170.032 263.962 168.411 264.636C166.79 265.311 162.839 283.623 162.839 283.623Z" fill="#D09D56"/>
<path d="M170.039 261.831C168.21 260.74 167.375 257.647 168.175 254.924C168.974 252.2 171.105 250.877 172.934 251.968C174.763 253.059 175.598 256.151 174.799 258.875C173.999 261.599 171.869 262.922 170.039 261.831Z" fill="#D09D56"/>
<path d="M159.079 319.059C157.25 317.968 156.416 314.876 157.215 312.152C158.014 309.428 160.145 308.105 161.974 309.196C163.803 310.287 164.638 313.379 163.839 316.103C163.039 318.827 160.909 320.15 159.079 319.059Z" fill="#D09D56"/>
<path d="M154.091 311.139C154.091 311.139 157.872 283.572 163.274 268.976C168.675 254.38 154.115 253.804 155.404 263.265C156.693 272.726 154.621 268.012 154.863 277.573C155.105 287.135 142.993 321.056 147.137 323.959C150.853 326.561 154.09 311.14 154.09 311.14L154.091 311.139Z" fill="#D09D56"/>
<path d="M249.385 238.243C245.674 251.578 248.591 261.721 250.213 261.047C251.833 260.372 255.785 242.061 255.785 242.061C259.496 228.725 256.579 218.582 254.957 219.257C253.336 219.932 249.385 238.243 249.385 238.243Z" fill="#D09D56"/>
<path d="M256.586 216.451C254.757 215.36 253.922 212.268 254.721 209.544C255.52 206.82 257.651 205.497 259.48 206.588C261.31 207.679 262.144 210.772 261.345 213.495C260.546 216.219 258.415 217.542 256.586 216.451Z" fill="#D09D56"/>
<path d="M245.626 273.679C243.797 272.588 242.962 269.496 243.761 266.772C244.561 264.049 246.691 262.725 248.52 263.816C250.35 264.907 251.184 268 250.385 270.723C249.586 273.447 247.455 274.77 245.626 273.679Z" fill="#D09D56"/>
<path d="M240.637 265.759C240.637 265.759 244.419 238.193 249.82 223.596C255.221 209 240.662 208.424 241.95 217.885C243.239 227.347 241.167 222.633 241.409 232.194C241.651 241.755 229.54 275.676 233.683 278.579C237.399 281.181 240.636 265.761 240.636 265.761L240.637 265.759Z" fill="#D09D56"/>
<path d="M271.035 225.057C267.324 238.392 270.241 248.535 271.863 247.861C273.483 247.186 277.435 228.875 277.435 228.875C281.146 215.539 278.229 205.396 276.607 206.071C274.986 206.746 271.035 225.057 271.035 225.057Z" fill="#D09D56"/>
<path d="M278.236 203.265C276.407 202.174 275.572 199.082 276.371 196.358C277.17 193.634 279.301 192.311 281.13 193.402C282.959 194.493 283.794 197.585 282.995 200.309C282.196 203.033 280.065 204.356 278.236 203.265Z" fill="#D09D56"/>
<path d="M267.276 260.493C265.447 259.402 264.612 256.31 265.411 253.586C266.21 250.862 268.341 249.539 270.17 250.63C272 251.721 272.834 254.814 272.035 257.537C271.236 260.261 269.105 261.584 267.276 260.493Z" fill="#D09D56"/>
<path d="M262.287 252.573C262.287 252.573 266.069 225.007 271.47 210.41C276.871 195.814 262.312 195.238 263.6 204.699C264.889 214.16 262.817 209.447 263.059 219.008C263.301 228.569 251.19 262.49 255.333 265.393C259.049 267.995 262.286 252.575 262.286 252.575L262.287 252.573Z" fill="#D09D56"/>
<path d="M228.349 249.337C224.638 262.672 227.555 272.815 229.177 272.141C230.798 271.465 234.749 253.154 234.749 253.154C238.46 239.819 235.543 229.676 233.921 230.35C232.301 231.025 228.349 249.337 228.349 249.337Z" fill="#D09D56"/>
<path d="M235.55 227.545C233.721 226.454 232.886 223.361 233.685 220.638C234.485 217.914 236.615 216.591 238.445 217.682C240.274 218.773 241.108 221.865 240.309 224.589C239.51 227.313 237.379 228.636 235.55 227.545Z" fill="#D09D56"/>
<path d="M224.59 284.773C222.761 283.682 221.926 280.59 222.725 277.866C223.525 275.142 225.655 273.819 227.485 274.91C229.314 276.001 230.148 279.093 229.349 281.817C228.55 284.541 226.419 285.864 224.59 284.773Z" fill="#D09D56"/>
<path d="M219.601 276.853C219.601 276.853 223.383 249.286 228.784 234.69C234.185 220.094 219.626 219.518 220.915 228.979C222.203 238.44 220.132 233.726 220.373 243.287C220.615 252.849 208.504 286.77 212.647 289.673C216.363 292.275 219.6 276.854 219.6 276.854L219.601 276.853Z" fill="#D09D56"/>
</g>
<g opacity="0.1">
<path d="M169.832 359.45C166.122 372.785 169.039 382.928 170.66 382.254C172.281 381.579 176.233 363.267 176.233 363.267C179.943 349.932 177.026 339.789 175.404 340.463C173.784 341.139 169.832 359.45 169.832 359.45Z" fill="#D09D56"/>
<path d="M177.033 337.658C175.204 336.567 174.369 333.475 175.169 330.751C175.968 328.027 178.099 326.704 179.928 327.795C181.757 328.886 182.592 331.978 181.792 334.702C180.993 337.426 178.862 338.749 177.033 337.658Z" fill="#D09D56"/>
<path d="M166.073 394.886C164.244 393.795 163.409 390.703 164.209 387.979C165.008 385.255 167.139 383.932 168.968 385.023C170.797 386.114 171.632 389.206 170.833 391.93C170.033 394.654 167.902 395.977 166.073 394.886Z" fill="#D09D56"/>
<path d="M161.084 386.966C161.084 386.966 164.866 359.399 170.267 344.803C175.668 330.207 161.109 329.631 162.398 339.092C163.687 348.553 161.615 343.839 161.857 353.401C162.099 362.962 149.987 396.883 154.131 399.786C157.847 402.388 161.084 386.967 161.084 386.967L161.084 386.966Z" fill="#D09D56"/>
<path d="M191.482 346.264C187.772 359.599 190.689 369.742 192.31 369.067C193.931 368.392 197.883 350.081 197.883 350.081C201.593 336.746 198.676 326.603 197.054 327.277C195.434 327.952 191.482 346.264 191.482 346.264Z" fill="#D09D56"/>
<path d="M198.683 324.472C196.854 323.381 196.019 320.288 196.819 317.565C197.618 314.841 199.749 313.518 201.578 314.609C203.407 315.7 204.242 318.792 203.442 321.516C202.643 324.24 200.512 325.563 198.683 324.472Z" fill="#D09D56"/>
<path d="M187.723 381.7C185.894 380.609 185.059 377.517 185.859 374.793C186.658 372.069 188.789 370.746 190.618 371.837C192.447 372.928 193.282 376.02 192.482 378.744C191.683 381.468 189.552 382.791 187.723 381.7Z" fill="#D09D56"/>
<path d="M182.734 373.78C182.734 373.78 186.516 346.213 191.917 331.617C197.318 317.021 182.759 316.445 184.048 325.906C185.337 335.367 183.265 330.653 183.507 340.214C183.749 349.776 171.637 383.697 175.781 386.6C179.497 389.202 182.734 373.781 182.734 373.781L182.734 373.78Z" fill="#D09D56"/>
<path d="M148.796 370.543C145.086 383.879 148.003 394.022 149.625 393.347C151.245 392.672 155.197 374.361 155.197 374.361C158.907 361.026 155.99 350.883 154.369 351.557C152.748 352.232 148.796 370.543 148.796 370.543Z" fill="#D09D56"/>
<path d="M155.997 348.752C154.168 347.661 153.333 344.568 154.133 341.845C154.932 339.121 157.063 337.797 158.892 338.888C160.721 339.98 161.556 343.072 160.757 345.796C159.957 348.519 157.826 349.843 155.997 348.752Z" fill="#D09D56"/>
<path d="M145.037 405.98C143.208 404.889 142.373 401.796 143.173 399.073C143.972 396.349 146.103 395.026 147.932 396.117C149.761 397.208 150.596 400.3 149.797 403.024C148.997 405.747 146.867 407.071 145.037 405.98Z" fill="#D09D56"/>
<path d="M140.048 398.06C140.048 398.06 143.83 370.493 149.231 355.897C154.632 341.3 140.073 340.725 141.362 350.186C142.651 359.647 140.579 354.933 140.821 364.494C141.063 374.055 128.951 407.976 133.095 410.879C136.811 413.482 140.048 398.061 140.048 398.061L140.048 398.06Z" fill="#D09D56"/>
<path d="M235.343 325.164C231.632 338.499 234.549 348.642 236.171 347.968C237.791 347.293 241.743 328.981 241.743 328.981C245.454 315.646 242.537 305.503 240.915 306.177C239.294 306.853 235.343 325.164 235.343 325.164Z" fill="#D09D56"/>
<path d="M242.544 303.372C240.715 302.281 239.88 299.189 240.679 296.465C241.478 293.741 243.609 292.418 245.438 293.509C247.268 294.6 248.102 297.692 247.303 300.416C246.504 303.14 244.373 304.463 242.544 303.372Z" fill="#D09D56"/>
<path d="M231.584 360.6C229.755 359.509 228.92 356.417 229.719 353.693C230.518 350.969 232.649 349.646 234.478 350.737C236.308 351.828 237.142 354.92 236.343 357.644C235.544 360.368 233.413 361.691 231.584 360.6Z" fill="#D09D56"/>
<path d="M226.595 352.68C226.595 352.68 230.377 325.113 235.778 310.517C241.179 295.921 226.62 295.345 227.908 304.806C229.197 314.267 227.125 309.553 227.367 319.115C227.609 328.676 215.498 362.597 219.641 365.5C223.357 368.102 226.594 352.681 226.594 352.681L226.595 352.68Z" fill="#D09D56"/>
<path d="M256.993 311.978C253.282 325.313 256.199 335.456 257.821 334.781C259.441 334.106 263.393 315.795 263.393 315.795C267.104 302.46 264.186 292.317 262.565 292.991C260.944 293.666 256.993 311.978 256.993 311.978Z" fill="#D09D56"/>
<path d="M264.194 290.186C262.364 289.095 261.53 286.002 262.329 283.279C263.128 280.555 265.259 279.232 267.088 280.323C268.917 281.414 269.752 284.506 268.953 287.23C268.154 289.954 266.023 291.277 264.194 290.186Z" fill="#D09D56"/>
<path d="M253.234 347.414C251.405 346.323 250.57 343.231 251.369 340.507C252.168 337.783 254.299 336.46 256.128 337.551C257.957 338.642 258.792 341.734 257.993 344.458C257.194 347.182 255.063 348.505 253.234 347.414Z" fill="#D09D56"/>
<path d="M248.245 339.494C248.245 339.494 252.027 311.927 257.428 297.331C262.829 282.735 248.27 282.159 249.558 291.62C250.847 301.081 248.775 296.367 249.017 305.928C249.259 315.49 237.148 349.411 241.291 352.314C245.007 354.916 248.244 339.495 248.244 339.495L248.245 339.494Z" fill="#D09D56"/>
<path d="M214.307 336.257C210.596 349.593 213.513 359.736 215.135 359.061C216.756 358.386 220.707 340.075 220.707 340.075C224.418 326.74 221.501 316.597 219.879 317.271C218.259 317.946 214.307 336.257 214.307 336.257Z" fill="#D09D56"/>
<path d="M221.508 314.466C219.679 313.375 218.844 310.282 219.643 307.559C220.443 304.835 222.573 303.511 224.402 304.602C226.232 305.694 227.066 308.786 226.267 311.51C225.468 314.233 223.337 315.557 221.508 314.466Z" fill="#D09D56"/>
<path d="M210.548 371.694C208.719 370.603 207.884 367.51 208.683 364.787C209.483 362.063 211.613 360.74 213.443 361.831C215.272 362.922 216.106 366.014 215.307 368.738C214.508 371.461 212.377 372.785 210.548 371.694Z" fill="#D09D56"/>
<path d="M205.559 363.774C205.559 363.774 209.341 336.207 214.742 321.611C220.143 307.014 205.584 306.439 206.873 315.9C208.161 325.361 206.09 320.647 206.331 330.208C206.573 339.769 194.462 373.69 198.605 376.593C202.321 379.196 205.558 363.775 205.558 363.775L205.559 363.774Z" fill="#D09D56"/>
<path d="M299.765 289.947C296.054 303.282 298.971 313.425 300.593 312.751C302.214 312.076 306.165 293.765 306.165 293.765C309.876 280.429 306.959 270.286 305.337 270.961C303.717 271.636 299.765 289.947 299.765 289.947Z" fill="#D09D56"/>
<path d="M306.966 268.155C305.137 267.064 304.302 263.972 305.101 261.248C305.901 258.524 308.032 257.201 309.861 258.292C311.69 259.383 312.525 262.475 311.725 265.199C310.926 267.923 308.795 269.246 306.966 268.155Z" fill="#D09D56"/>
<path d="M296.006 325.383C294.177 324.292 293.342 321.2 294.141 318.476C294.941 315.753 297.072 314.429 298.901 315.52C300.73 316.611 301.565 319.704 300.765 322.427C299.966 325.151 297.835 326.474 296.006 325.383Z" fill="#D09D56"/>
<path d="M291.017 317.463C291.017 317.463 294.799 289.897 300.2 275.3C305.601 260.704 291.042 260.128 292.331 269.589C293.619 279.051 291.548 274.337 291.789 283.898C292.031 293.459 279.92 327.38 284.064 330.283C287.779 332.885 291.017 317.465 291.017 317.465L291.017 317.463Z" fill="#D09D56"/>
<path d="M321.415 276.761C317.704 290.096 320.621 300.239 322.243 299.565C323.864 298.89 327.815 280.579 327.815 280.579C331.526 267.243 328.609 257.1 326.987 257.775C325.367 258.45 321.415 276.761 321.415 276.761Z" fill="#D09D56"/>
<path d="M328.616 254.969C326.787 253.878 325.952 250.786 326.751 248.062C327.551 245.338 329.681 244.015 331.511 245.106C333.34 246.197 334.174 249.289 333.375 252.013C332.576 254.737 330.445 256.06 328.616 254.969Z" fill="#D09D56"/>
<path d="M317.656 312.197C315.827 311.106 314.992 308.014 315.791 305.29C316.591 302.566 318.721 301.243 320.551 302.334C322.38 303.425 323.215 306.518 322.415 309.241C321.616 311.965 319.485 313.288 317.656 312.197Z" fill="#D09D56"/>
<path d="M312.667 304.277C312.667 304.277 316.449 276.711 321.85 262.114C327.251 247.518 312.692 246.942 313.981 256.403C315.269 265.864 313.198 261.151 313.439 270.712C313.681 280.273 301.57 314.194 305.713 317.097C309.429 319.699 312.667 304.279 312.667 304.279L312.667 304.277Z" fill="#D09D56"/>
<path d="M278.729 301.041C275.019 314.376 277.936 324.519 279.557 323.844C281.178 323.169 285.129 304.858 285.129 304.858C288.84 291.523 285.923 281.38 284.301 282.054C282.681 282.729 278.729 301.041 278.729 301.041Z" fill="#D09D56"/>
<path d="M285.93 279.249C284.101 278.158 283.266 275.065 284.065 272.342C284.865 269.618 286.996 268.295 288.825 269.386C290.654 270.477 291.489 273.569 290.689 276.293C289.89 279.017 287.759 280.34 285.93 279.249Z" fill="#D09D56"/>
<path d="M274.97 336.477C273.141 335.386 272.306 332.294 273.106 329.57C273.905 326.846 276.036 325.523 277.865 326.614C279.694 327.705 280.529 330.797 279.729 333.521C278.93 336.245 276.799 337.568 274.97 336.477Z" fill="#D09D56"/>
<path d="M269.981 328.557C269.981 328.557 273.763 300.99 279.164 286.394C284.565 271.798 270.006 271.222 271.295 280.683C272.584 290.144 270.512 285.43 270.754 294.991C270.995 304.553 258.884 338.474 263.028 341.377C266.743 343.979 269.981 328.558 269.981 328.558L269.981 328.557Z" fill="#D09D56"/>
<path d="M365.275 255.661C361.565 268.996 364.482 279.139 366.104 278.465C367.724 277.79 371.676 259.479 371.676 259.479C375.386 246.143 372.469 236 370.848 236.675C369.227 237.35 365.275 255.661 365.275 255.661Z" fill="#D09D56"/>
<path d="M372.476 233.869C370.647 232.778 369.812 229.686 370.612 226.962C371.411 224.238 373.542 222.915 375.371 224.006C377.2 225.097 378.035 228.189 377.236 230.913C376.436 233.637 374.305 234.96 372.476 233.869Z" fill="#D09D56"/>
<path d="M361.516 291.097C359.687 290.006 358.852 286.914 359.652 284.19C360.451 281.467 362.582 280.143 364.411 281.234C366.24 282.325 367.075 285.418 366.276 288.141C365.476 290.865 363.345 292.188 361.516 291.097Z" fill="#D09D56"/>
<path d="M356.527 283.177C356.527 283.177 360.309 255.611 365.71 241.014C371.111 226.418 356.552 225.842 357.841 235.303C359.13 244.765 357.058 240.051 357.3 249.612C357.542 259.173 345.43 293.094 349.574 295.997C353.29 298.599 356.527 283.179 356.527 283.179L356.527 283.177Z" fill="#D09D56"/>
<path d="M386.925 242.475C383.215 255.81 386.132 265.953 387.753 265.279C389.374 264.604 393.326 246.293 393.326 246.293C397.036 232.957 394.119 222.814 392.498 223.489C390.877 224.164 386.925 242.475 386.925 242.475Z" fill="#D09D56"/>
<path d="M394.126 220.683C392.297 219.592 391.462 216.5 392.262 213.776C393.061 211.052 395.192 209.729 397.021 210.82C398.85 211.911 399.685 215.003 398.886 217.727C398.086 220.451 395.955 221.774 394.126 220.683Z" fill="#D09D56"/>
<path d="M383.166 277.911C381.337 276.82 380.502 273.728 381.302 271.004C382.101 268.28 384.232 266.957 386.061 268.048C387.89 269.139 388.725 272.232 387.926 274.955C387.126 277.679 384.995 279.002 383.166 277.911Z" fill="#D09D56"/>
<path d="M378.177 269.991C378.177 269.991 381.959 242.425 387.36 227.828C392.761 213.232 378.202 212.656 379.491 222.117C380.78 231.578 378.708 226.865 378.95 236.426C379.192 245.987 367.08 279.908 371.224 282.811C374.94 285.413 378.177 269.993 378.177 269.993L378.177 269.991Z" fill="#D09D56"/>
<path d="M344.24 266.755C340.529 280.09 343.446 290.233 345.068 289.558C346.688 288.883 350.64 270.572 350.64 270.572C354.35 257.237 351.433 247.094 349.812 247.768C348.191 248.443 344.24 266.755 344.24 266.755Z" fill="#D09D56"/>
<path d="M351.44 244.963C349.611 243.872 348.777 240.779 349.576 238.056C350.375 235.332 352.506 234.009 354.335 235.1C356.164 236.191 356.999 239.283 356.2 242.007C355.4 244.731 353.27 246.054 351.44 244.963Z" fill="#D09D56"/>
<path d="M340.48 302.191C338.651 301.1 337.817 298.008 338.616 295.284C339.415 292.56 341.546 291.237 343.375 292.328C345.204 293.419 346.039 296.511 345.24 299.235C344.44 301.959 342.31 303.282 340.48 302.191Z" fill="#D09D56"/>
<path d="M335.492 294.271C335.492 294.271 339.274 266.704 344.675 252.108C350.076 237.512 335.516 236.936 336.805 246.397C338.094 255.858 336.022 251.144 336.264 260.705C336.506 270.267 324.394 304.188 328.538 307.091C332.254 309.693 335.491 294.272 335.491 294.272L335.492 294.271Z" fill="#D09D56"/>
</g>
</g>
<defs>
<clipPath id="clip0_264_480">
<rect width="362" height="364" fill="white"/>
</clipPath>
</defs>
</svg>
